%FSLAX33Y33*%
%MOMM*%
G04 EasyPC Gerber Version 17.0 Build 3379 *
%ADD129R,2.20000X2.20000*%
%ADD131R,2.30000X2.30000*%
%ADD121R,3.20000X3.20000*%
%ADD114C,0.52700*%
%ADD136C,1.60000*%
%ADD137C,1.90000*%
%ADD126C,2.10000*%
%ADD132C,2.30000*%
%ADD122C,2.40000*%
%ADD134C,2.50000*%
%ADD118C,2.60000*%
%ADD123C,2.60000*%
%ADD119C,3.40000*%
%ADD125C,5.40000*%
%AMT130*0 Thermal pad*4,1,6,0.90000,0.10000,0.90000,0.90000,0.10000,0.90000,0.10000,1.10000,1.10000,1.10000,1.10000,0.10000,0.90000,0.10000,0*4,1,6,-0.10000,0.90000,-0.90000,0.90000,-0.90000,0.10000,-1.10000,0.10000,-1.10000,1.10000,-0.10000,1.10000,-0.10000,0.90000,0*4,1,6,-0.90000,-0.10000,-0.90000,-0.90000,-0.10000,-0.90000,-0.10000,-1.10000,-1.10000,-1.10000,-1.10000,-0.10000,-0.90000,-0.10000,0*4,1,6,0.10000,-0.90000,0.90000,-0.90000,0.90000,-0.10000,1.10000,-0.10000,1.10000,-1.10000,0.10000,-1.10000,0.10000,-0.90000,0*%
%ADD130T130*%
%AMT128*0 Thermal pad*4,1,6,1.40000,0.10000,1.40000,1.40000,0.10000,1.40000,0.10000,1.60000,1.60000,1.60000,1.60000,0.10000,1.40000,0.10000,0*4,1,6,-0.10000,1.40000,-1.40000,1.40000,-1.40000,0.10000,-1.60000,0.10000,-1.60000,1.60000,-0.10000,1.60000,-0.10000,1.40000,0*4,1,6,-1.40000,-0.10000,-1.40000,-1.40000,-0.10000,-1.40000,-0.10000,-1.60000,-1.60000,-1.60000,-1.60000,-0.10000,-1.40000,-0.10000,0*4,1,6,0.10000,-1.40000,1.40000,-1.40000,1.40000,-0.10000,1.60000,-0.10000,1.60000,-1.60000,0.10000,-1.60000,0.10000,-1.40000,0*%
%ADD128T128*%
%AMT115*0 Thermal pad*7,0,0,1.60000,1.20000,0.20000,0*%
%ADD115T115*%
%ADD117C,7.20000*%
X0Y0D02*
D02*
D114*
X64Y889D02*
X146039D01*
Y100839*
X64*
Y889*
X92064D02*
X88001D01*
Y18964*
X85251Y21714*
X64*
Y25776*
X87189*
X92064Y20901*
Y889*
G36*
X88001*
Y18964*
X85251Y21714*
X64*
Y25776*
X87189*
X92064Y20901*
Y889*
G37*
D02*
D115*
X79794Y56849D03*
X95914Y65039D03*
X109689Y74939D03*
X123789Y50189D03*
X128139Y14714D03*
D02*
D117*
X7064Y7889D03*
Y93889D03*
X90064Y60889D03*
X127064Y7889D03*
Y93889D03*
D02*
D118*
X95189Y88114D03*
X103539Y83389D03*
D02*
D119*
X3888Y18146D03*
X7614Y34989D03*
X11389Y18146D03*
X15234Y34989D03*
X18889Y18146D03*
X26389D03*
X30414Y35089D03*
X32889Y18146D03*
X38034Y35089D03*
X40389Y18146D03*
X47439Y96589D03*
X47889Y18146D03*
X55389D03*
X61889D03*
X69389D03*
X71739Y96597D03*
X74839Y68339D03*
X76889Y18146D03*
X84389D03*
X85614Y96689D03*
X91939Y71889D03*
X97389Y96663D03*
X98439Y14489D03*
Y22109D03*
X100789Y52114D03*
X106089Y96614D03*
X106339Y73089D03*
X114789Y96614D03*
X127139Y41064D03*
D02*
D121*
X6389Y76384D03*
Y81464D03*
X31414Y7614D03*
X36493D03*
X41574D03*
X46654D03*
X51734D03*
X56814D03*
X139712Y26709D03*
Y31789D03*
Y51009D03*
Y56089D03*
Y70409D03*
Y75489D03*
X139739Y7509D03*
Y12589D03*
Y89409D03*
Y94489D03*
D02*
D122*
X56814Y10959D03*
X136362Y51009D03*
X136367Y56089D03*
D02*
D123*
X61839Y44399D03*
Y46939D03*
Y49479D03*
X61864Y79899D03*
Y82439D03*
Y84979D03*
X84198Y38914D03*
X86739D03*
X89279D03*
X118639Y23524D03*
Y26064D03*
Y28604D03*
D02*
D125*
X58049Y34189D03*
Y59689D03*
X58074Y69689D03*
Y95189D03*
X73989Y35124D03*
X99489D03*
X114849Y13314D03*
Y38814D03*
D02*
D126*
X71689Y47489D03*
Y49489D03*
X71739Y82964D03*
Y84964D03*
X84339Y47689D03*
X86339D03*
X127093Y26689D03*
Y28689D03*
D02*
D128*
X139712Y45929D03*
D02*
D129*
X98359Y60249D03*
Y62789D03*
X100899Y60249D03*
Y62789D03*
X103439Y60249D03*
Y62789D03*
X105978Y60249D03*
Y62789D03*
X108518Y60249D03*
X111059D03*
Y62789D03*
X113599Y60249D03*
Y62789D03*
X116139Y60249D03*
Y62789D03*
X118679Y60249D03*
Y62789D03*
X121218Y60249D03*
Y62789D03*
X123759Y60249D03*
Y62789D03*
X126299Y60249D03*
Y62789D03*
X128839Y60249D03*
D02*
D130*
X108518Y62789D03*
X128839D03*
D02*
D131*
X20870Y97522D03*
D02*
D132*
X22572Y92442D03*
X24274Y97522D03*
X25976Y92442D03*
X27678Y97522D03*
X29380Y92442D03*
X31081Y97522D03*
X32783Y92442D03*
X34485Y97522D03*
X36187Y92442D03*
X37889Y97522D03*
D02*
D134*
X17489Y77464D03*
X27649D03*
D02*
D136*
X101151Y69514D03*
X105539Y90489D03*
X117539Y81489D03*
X120889Y53214D03*
Y96589D03*
X121139Y73464D03*
X121939Y51889D03*
X123239Y75564D03*
X124389Y76839D03*
X125514Y52539D03*
X125939Y50989D03*
X126689Y76789D03*
D02*
D137*
X82611Y82892D03*
X91068Y55224D03*
X95314Y93614D03*
X97689Y56564D03*
X100214Y84564D03*
X106139Y78689D03*
X106339Y85489D03*
X120805Y67980D03*
X126614Y71864D03*
X0Y0D02*
M02*
