%FSLAX23Y23*%
%MOIN*%
G04 EasyPC Gerber Version 17.0 Build 3379 *
%ADD111R,0.05887X0.06787*%
%ADD116R,0.07874X0.07874*%
%ADD118R,0.08268X0.08268*%
%ADD109R,0.11811X0.11811*%
%ADD105C,0.05512*%
%ADD126C,0.06693*%
%ADD115C,0.07480*%
%ADD119C,0.08268*%
%ADD110C,0.08661*%
%ADD121C,0.09055*%
%ADD107C,0.09449*%
%ADD112C,0.09449*%
%ADD108C,0.12598*%
%ADD113C,0.20472*%
%ADD106C,0.27559*%
%ADD124R,0.02587X0.02087*%
%ADD122R,0.04787X0.02787*%
%ADD123R,0.05559X0.02787*%
%ADD117R,0.08587X0.02987*%
%ADD125R,0.05587X0.04787*%
%ADD114R,0.06787X0.05887*%
%ADD120R,0.09843X0.07874*%
X0Y0D02*
D02*
D105*
X3267Y2237D03*
X3776Y2561D03*
X3982Y2737D03*
X4155Y3563D03*
X4318Y2950D03*
X4628Y3208D03*
X4759Y2095D03*
Y3803D03*
X4769Y2892D03*
X4801Y2043D03*
X4852Y2975D03*
X4874Y1976D03*
X4897Y3025D03*
X4939Y2067D03*
X4988Y3023D03*
X5045Y579D03*
D02*
D106*
X278Y311D03*
Y3696D03*
X3546Y2397D03*
X5003Y311D03*
Y3696D03*
D02*
D107*
X3748Y3469D03*
X4076Y3283D03*
D02*
D108*
X153Y714D03*
X300Y1378D03*
X448Y714D03*
X600Y1378D03*
X744Y714D03*
X1039D03*
X1197Y1381D03*
X1295Y714D03*
X1497Y1381D03*
X1590Y714D03*
X1868Y3803D03*
X1885Y714D03*
X2181D03*
X2437D03*
X2732D03*
X2824Y3803D03*
X2946Y2691D03*
X3027Y714D03*
X3322D03*
X3371Y3807D03*
X3620Y2830D03*
X3834Y3806D03*
X3876Y570D03*
Y870D03*
X3968Y2052D03*
X4177Y3804D03*
X4187Y2878D03*
X4519Y3804D03*
X5005Y1617D03*
D02*
D109*
X252Y3007D03*
Y3207D03*
X1237Y300D03*
X1437D03*
X1637D03*
X1837D03*
X2037D03*
X2237D03*
X5500Y1052D03*
Y1252D03*
Y1808D03*
Y2008D03*
Y2208D03*
Y2772D03*
Y2972D03*
X5502Y296D03*
Y496D03*
Y3520D03*
Y3720D03*
D02*
D110*
X2237Y431D03*
X5369Y2008D03*
X5369Y2208D03*
D02*
D111*
X408Y1519D03*
X483D03*
X529Y3050D03*
X604D03*
X1212Y3497D03*
X1287D03*
X1313Y1520D03*
X1388D03*
X3115Y2106D03*
Y2237D03*
X3190Y2106D03*
Y2237D03*
X3322Y1708D03*
X3397D03*
X5065Y2972D03*
X5067Y3415D03*
X5140Y2972D03*
X5142Y3415D03*
X5196Y496D03*
X5271D03*
D02*
D112*
X2435Y1748D03*
Y1848D03*
Y1948D03*
X2436Y3146D03*
Y3246D03*
Y3346D03*
X3315Y1532D03*
X3415D03*
X3515D03*
X4671Y926D03*
Y1026D03*
Y1126D03*
D02*
D113*
X2285Y1346D03*
Y2350D03*
X2286Y2744D03*
Y3748D03*
X2913Y1383D03*
X3917D03*
X4522Y524D03*
Y1528D03*
D02*
D114*
X2699Y3269D03*
Y3344D03*
X2700Y1869D03*
Y1944D03*
X3181Y3188D03*
Y3263D03*
Y3392D03*
Y3467D03*
X3738Y690D03*
Y765D03*
X4242Y3563D03*
Y3638D03*
X4276Y3025D03*
Y3100D03*
X4671Y3480D03*
Y3555D03*
X4699Y2975D03*
Y3050D03*
X4886Y1049D03*
Y1124D03*
D02*
D115*
X2822Y1870D03*
Y1948D03*
X2824Y3266D03*
Y3345D03*
X3320Y1878D03*
X3399D03*
X5004Y1051D03*
Y1129D03*
D02*
D116*
X3872Y2372D03*
Y2472D03*
X3972Y2372D03*
Y2472D03*
X4072Y2372D03*
Y2472D03*
X4172Y2372D03*
Y2472D03*
X4272Y2372D03*
Y2472D03*
X4372Y2372D03*
Y2472D03*
X4472Y2372D03*
Y2472D03*
X4572Y2372D03*
Y2472D03*
X4672Y2372D03*
Y2472D03*
X4772Y2372D03*
Y2472D03*
X4872Y2372D03*
Y2472D03*
X4972Y2372D03*
Y2472D03*
X5072Y2372D03*
Y2472D03*
D02*
D117*
X4365Y3491D03*
Y3541D03*
Y3591D03*
Y3641D03*
X4393Y2991D03*
Y3041D03*
Y3091D03*
Y3141D03*
X4559Y3491D03*
Y3541D03*
Y3591D03*
Y3641D03*
X4587Y2991D03*
Y3041D03*
Y3091D03*
Y3141D03*
D02*
D118*
X822Y3839D03*
D02*
D119*
X889Y3639D03*
X956Y3839D03*
X1023Y3639D03*
X1090Y3839D03*
X1157Y3639D03*
X1224Y3839D03*
X1291Y3639D03*
X1358Y3839D03*
X1425Y3639D03*
X1492Y3839D03*
D02*
D120*
X1088Y3190D03*
Y3367D03*
D02*
D121*
X689Y3050D03*
X1089D03*
D02*
D122*
X4713Y2159D03*
Y2234D03*
X4899Y2159D03*
Y2234D03*
D02*
D123*
X4646Y2196D03*
X4832D03*
D02*
D124*
X2947Y2105D03*
X3002D03*
D02*
D125*
X3344Y2133D03*
Y2213D03*
X3431Y2173D03*
D02*
D126*
X3252Y3263D03*
X3711Y2173D03*
X3753Y3686D03*
X3846Y2227D03*
X3945Y3329D03*
X4179Y3098D03*
X4187Y3366D03*
X4753Y2673D03*
X4985Y2829D03*
X0Y0D02*
M02*
