%FSLAX23Y23*%
%MOIN*%
G04 EasyPC Gerber Version 17.0 Build 3379 *
%ADD142R,0.01600X0.04200*%
%ADD145R,0.01800X0.05900*%
%ADD143R,0.01800X0.07400*%
%ADD144R,0.03600X0.04400*%
%ADD97R,0.04700X0.05600*%
%ADD104R,0.04400X0.03600*%
%ADD98R,0.05600X0.04700*%
%ADD100R,0.08655X0.06687*%
X0Y0D02*
D02*
D97*
X883Y3408D03*
X958D03*
X1211Y3498D03*
X1286D03*
X3703Y3563D03*
X3778D03*
X3896Y3117D03*
X3971D03*
X4184Y3212D03*
X4259D03*
X4377D03*
X4452D03*
X4501Y2754D03*
X4576D03*
X4584Y2892D03*
X4659D03*
X4667Y2754D03*
X4706Y3448D03*
X4742Y2754D03*
X4756Y1887D03*
X4781Y3448D03*
X4826Y2649D03*
X4831Y1887D03*
X4901Y2649D03*
X4927Y1887D03*
X5002D03*
X5033Y2248D03*
X5108D03*
D02*
D98*
X3748Y3312D03*
Y3387D03*
X3775Y2643D03*
Y2718D03*
X3895Y2941D03*
Y3016D03*
X3964Y3562D03*
Y3637D03*
X4070Y3562D03*
Y3637D03*
X4076Y3375D03*
Y3450D03*
X4087Y3103D03*
Y3178D03*
X4277Y3037D03*
Y3112D03*
X4599Y3373D03*
Y3447D03*
X4873Y2051D03*
Y2126D03*
X4881Y3370D03*
Y3445D03*
X4994Y3198D03*
Y3273D03*
Y3368D03*
Y3443D03*
X5167Y2072D03*
Y2147D03*
D02*
D100*
X1088Y2728D03*
Y2905D03*
D02*
D104*
X4701Y3271D03*
Y3351D03*
X4788Y3311D03*
X4827Y2742D03*
Y2822D03*
X4914Y2782D03*
D02*
D142*
X4992Y2068D03*
Y2152D03*
X5029Y2068D03*
Y2152D03*
X5066Y2068D03*
Y2152D03*
D02*
D143*
X3895Y2643D03*
Y2829D03*
X3945Y2643D03*
Y2829D03*
X3995Y2643D03*
Y2829D03*
X4045Y2643D03*
Y2829D03*
D02*
D144*
X4375Y3117D03*
X4415Y3030D03*
X4416Y3393D03*
X4455Y3117D03*
X4456Y3306D03*
X4496Y3393D03*
X4540Y3114D03*
X4580Y3027D03*
X4620Y3114D03*
X4706D03*
X4746Y3027D03*
X4786Y3114D03*
X5052Y2830D03*
X5092Y2743D03*
X5132Y2830D03*
D02*
D145*
X3845Y3247D03*
Y3456D03*
X3895Y3247D03*
Y3456D03*
X3945Y3247D03*
Y3456D03*
X3995Y3247D03*
Y3456D03*
X0Y0D02*
M02*
