%FSLAX23Y23*%
%MOIN*%
G04 EasyPC Gerber Version 17.0 Build 3379 *
%ADD132R,0.02787X0.05387*%
%ADD135R,0.02987X0.07087*%
%ADD133R,0.02987X0.08587*%
%ADD134R,0.04787X0.05587*%
%ADD111R,0.05887X0.06787*%
%ADD115R,0.07874X0.07874*%
%ADD117R,0.08268X0.08268*%
%ADD109R,0.11811X0.11811*%
%ADD105C,0.05512*%
%ADD126C,0.06693*%
%ADD114C,0.07480*%
%ADD118C,0.08268*%
%ADD110C,0.08661*%
%ADD120C,0.09055*%
%ADD107C,0.09449*%
%ADD112C,0.09449*%
%ADD108C,0.12598*%
%ADD131C,0.20472*%
%ADD106C,0.27559*%
%ADD125R,0.05587X0.04787*%
%ADD113R,0.06787X0.05887*%
%ADD119R,0.09843X0.07874*%
X0Y0D02*
D02*
D105*
X3267Y2237D03*
X3776Y2561D03*
X3982Y2737D03*
X4155Y3563D03*
X4318Y2950D03*
X4628Y3208D03*
X4759Y2095D03*
Y3803D03*
X4769Y2892D03*
X4801Y2043D03*
X4852Y2975D03*
X4874Y1976D03*
X4897Y3025D03*
X4939Y2067D03*
X4988Y3023D03*
X5045Y579D03*
D02*
D106*
X278Y311D03*
Y3696D03*
X3546Y2397D03*
X5003Y311D03*
Y3696D03*
D02*
D107*
X3748Y3469D03*
X4076Y3283D03*
D02*
D108*
X153Y714D03*
X300Y1378D03*
X448Y714D03*
X600Y1378D03*
X744Y714D03*
X1039D03*
X1197Y1381D03*
X1295Y714D03*
X1497Y1381D03*
X1590Y714D03*
X1868Y3803D03*
X1885Y714D03*
X2181D03*
X2437D03*
X2732D03*
X2824Y3803D03*
X2946Y2691D03*
X3027Y714D03*
X3322D03*
X3371Y3807D03*
X3620Y2830D03*
X3834Y3806D03*
X3876Y570D03*
Y870D03*
X3968Y2052D03*
X4177Y3804D03*
X4187Y2878D03*
X4519Y3804D03*
X5005Y1617D03*
D02*
D109*
X252Y3007D03*
Y3207D03*
X1237Y300D03*
X1437D03*
X1637D03*
X1837D03*
X2037D03*
X2237D03*
X5500Y1052D03*
Y1252D03*
Y1808D03*
Y2008D03*
Y2208D03*
Y2772D03*
Y2972D03*
X5502Y296D03*
Y496D03*
Y3520D03*
Y3720D03*
D02*
D110*
X2237Y431D03*
X5369Y2008D03*
X5369Y2208D03*
D02*
D111*
X883Y3408D03*
X958D03*
X1211Y3498D03*
X1286D03*
X3703Y3563D03*
X3778D03*
X3896Y3117D03*
X3971D03*
X4184Y3212D03*
X4259D03*
X4377D03*
X4452D03*
X4501Y2754D03*
X4576D03*
X4584Y2892D03*
X4659D03*
X4667Y2754D03*
X4706Y3448D03*
X4742Y2754D03*
X4756Y1887D03*
X4781Y3448D03*
X4826Y2649D03*
X4831Y1887D03*
X4901Y2649D03*
X4927Y1887D03*
X5002D03*
X5033Y2248D03*
X5108D03*
D02*
D112*
X2435Y1748D03*
Y1848D03*
Y1948D03*
X2436Y3146D03*
Y3246D03*
Y3346D03*
X3315Y1532D03*
X3415D03*
X3515D03*
X4671Y926D03*
Y1026D03*
Y1126D03*
D02*
D113*
X3748Y3312D03*
Y3387D03*
X3775Y2643D03*
Y2718D03*
X3895Y2941D03*
Y3016D03*
X3964Y3562D03*
Y3637D03*
X4070Y3562D03*
Y3637D03*
X4076Y3375D03*
Y3450D03*
X4087Y3103D03*
Y3178D03*
X4277Y3037D03*
Y3112D03*
X4599Y3373D03*
Y3447D03*
X4873Y2051D03*
Y2126D03*
X4881Y3370D03*
Y3445D03*
X4994Y3198D03*
Y3273D03*
Y3368D03*
Y3443D03*
X5167Y2072D03*
Y2147D03*
D02*
D114*
X2822Y1870D03*
Y1948D03*
X2824Y3266D03*
Y3345D03*
X3320Y1878D03*
X3399D03*
X5004Y1051D03*
Y1129D03*
D02*
D115*
X3872Y2372D03*
Y2472D03*
X3972Y2372D03*
Y2472D03*
X4072Y2372D03*
Y2472D03*
X4172Y2372D03*
Y2472D03*
X4272Y2372D03*
Y2472D03*
X4372Y2372D03*
Y2472D03*
X4472Y2372D03*
Y2472D03*
X4572Y2372D03*
Y2472D03*
X4672Y2372D03*
Y2472D03*
X4772Y2372D03*
Y2472D03*
X4872Y2372D03*
Y2472D03*
X4972Y2372D03*
Y2472D03*
X5072Y2372D03*
Y2472D03*
D02*
D117*
X822Y3839D03*
D02*
D118*
X889Y3639D03*
X956Y3839D03*
X1023Y3639D03*
X1090Y3839D03*
X1157Y3639D03*
X1224Y3839D03*
X1291Y3639D03*
X1358Y3839D03*
X1425Y3639D03*
X1492Y3839D03*
D02*
D119*
X1088Y2728D03*
Y2905D03*
D02*
D120*
X689Y3050D03*
X1089D03*
D02*
D125*
X4701Y3271D03*
Y3351D03*
X4788Y3311D03*
X4827Y2742D03*
Y2822D03*
X4914Y2782D03*
D02*
D126*
X3252Y3263D03*
X3711Y2173D03*
X3753Y3686D03*
X3846Y2227D03*
X3945Y3329D03*
X4179Y3098D03*
X4187Y3366D03*
X4753Y2673D03*
X4985Y2829D03*
D02*
D131*
X2285Y1346D03*
Y2350D03*
X2286Y2744D03*
Y3748D03*
X2913Y1383D03*
X3917D03*
X4522Y524D03*
Y1528D03*
D02*
D132*
X4992Y2068D03*
Y2152D03*
X5029Y2068D03*
Y2152D03*
X5066Y2068D03*
Y2152D03*
D02*
D133*
X3895Y2643D03*
Y2829D03*
X3945Y2643D03*
Y2829D03*
X3995Y2643D03*
Y2829D03*
X4045Y2643D03*
Y2829D03*
D02*
D134*
X4375Y3117D03*
X4415Y3030D03*
X4416Y3393D03*
X4455Y3117D03*
X4456Y3306D03*
X4496Y3393D03*
X4540Y3114D03*
X4580Y3027D03*
X4620Y3114D03*
X4706D03*
X4746Y3027D03*
X4786Y3114D03*
X5052Y2830D03*
X5092Y2743D03*
X5132Y2830D03*
D02*
D135*
X3845Y3247D03*
Y3456D03*
X3895Y3247D03*
Y3456D03*
X3945Y3247D03*
Y3456D03*
X3995Y3247D03*
Y3456D03*
X0Y0D02*
M02*
