%FSLAX23Y23*%
%MOIN*%
G04 EasyPC Gerber Version 17.0 Build 3379 *
%ADD71R,0.09087X0.09087*%
%ADD21R,0.09480X0.09480*%
%ADD15R,0.13024X0.13024*%
%ADD10C,0.02500*%
%ADD11C,0.06724*%
%ADD24C,0.07906*%
%ADD19C,0.08693*%
%ADD22C,0.09480*%
%ADD16C,0.09874*%
%ADD23C,0.10268*%
%ADD13C,0.10661*%
%ADD17C,0.10661*%
%ADD14C,0.13811*%
%ADD18C,0.21685*%
%ADD12C,0.28772*%
%AMT70*0 Thermal pad*4,1,6,0.03543,0.00500,0.03543,0.03543,0.00500,0.03543,0.00500,0.04543,0.04543,0.04543,0.04543,0.00500,0.03543,0.00500,0*4,1,6,-0.00500,0.03543,-0.03543,0.03543,-0.03543,0.00500,-0.04543,0.00500,-0.04543,0.04543,-0.00500,0.04543,-0.00500,0.03543,0*4,1,6,-0.03543,-0.00500,-0.03543,-0.03543,-0.00500,-0.03543,-0.00500,-0.04543,-0.04543,-0.04543,-0.04543,-0.00500,-0.03543,-0.00500,0*4,1,6,0.00500,-0.03543,0.03543,-0.03543,0.03543,-0.00500,0.04543,-0.00500,0.04543,-0.04543,0.00500,-0.04543,0.00500,-0.03543,0*%
%ADD70T70*%
%AMT20*0 Thermal pad*4,1,6,0.05512,0.00500,0.05512,0.05512,0.00500,0.05512,0.00500,0.06512,0.06512,0.06512,0.06512,0.00500,0.05512,0.00500,0*4,1,6,-0.00500,0.05512,-0.05512,0.05512,-0.05512,0.00500,-0.06512,0.00500,-0.06512,0.06512,-0.00500,0.06512,-0.00500,0.05512,0*4,1,6,-0.05512,-0.00500,-0.05512,-0.05512,-0.00500,-0.05512,-0.00500,-0.06512,-0.06512,-0.06512,-0.06512,-0.00500,-0.05512,-0.00500,0*4,1,6,0.00500,-0.05512,0.05512,-0.05512,0.05512,-0.00500,0.06512,-0.00500,0.06512,-0.06512,0.00500,-0.06512,0.00500,-0.05512,0*%
%ADD20T20*%
%AMT25*0 Thermal pad*7,0,0,0.06724,0.04724,0.01000,0*%
%ADD25T25*%
X0Y0D02*
D02*
D10*
X3Y35D02*
X5750D01*
Y3970*
X3*
Y35*
X3625D02*
X3465D01*
Y747*
X3356Y855*
X3*
Y1015*
X3433*
X3625Y823*
Y35*
G36*
X3465*
Y747*
X3356Y855*
X3*
Y1015*
X3433*
X3625Y823*
Y35*
G37*
D02*
D11*
X3982Y2737D03*
X4155Y3563D03*
X4628Y3208D03*
X4759Y2095D03*
Y3803D03*
X4769Y2892D03*
X4801Y2043D03*
X4852Y2975D03*
X4897Y3025D03*
X4939Y2067D03*
X4958Y2007D03*
X4988Y3023D03*
D02*
D12*
X278Y311D03*
Y3696D03*
X3546Y2397D03*
X5003Y311D03*
Y3696D03*
D02*
D13*
X3748Y3469D03*
X4076Y3283D03*
D02*
D14*
X153Y714D03*
X300Y1378D03*
X448Y714D03*
X600Y1378D03*
X744Y714D03*
X1039D03*
X1197Y1381D03*
X1295Y714D03*
X1497Y1381D03*
X1590Y714D03*
X1868Y3803D03*
X1885Y714D03*
X2181D03*
X2437D03*
X2732D03*
X2824Y3803D03*
X2946Y2691D03*
X3027Y714D03*
X3322D03*
X3371Y3807D03*
X3620Y2830D03*
X3834Y3806D03*
X3876Y570D03*
Y870D03*
X3968Y2052D03*
X4177Y3804D03*
X4187Y2878D03*
X4519Y3804D03*
X5005Y1617D03*
D02*
D15*
X252Y3007D03*
Y3207D03*
X1237Y300D03*
X1437D03*
X1637D03*
X1837D03*
X2037D03*
X2237D03*
X5500Y1052D03*
Y1252D03*
Y2008D03*
Y2208D03*
Y2772D03*
Y2972D03*
X5502Y296D03*
Y496D03*
Y3520D03*
Y3720D03*
D02*
D16*
X2237Y431D03*
X5369Y2008D03*
X5369Y2208D03*
D02*
D17*
X2435Y1748D03*
Y1848D03*
Y1948D03*
X2436Y3146D03*
Y3246D03*
Y3346D03*
X3315Y1532D03*
X3415D03*
X3515D03*
X4671Y926D03*
Y1026D03*
Y1126D03*
D02*
D18*
X2285Y1346D03*
Y2350D03*
X2286Y2744D03*
Y3748D03*
X2913Y1383D03*
X3917D03*
X4522Y524D03*
Y1528D03*
D02*
D19*
X2822Y1870D03*
Y1948D03*
X2824Y3266D03*
Y3345D03*
X3320Y1878D03*
X3399D03*
X5004Y1051D03*
Y1129D03*
D02*
D70*
X4272Y2472D03*
X5072D03*
D02*
D71*
X3872Y2372D03*
Y2472D03*
X3972Y2372D03*
Y2472D03*
X4072Y2372D03*
Y2472D03*
X4172Y2372D03*
Y2472D03*
X4272Y2372D03*
X4372D03*
Y2472D03*
X4472Y2372D03*
Y2472D03*
X4572Y2372D03*
Y2472D03*
X4672Y2372D03*
Y2472D03*
X4772Y2372D03*
Y2472D03*
X4872Y2372D03*
Y2472D03*
X4972Y2372D03*
Y2472D03*
X5072Y2372D03*
D02*
D20*
X5500Y1808D03*
D02*
D21*
X822Y3839D03*
D02*
D22*
X889Y3639D03*
X956Y3839D03*
X1023Y3639D03*
X1090Y3839D03*
X1157Y3639D03*
X1224Y3839D03*
X1291Y3639D03*
X1358Y3839D03*
X1425Y3639D03*
X1492Y3839D03*
D02*
D23*
X689Y3050D03*
X1089D03*
D02*
D24*
X3252Y3263D03*
X3711Y2173D03*
X3753Y3686D03*
X3846Y2227D03*
X3945Y3329D03*
X4179Y3098D03*
X4187Y3366D03*
X4753Y2673D03*
X4985Y2829D03*
D02*
D25*
X3267Y2237D03*
X3776Y2561D03*
X4318Y2950D03*
X4874Y1976D03*
X5045Y579D03*
X0Y0D02*
M02*
