%FSLAX23Y23*%
%MOIN*%
G04 EasyPC Gerber Version 17.0 Build 3379 *
%ADD97R,0.04700X0.05600*%
%ADD103R,0.01400X0.00900*%
%ADD101R,0.03600X0.01600*%
%ADD102R,0.04371X0.01600*%
%ADD99R,0.07400X0.01800*%
%ADD104R,0.04400X0.03600*%
%ADD98R,0.05600X0.04700*%
%ADD100R,0.08655X0.06687*%
X0Y0D02*
D02*
D97*
X408Y1519D03*
X483D03*
X529Y3050D03*
X604D03*
X1212Y3497D03*
X1287D03*
X1313Y1520D03*
X1388D03*
X3115Y2106D03*
Y2237D03*
X3190Y2106D03*
Y2237D03*
X3322Y1708D03*
X3397D03*
X5065Y2972D03*
X5067Y3415D03*
X5140Y2972D03*
X5142Y3415D03*
X5196Y496D03*
X5271D03*
D02*
D98*
X2699Y3269D03*
Y3344D03*
X2700Y1869D03*
Y1944D03*
X3181Y3188D03*
Y3263D03*
Y3392D03*
Y3467D03*
X3738Y690D03*
Y765D03*
X4242Y3563D03*
Y3638D03*
X4276Y3025D03*
Y3100D03*
X4671Y3480D03*
Y3555D03*
X4699Y2975D03*
Y3050D03*
X4886Y1049D03*
Y1124D03*
D02*
D99*
X4365Y3491D03*
Y3541D03*
Y3591D03*
Y3641D03*
X4393Y2991D03*
Y3041D03*
Y3091D03*
Y3141D03*
X4559Y3491D03*
Y3541D03*
Y3591D03*
Y3641D03*
X4587Y2991D03*
Y3041D03*
Y3091D03*
Y3141D03*
D02*
D100*
X1088Y3190D03*
Y3367D03*
D02*
D101*
X4713Y2159D03*
Y2234D03*
X4899Y2159D03*
Y2234D03*
D02*
D102*
X4646Y2196D03*
X4832D03*
D02*
D103*
X2947Y2105D03*
X3002D03*
D02*
D104*
X3344Y2133D03*
Y2213D03*
X3431Y2173D03*
X0Y0D02*
M02*
