%FSLAX33Y33*%
%MOMM*%
G04 EasyPC Gerber Version 17.0 Build 3379 *
%ADD110R,1.19380X1.42240*%
%ADD146R,0.35560X0.22860*%
%ADD144R,0.91440X0.40640*%
%ADD145R,1.11030X0.40640*%
%ADD143R,1.87960X0.45720*%
%ADD111R,0.59840X0.49840*%
%ADD107R,1.42240X1.19380*%
%ADD113R,2.19840X1.69840*%
X0Y0D02*
D02*
D107*
X68564Y83037D03*
Y84942D03*
X68589Y47462D03*
Y49367D03*
X80789Y80987D03*
Y82892D03*
Y86162D03*
Y88067D03*
X94974Y20037D03*
Y21942D03*
X107739Y90493D03*
Y92398D03*
X108614Y76837D03*
Y78742D03*
X118639Y88399D03*
Y90304D03*
X119364Y75562D03*
Y77467D03*
X124093Y26637D03*
Y28541D03*
D02*
D110*
X10361Y38589D03*
X12266D03*
X12641Y77419D03*
X14546D03*
X30786Y88814D03*
X32691D03*
X33361Y38614D03*
X35266D03*
X75916Y53524D03*
Y56849D03*
X77821Y53524D03*
Y56849D03*
X86191Y43479D03*
X88096D03*
X128659Y75489D03*
X128711Y86739D03*
X130564Y75489D03*
X130616Y86739D03*
X131986Y12589D03*
X133891D03*
D02*
D111*
X81844Y54274D03*
Y56174D03*
X83844Y55224D03*
D02*
D113*
X27594Y80059D03*
Y84559D03*
D02*
D143*
X110875Y88684D03*
Y89954D03*
Y91224D03*
Y92494D03*
X111575Y75984D03*
Y77254D03*
Y78524D03*
Y79794D03*
X115802Y88684D03*
Y89954D03*
Y91224D03*
Y92494D03*
X116502Y75984D03*
Y77254D03*
Y78524D03*
Y79794D03*
D02*
D144*
X119708Y54837D03*
Y56742D03*
X124433Y54837D03*
Y56742D03*
D02*
D145*
X118017Y55789D03*
X122742D03*
D02*
D146*
X71670Y53499D03*
X73067D03*
X0Y0D02*
M02*
