%FSLAX23Y23*%
%MOIN*%
G04 EasyPC Gerber Version 17.0 Build 3379 *
%ADD83R,0.05100X0.06000*%
%ADD78R,0.07087X0.07087*%
%ADD79R,0.07480X0.07480*%
%ADD73R,0.11024X0.11024*%
%ADD26C,0.00500*%
%ADD95C,0.00800*%
%ADD94C,0.01000*%
%ADD96C,0.01575*%
%ADD91C,0.03150*%
%ADD92C,0.03543*%
%ADD93C,0.04331*%
%ADD27C,0.04724*%
%ADD82C,0.05906*%
%ADD77C,0.06693*%
%ADD80C,0.07480*%
%ADD74C,0.07874*%
%ADD81C,0.08268*%
%ADD29C,0.08661*%
%ADD75C,0.08661*%
%ADD72C,0.11811*%
%ADD76C,0.19685*%
%ADD28C,0.26772*%
%ADD89R,0.01800X0.01300*%
%ADD87R,0.04000X0.02000*%
%ADD88R,0.04771X0.02000*%
%ADD85R,0.07800X0.02200*%
%ADD90R,0.04800X0.04000*%
%ADD84R,0.06000X0.05100*%
%ADD86R,0.09055X0.07087*%
X0Y0D02*
D02*
D26*
X60Y3066D02*
Y2696D01*
X690Y2066*
Y1450*
X729Y1412*
X1064*
X1104Y1452*
Y2251*
X393Y2961*
Y3072*
X358Y3108*
X101*
X60Y3066*
G36*
Y2696*
X690Y2066*
Y1450*
X729Y1412*
X1064*
X1104Y1452*
Y2251*
X393Y2961*
Y3072*
X358Y3108*
X101*
X60Y3066*
G37*
X548Y1454D02*
X495Y1401D01*
Y1177*
X557Y1115*
Y1075*
X903Y729*
Y672*
X977Y598*
X1378*
X1450Y671*
Y1185*
X1349Y1286*
Y1373*
X1267Y1454*
X548*
G36*
X495Y1401*
Y1177*
X557Y1115*
Y1075*
X903Y729*
Y672*
X977Y598*
X1378*
X1450Y671*
Y1185*
X1349Y1286*
Y1373*
X1267Y1454*
X548*
G37*
X1069Y3636D02*
Y3547D01*
X1046Y3526*
Y3349*
X1061Y3334*
X1256*
X1445Y3145*
Y1325*
X1690Y1080*
X1962*
X2065Y977*
Y662*
X2132Y595*
X2239*
X2306Y662*
Y1050*
X1883Y1472*
Y3027*
X1379Y3531*
Y3627*
G75*
G02Y3652I45J13*
G01*
Y3774*
X1333*
G75*
G02X1323Y3779J15*
G01*
X1296Y3805*
G75*
G02X1292Y3816I10J10*
G01*
Y3864*
X1270Y3886*
X1070*
X1049Y3880*
Y3728*
X1069Y3699*
Y3643*
G75*
G02Y3636I-47J-4*
G01*
X1131Y3600D02*
G75*
G02X1110Y3639I25J40D01*
G01*
G75*
G02X1204I47*
G01*
G75*
G02X1182Y3600I-47*
G01*
Y3562*
X1208Y3536*
X1247*
Y3457*
X1177*
Y3496*
X1139Y3534*
G75*
G02X1131Y3552I18J18*
G01*
Y3600*
X1265Y3536D02*
Y3600D01*
G75*
G02X1244Y3639I25J40*
G01*
G75*
G02X1338I47*
G01*
G75*
G02X1316Y3600I-47*
G01*
Y3536*
X1322*
Y3457*
X1252*
Y3536*
X1265*
X1069Y3572D02*
G36*
Y3547D01*
X1046Y3526*
Y3349*
X1061Y3334*
X1256*
X1445Y3145*
Y1325*
X1690Y1080*
X1962*
X2065Y977*
Y662*
X2132Y595*
X2239*
X2306Y662*
Y1050*
X1883Y1472*
Y3027*
X1379Y3531*
Y3572*
X1316*
Y3536*
X1322*
Y3457*
X1252*
Y3536*
X1265*
Y3572*
X1182*
Y3562*
X1208Y3536*
X1247*
Y3457*
X1177*
Y3496*
X1139Y3534*
G75*
G02X1131Y3552I18J18*
G01*
Y3572*
X1069*
G37*
X1131D02*
G36*
Y3600D01*
G75*
G02X1110Y3639I25J40*
G01*
G75*
G02X1204I47*
G01*
G75*
G02X1182Y3600I-47*
G01*
Y3572*
X1265*
Y3600*
G75*
G02X1244Y3639I25J40*
G01*
G75*
G02X1338I47*
G01*
G75*
G02X1316Y3600I-47*
G01*
Y3572*
X1379*
Y3627*
G75*
G02Y3652I45J13*
G01*
Y3774*
X1333*
G75*
G02X1323Y3779J15*
G01*
X1296Y3805*
G75*
G02X1292Y3816I10J10*
G01*
Y3864*
X1270Y3886*
X1070*
X1049Y3880*
Y3728*
X1069Y3699*
Y3643*
G75*
G02Y3636I-47J-4*
G01*
Y3572*
X1131*
G37*
X3176Y600D02*
X3647D01*
X3754Y493*
X4085*
X4449Y857*
X4710*
X4753Y899*
Y934*
X4713Y973*
X4295*
X4035Y713*
X3678*
X3619Y772*
Y1584*
X3599Y1604*
X3489*
X3468Y1583*
Y1073*
X3217Y822*
X3175*
X3176Y600*
G36*
X3647*
X3754Y493*
X4085*
X4449Y857*
X4710*
X4753Y899*
Y934*
X4713Y973*
X4295*
X4035Y713*
X3678*
X3619Y772*
Y1584*
X3599Y1604*
X3489*
X3468Y1583*
Y1073*
X3217Y822*
X3175*
X3176Y600*
G37*
X3357Y1870D02*
G75*
G02Y1885I42J7D01*
G01*
Y1905*
X3390Y1939*
X3440*
X3529Y1850*
X5129*
X5240Y1960*
Y2349*
X5183Y2406*
X4938*
X4939Y2405*
Y2337*
X4940Y2335*
X5130*
X5140Y2325*
Y2048*
X5039Y1946*
X4889*
G75*
G02X4859I-15J30*
G01*
X3586*
X3502Y2031*
X3345*
X3241Y1927*
Y1471*
X3268Y1443*
X3338*
X3366Y1471*
Y1513*
G75*
G02Y1551I49J19*
G01*
Y1571*
X3345Y1592*
Y1758*
X3357Y1770*
Y1870*
G36*
G75*
G02Y1885I42J7*
G01*
Y1905*
X3390Y1939*
X3440*
X3529Y1850*
X5129*
X5240Y1960*
Y2349*
X5183Y2406*
X4938*
X4939Y2405*
Y2337*
X4940Y2335*
X5130*
X5140Y2325*
Y2048*
X5039Y1946*
X4889*
G75*
G02X4859I-15J30*
G01*
X3586*
X3502Y2031*
X3345*
X3241Y1927*
Y1471*
X3268Y1443*
X3338*
X3366Y1471*
Y1513*
G75*
G02Y1551I49J19*
G01*
Y1571*
X3345Y1592*
Y1758*
X3357Y1770*
Y1870*
G37*
D02*
D27*
X3267Y2237D03*
X3776Y2561D03*
X3982Y2737D03*
X4155Y3563D03*
X4318Y2950D03*
X4628Y3208D03*
X4759Y2095D03*
Y3803D03*
X4769Y2892D03*
X4801Y2043D03*
X4852Y2975D03*
X4874Y1976D03*
X4897Y3025D03*
X4939Y2067D03*
X4988Y3023D03*
X5045Y579D03*
D02*
D28*
X278Y311D03*
Y3696D03*
X3546Y2397D03*
X5003Y311D03*
Y3696D03*
D02*
D29*
X3748Y3469D03*
X4076Y3283D03*
D02*
D72*
X153Y714D03*
X300Y1378D03*
X448Y714D03*
X600Y1378D03*
X744Y714D03*
X1039D03*
X1197Y1381D03*
X1295Y714D03*
X1497Y1381D03*
X1590Y714D03*
X1868Y3803D03*
X1885Y714D03*
X2181D03*
X2437D03*
X2732D03*
X2824Y3803D03*
X2946Y2691D03*
X3027Y714D03*
X3322D03*
X3371Y3807D03*
X3620Y2830D03*
X3834Y3806D03*
X3876Y570D03*
Y870D03*
X3968Y2052D03*
X4177Y3804D03*
X4187Y2878D03*
X4519Y3804D03*
X5005Y1617D03*
D02*
D73*
X252Y3007D03*
Y3207D03*
X1237Y300D03*
X1437D03*
X1637D03*
X1837D03*
X2037D03*
X2237D03*
X5500Y1052D03*
Y1252D03*
Y1808D03*
Y2008D03*
Y2208D03*
Y2772D03*
Y2972D03*
X5502Y296D03*
Y496D03*
Y3520D03*
Y3720D03*
D02*
D74*
X2237Y431D03*
X5369Y2008D03*
X5369Y2208D03*
D02*
D75*
X2435Y1748D03*
Y1848D03*
Y1948D03*
X2436Y3146D03*
Y3246D03*
Y3346D03*
X3315Y1532D03*
X3415D03*
X3515D03*
X4671Y926D03*
Y1026D03*
Y1126D03*
D02*
D76*
X2285Y1346D03*
Y2350D03*
X2286Y2744D03*
Y3748D03*
X2913Y1383D03*
X3917D03*
X4522Y524D03*
Y1528D03*
D02*
D77*
X2822Y1870D03*
Y1948D03*
X2824Y3266D03*
Y3345D03*
X3320Y1878D03*
X3399D03*
X5004Y1051D03*
Y1129D03*
D02*
D78*
X3872Y2372D03*
Y2472D03*
X3972Y2372D03*
Y2472D03*
X4072Y2372D03*
Y2472D03*
X4172Y2372D03*
Y2472D03*
X4272Y2372D03*
Y2472D03*
X4372Y2372D03*
Y2472D03*
X4472Y2372D03*
Y2472D03*
X4572Y2372D03*
Y2472D03*
X4672Y2372D03*
Y2472D03*
X4772Y2372D03*
Y2472D03*
X4872Y2372D03*
Y2472D03*
X4972Y2372D03*
Y2472D03*
X5072Y2372D03*
Y2472D03*
D02*
D79*
X822Y3839D03*
D02*
D80*
X889Y3639D03*
X956Y3839D03*
X1023Y3639D03*
X1090Y3839D03*
X1157Y3639D03*
X1224Y3839D03*
X1291Y3639D03*
X1358Y3839D03*
X1425Y3639D03*
X1492Y3839D03*
D02*
D81*
X689Y3050D03*
X1089D03*
D02*
D82*
X153Y714D02*
Y1231D01*
X300Y1378*
X600D02*
Y1154D01*
X1039Y714*
X1197Y1381D02*
X1295Y1284D01*
Y714*
X1039*
X1497Y1381D02*
Y1840D01*
Y3138*
X1356Y3279*
X1268Y3367*
X1088*
X2181Y714D02*
Y833D01*
X2139Y875*
Y1052*
X1810Y1381*
X1497*
X3252Y3263D03*
X3711Y2173D03*
X3753Y3686D03*
X3846Y2227D03*
X3945Y3329D03*
X4179Y3098D03*
X4187Y3366D03*
X4753Y2673D03*
X4985Y2829D03*
D02*
D83*
X408Y1519D03*
X483D03*
X529Y3050D03*
X604D03*
X1212Y3497D03*
X1287D03*
X1313Y1520D03*
X1388D03*
X3115Y2106D03*
Y2237D03*
X3190Y2106D03*
Y2237D03*
X3322Y1708D03*
X3397D03*
X5065Y2972D03*
X5067Y3415D03*
X5140Y2972D03*
X5142Y3415D03*
X5196Y496D03*
X5271D03*
D02*
D84*
X2699Y3269D03*
Y3344D03*
X2700Y1869D03*
Y1944D03*
X3181Y3188D03*
Y3263D03*
Y3392D03*
Y3467D03*
X3738Y690D03*
Y765D03*
X4242Y3563D03*
Y3638D03*
X4276Y3025D03*
Y3100D03*
X4671Y3480D03*
Y3555D03*
X4699Y2975D03*
Y3050D03*
X4886Y1049D03*
Y1124D03*
D02*
D85*
X4365Y3491D03*
Y3541D03*
Y3591D03*
Y3641D03*
X4393Y2991D03*
Y3041D03*
Y3091D03*
Y3141D03*
X4559Y3491D03*
Y3541D03*
Y3591D03*
Y3641D03*
X4587Y2991D03*
Y3041D03*
Y3091D03*
Y3141D03*
D02*
D86*
X1088Y3190D03*
Y3367D03*
D02*
D87*
X4713Y2159D03*
Y2234D03*
X4899Y2159D03*
Y2234D03*
D02*
D88*
X4646Y2196D03*
X4832D03*
D02*
D89*
X2947Y2105D03*
X3002D03*
D02*
D90*
X3344Y2133D03*
Y2213D03*
X3431Y2173D03*
D02*
D91*
X1088Y3367D02*
Y3838D01*
X1090Y3839*
X1224*
X1212Y3497D02*
X1157Y3552D01*
Y3639*
X1291D02*
Y3500D01*
X1287Y3497*
X2436Y3246D02*
X2546D01*
X2569Y3269*
X2699*
Y3344D02*
X2823D01*
X2824Y3345*
X2822Y1870D02*
X2701D01*
X2700Y1869*
X2822Y1948D02*
X2705D01*
X2700Y1944*
X2824Y3266D02*
X3002D01*
X3080Y3188*
X3180*
X3181Y3188*
X2824Y3266D02*
X2702D01*
X2699Y3269*
X3181Y3392D02*
Y3263D01*
X3320Y1878D02*
Y1927D01*
X3387Y1994*
X3458*
X3536Y1916*
X3989*
X3320Y1878D02*
Y1849D01*
X3319Y1848*
X3322Y1845*
X3399Y1878D02*
Y1856D01*
X3397Y1854*
X3964Y1916D02*
X3968Y1920D01*
X4179Y3098D02*
X4274D01*
X4276Y3100*
X4245Y3641D02*
X4242Y3638D01*
X4285Y3091D02*
X4276Y3100D01*
X4671Y1026D02*
X4672Y1025D01*
X4771*
X4793Y1047*
X4884*
X4886Y1049*
X4671Y1126D02*
X4884Y1125D01*
X4886Y1124*
Y1049D02*
X5002D01*
X5004Y1051*
X4886Y1124D02*
X4998D01*
X5004Y1129*
X4972Y2372D02*
X5072D01*
X5004Y1051D02*
X5500D01*
X5500Y1052*
X5072Y2372D02*
Y2372D01*
X5139*
X5500Y1252D02*
X5126D01*
X5004Y1129*
D02*
D92*
X300Y1378D02*
Y1480D01*
X339Y1519*
X408*
X529Y3050D02*
Y3049D01*
X379*
X334Y3004*
X255*
X252Y3007*
X600Y1378D02*
Y1490D01*
X570Y1519*
X483*
X689Y3050D02*
X604D01*
X1089D02*
Y3189D01*
X1088Y3190*
X1197Y1381D02*
Y1489D01*
X1229Y1520*
X1313*
X1237Y300D02*
X863D01*
X448Y714*
X1437Y300D02*
Y447D01*
X1381Y503*
X956*
X744Y714*
X1497Y1381D02*
Y1477D01*
X1454Y1520*
X1388*
X1505Y1848D02*
X1497Y1840D01*
X1637Y300D02*
Y483D01*
X1590Y530*
Y714*
X1837Y300D02*
Y475D01*
X1887Y525*
Y712*
X1885Y714*
X2037Y300D02*
Y446D01*
X2092Y502*
X2519*
X2732Y714*
X2237Y300D02*
X2612D01*
X3027Y714*
X3738Y765D02*
X3846D01*
X3876Y795*
Y870*
D02*
D93*
X2435Y1748D02*
X2580D01*
X2700Y1869*
X2435Y1848D02*
X1505D01*
X2435Y1948D02*
X2696D01*
X2700Y1944*
X2436Y3346D02*
X2701D01*
X2699Y3344*
Y3433*
X2735Y3468*
X2823*
X2700Y1944D02*
Y2162D01*
X3089Y2551*
X2823Y3468D02*
X3180D01*
X3181Y3467*
X3089Y2551D02*
X3693Y3155D01*
X3948*
X4076Y3283*
X3315Y1532D02*
X3313Y1616D01*
X3322Y1625*
Y1708*
Y1845D02*
Y1708D01*
X3397Y1854D02*
Y1708D01*
X3415Y1532D02*
X3413Y1599D01*
X3397Y1615*
Y1708*
X3504Y714D02*
X3322D01*
X3515Y1532D02*
X3513Y723D01*
X3504Y714*
X3738Y690D02*
X3571D01*
X3547Y714*
X3504*
X3748Y3469D02*
X3183D01*
X3181Y3467*
X3876Y570D02*
Y661D01*
X3848Y689*
X3740*
X3738Y690*
X3989Y1916D02*
X3964D01*
X4671Y926D02*
X4435Y925D01*
X4080Y570*
X3876*
X5139Y2372D02*
X5176Y2335D01*
Y2010*
X5081Y1916*
X3989*
D02*
D94*
X956Y3839D02*
Y3839D01*
X956*
X1018Y3901*
X1275*
X1307Y3870*
Y3816*
X1333Y3789*
X1584*
X1596Y3801*
X1868*
Y3803*
X2822Y1948D02*
Y2014D01*
X2913Y2105*
X2947*
X2824Y3803D02*
Y3469D01*
X2823Y3468*
X2946Y2691D02*
X2949D01*
X3089Y2551*
X3002Y2105D02*
X3114D01*
X3115Y2106*
Y2237D02*
Y2106D01*
X3190D02*
X3240D01*
X3267Y2133*
X3344*
X3190Y2237D02*
X3264D01*
X3265Y2238*
X3290Y2213*
X3344*
X3252Y3263D02*
X3181D01*
X3711Y2173D02*
X3431D01*
X3945Y3329D02*
Y3493D01*
X3753Y3686*
X4155Y3563D02*
X4077D01*
X3834Y3806*
X4242Y3563D02*
X4155D01*
X4155Y3563*
X4276Y3025D02*
Y2967D01*
X4187Y2878*
X4365Y3541D02*
X4318D01*
X4297Y3563*
X4242*
X4242Y3563*
X4365Y3641D02*
X4465D01*
X4365D02*
Y3591D01*
Y3641D02*
X4245D01*
X4372Y2372D02*
X4423Y2422D01*
Y2528*
X4455Y2561*
X4495*
X4897Y2963*
Y3025*
X4393Y3041D02*
X4293D01*
X4276Y3025*
X4393Y3091D02*
X4285D01*
X4393Y3141D02*
Y3091D01*
X4465Y3641D02*
X4559D01*
Y3491D02*
X4487D01*
X4464Y3514*
Y3641*
X4465Y3641*
X4559Y3491D02*
X4660D01*
X4671Y3480*
X4559Y3541D02*
X4623D01*
X4635Y3554*
X4669*
X4671Y3555*
X4559Y3591D02*
X4619D01*
X4635Y3575*
X4661*
X4671Y3565*
Y3555*
X4572Y2472D02*
X4574D01*
X4624Y2423*
X4710*
X4723Y2410*
Y2321*
X4749Y2296*
X4807*
X4832Y2270*
Y2196*
X4582Y2216D02*
X4570Y2227D01*
X3846*
X4582Y2216D02*
X4572Y2225D01*
Y2372*
X4587Y2991D02*
X4683D01*
X4699Y2975*
X4587Y3041D02*
X4691D01*
X4699Y3050*
X4587Y3091D02*
Y3041D01*
Y3141D02*
Y3288D01*
X4671Y3372*
Y3480*
X4646Y2196D02*
X4601D01*
X4582Y2216*
X4699Y3050D02*
Y3070D01*
X5064*
X5065Y3070*
Y3051*
X4759Y3803D02*
X4660Y3902D01*
X1420*
X1358Y3839*
X4769Y2892D02*
X4852Y2975D01*
X4801Y2043D02*
Y2130D01*
X4832Y2162*
Y2196*
X4874Y1976D02*
X4756D01*
X4713Y2019*
Y2159*
X4874Y1976D02*
Y2067D01*
X4899Y2093*
Y2159*
X4939Y2067D02*
Y2293D01*
X4922Y2310*
Y2421*
X4972Y2472*
X4988Y3023D02*
X4522Y2558D01*
Y2298*
X4510Y2286*
X4103*
X4072Y2316*
Y2372*
X5065Y2972D02*
Y3018D01*
X5065Y3019*
X5065Y2479*
X5072Y2472*
X5065Y2972D02*
Y3051D01*
X5067Y3415D02*
X4890D01*
X4753Y3553*
X4673*
X4671Y3555*
X5067Y3415D02*
X5065Y3417D01*
Y3051*
X5140Y2972D02*
X5500D01*
X5196Y496D02*
X5128D01*
X5045Y579*
X5502Y496D02*
X5271D01*
X5502Y3720D02*
X5196Y3415D01*
X5142*
D02*
D95*
X3968Y1920D02*
Y2052D01*
D02*
D96*
X4498Y3141D02*
X4393D01*
X4587Y2991D02*
X4518D01*
X4498Y3012*
Y3141*
X4587D02*
X4498D01*
X0Y0D02*
M02*
