%FSLAX23Y23*%
%MOIN*%
G04 EasyPC Gerber Version 17.0 Build 3379 *
%ADD128C,0.00300*%
%ADD10C,0.00500*%
%ADD127C,0.00600*%
%ADD95C,0.00800*%
%ADD94C,0.01000*%
%ADD130C,0.01200*%
X0Y0D02*
D02*
D10*
X3Y35D02*
X5750D01*
Y3970*
X3*
Y35*
X39Y829D02*
X1153D01*
Y600*
X98*
X39Y659*
Y829*
X76Y917D02*
X82Y913D01*
X85Y907*
X82Y901*
X76Y898*
X54*
Y935*
X76*
X82Y932*
X85Y926*
X82Y920*
X76Y917*
X54*
X104Y898D02*
Y935D01*
X126*
X132Y932*
X135Y926*
X132Y920*
X126Y917*
X104*
X126D02*
X135Y898D01*
X160D02*
X173D01*
X167D02*
Y935D01*
X160Y929*
X87Y2674D02*
Y2712D01*
X103Y2693*
X118Y2712*
Y2674*
X137Y2684D02*
X140Y2677D01*
X147Y2674*
X153*
X159Y2677*
X162Y2684*
Y2690*
X159Y2696*
X153Y2699*
X147*
X140Y2696*
X137Y2690*
Y2684*
X193Y2699D02*
X206D01*
X200Y2706D02*
Y2677D01*
X203Y2674*
X206*
X209Y2677*
X237Y2684D02*
X240Y2677D01*
X247Y2674*
X253*
X259Y2677*
X262Y2684*
Y2690*
X259Y2696*
X253Y2699*
X247*
X240Y2696*
X237Y2690*
Y2684*
X287Y2674D02*
Y2699D01*
Y2690D02*
X290Y2696D01*
X297Y2699*
X303*
X309Y2696*
X250Y1499D02*
X275D01*
X262Y1487D02*
Y1512D01*
X469Y1840D02*
X466Y1837D01*
X459Y1834*
X450*
X444Y1837*
X441Y1840*
X438Y1846*
Y1859*
X441Y1865*
X444Y1868*
X450Y1871*
X459*
X466Y1868*
X469Y1865*
X494Y1834D02*
X506D01*
X500D02*
Y1871D01*
X494Y1865*
X449Y1015D02*
G75*
G03Y1740J363D01*
G01*
G75*
G03Y1015J-363*
G01*
X754Y305D02*
X751Y301D01*
X745Y298*
X735*
X729Y301*
X726Y305*
X723Y311*
Y323*
X726Y330*
X729Y333*
X735Y336*
X745*
X751Y333*
X754Y330*
X773Y311D02*
Y323D01*
X776Y330*
X779Y333*
X785Y336*
X792*
X798Y333*
X801Y330*
X804Y323*
Y311*
X801Y305*
X798Y301*
X792Y298*
X785*
X779Y301*
X776Y305*
X773Y311*
X823Y298D02*
Y336D01*
X854Y298*
Y336*
X873Y298D02*
Y336D01*
X904Y298*
Y336*
X929Y298D02*
X942D01*
X935D02*
Y336D01*
X929Y330*
X867Y3479D02*
Y3517D01*
X889*
X895Y3514*
X898Y3508*
X895Y3501*
X889Y3498*
X867*
X889D02*
X898Y3479D01*
X923D02*
X935D01*
X929D02*
Y3517D01*
X923Y3511*
X967Y3489D02*
X970Y3495D01*
X976Y3498*
X982*
X989Y3495*
X992Y3489*
X989Y3483*
X982Y3479*
X976*
X970Y3483*
X967Y3489*
Y3498*
X970Y3508*
X976Y3514*
X982Y3517*
X1035Y2767D02*
X1141D01*
Y2905D02*
X1035D01*
Y2728*
X1141*
Y2905*
X1147Y1503D02*
X1172D01*
X1160Y1491D02*
Y1516D01*
X1187Y2872D02*
X1225D01*
Y2853*
X1221Y2847*
X1218Y2843*
X1212Y2840*
X1200*
X1193Y2843*
X1190Y2847*
X1187Y2853*
Y2872*
Y2797D02*
Y2822D01*
X1209Y2800*
X1215Y2797*
X1221Y2800*
X1225Y2806*
Y2815*
X1221Y2822*
X1181Y829D02*
X2295D01*
Y600*
X1240*
X1181Y659*
Y829*
X1219Y3393D02*
X1216Y3390D01*
X1209Y3387*
X1200*
X1194Y3390*
X1191Y3393*
X1188Y3399*
Y3412*
X1191Y3418*
X1194Y3421*
X1200Y3424*
X1209*
X1216Y3421*
X1219Y3418*
X1263Y3387D02*
X1238D01*
X1259Y3409*
X1263Y3415*
X1259Y3421*
X1253Y3424*
X1244*
X1238Y3421*
X1303Y3387D02*
Y3424D01*
X1288Y3399*
X1313*
X1218Y917D02*
X1224Y913D01*
X1227Y907*
X1224Y901*
X1218Y898*
X1196*
Y935*
X1218*
X1224Y932*
X1227Y926*
X1224Y920*
X1218Y917*
X1196*
X1246Y898D02*
Y935D01*
X1268*
X1274Y932*
X1277Y926*
X1274Y920*
X1268Y917*
X1246*
X1268D02*
X1277Y898D01*
X1321D02*
X1296D01*
X1318Y920*
X1321Y926*
X1318Y932*
X1311Y935*
X1302*
X1296Y932*
X1327Y1838D02*
X1324Y1835D01*
X1318Y1832*
X1308*
X1302Y1835*
X1299Y1838*
X1296Y1844*
Y1857*
X1299Y1863*
X1302Y1866*
X1308Y1869*
X1318*
X1324Y1866*
X1327Y1863*
X1346Y1835D02*
X1352Y1832D01*
X1361*
X1368Y1835*
X1371Y1841*
Y1844*
X1368Y1851*
X1361Y1854*
X1346*
Y1869*
X1371*
X1347Y1019D02*
G75*
G03Y1744J363D01*
G01*
G75*
G03Y1019J-363*
G01*
X1780Y3619D02*
Y3657D01*
X1764D02*
X1796D01*
X1814Y3619D02*
Y3657D01*
X1836*
X1842Y3654*
X1846Y3647*
X1842Y3641*
X1836Y3638*
X1814*
X1889Y3619D02*
X1864D01*
X1886Y3641*
X1889Y3647*
X1886Y3654*
X1880Y3657*
X1871*
X1864Y3654*
X1917Y3622D02*
X1924Y3619D01*
X1930*
X1936Y3622*
X1939Y3629*
X1936Y3635*
X1930Y3638*
X1924*
X1930D02*
X1936Y3641D01*
X1939Y3647*
X1936Y3654*
X1930Y3657*
X1924*
X1917Y3654*
X2029Y2434D02*
X2285Y2152D01*
X2029Y1240D02*
G75*
G03X2055Y1265I13J13D01*
G01*
G75*
G03X2029Y1240I-13J-13*
G01*
Y1428D02*
G75*
G03X2068Y1438I19J5D01*
G01*
G75*
G03X2029Y1428I-19J-5*
G01*
Y2268D02*
G75*
G03X2068Y2258I19J-5D01*
G01*
G75*
G03X2029Y2268I-19J5*
G01*
Y2456D02*
G75*
G03X2055Y2431I13J-13D01*
G01*
G75*
G03X2029Y2456I-13J13*
G01*
X2030Y1265D02*
X2285Y1544D01*
X2030Y3832D02*
X2286Y3549D01*
X2030Y2637D02*
G75*
G03X2056Y2663I13J13D01*
G01*
G75*
G03X2030Y2637I-13J-13*
G01*
Y2826D02*
G75*
G03X2069Y2836I19J5D01*
G01*
G75*
G03X2030Y2826I-19J-5*
G01*
Y3665D02*
G75*
G03X2069Y3655I19J-5D01*
G01*
G75*
G03X2030Y3665I-19J5*
G01*
Y3854D02*
G75*
G03X2056Y3828I13J-13D01*
G01*
G75*
G03X2030Y3854I-13J13*
G01*
X2031Y2662D02*
X2286Y2942D01*
X2047Y2243D02*
X2285Y2151D01*
X2527Y2243*
X2048Y3641D02*
X2286Y3549D01*
X2528Y3641*
X2049Y2283D02*
X2344Y2216D01*
Y2216*
X2050Y1414D02*
X2348Y1479D01*
X2050Y3680D02*
X2345Y3614D01*
Y3614*
X2050Y1237D02*
X2167Y1257D01*
X2193Y1172*
X2051Y2812D02*
X2349Y2877D01*
X2051Y2634D02*
X2168Y2655D01*
X2194Y2569*
X2053Y2457D02*
X2169Y2438D01*
X2192Y2530*
X2195Y2531*
X2054Y3855D02*
X2170Y3835D01*
X2193Y3928*
X2196Y3929*
X2207Y3344D02*
X2179D01*
X2172Y3341*
X2169Y3335*
Y3322*
X2172Y3316*
X2179Y3313*
X2207*
X2169Y3288D02*
Y3275D01*
Y3282D02*
X2207D01*
X2201Y3288*
X2219Y1935D02*
X2191D01*
X2184Y1931*
X2181Y1925*
Y1913*
X2184Y1906*
X2191Y1903*
X2219*
X2181Y1860D02*
Y1885D01*
X2203Y1863*
X2209Y1860*
X2216Y1863*
X2219Y1869*
Y1878*
X2216Y1885*
X2205Y1154D02*
G75*
G03X2220Y1190I8J18D01*
G01*
G75*
G03X2205Y1154I-8J-18*
G01*
Y2542D02*
G75*
G03X2221Y2504I8J-19D01*
G01*
G75*
G03X2205Y2542I-8J19*
G01*
X2206Y2551D02*
G75*
G03X2221Y2588I8J18D01*
G01*
G75*
G03X2206Y2551I-8J-18*
G01*
Y3940D02*
G75*
G03X2222Y3901I8J-19D01*
G01*
G75*
G03X2206Y3940I-8J19*
G01*
X2231Y1172D02*
X2285Y1218D01*
X2338Y1173*
X2232Y2569D02*
X2286Y2616D01*
X2339Y2570*
X2233Y2525D02*
X2285Y2478D01*
X2340Y2527*
X2234Y3923D02*
X2286Y3876D01*
X2340Y3925*
X2254Y2159D02*
Y1537D01*
X2255Y3557D02*
Y2935D01*
X2285Y1505D02*
Y1545D01*
X2051*
G75*
G03X2031Y1526J-19*
G01*
Y1525*
G75*
G03X2051Y1505I20*
G01*
X2285*
Y1545D02*
Y1505D01*
X2520*
G75*
G03X2539Y1525J20*
G01*
G75*
G03X2520Y1545I-20*
G01*
X2285*
Y2151D02*
Y2191D01*
X2051*
G75*
G03X2031Y2171J-20*
G01*
G75*
G03X2051Y2151I20*
G01*
X2285*
Y2191D02*
Y2151D01*
X2520*
G75*
G03X2539Y2170J19*
G01*
Y2171*
G75*
G03X2520Y2191I-20*
G01*
X2285*
X2286Y2903D02*
Y2942D01*
X2052*
G75*
G03X2032Y2923J-19*
G01*
Y2923*
G75*
G03X2052Y2903I20*
G01*
X2286*
Y2942D02*
Y2903D01*
X2521*
G75*
G03X2540Y2923J20*
G01*
G75*
G03X2521Y2942I-20*
G01*
X2286*
Y3549D02*
Y3588D01*
X2052*
G75*
G03X2032Y3568J-20*
G01*
G75*
G03X2052Y3549I20*
G01*
X2286*
Y3588D02*
Y3549D01*
X2521*
G75*
G03X2540Y3568J19*
G01*
Y3568*
G75*
G03X2521Y3588I-20*
G01*
X2286*
X2317Y2159D02*
Y1537D01*
X2318Y3557D02*
Y2935D01*
X2325Y1648D02*
X2495D01*
Y2048*
X2325*
Y1648*
X2326Y3046D02*
X2496D01*
Y3446*
X2326*
Y3046*
X2369Y910D02*
X2375Y906D01*
X2378Y900*
X2375Y894*
X2369Y891*
X2347*
Y928*
X2369*
X2375Y925*
X2378Y919*
X2375Y913*
X2369Y910*
X2347*
X2397Y891D02*
Y928D01*
X2419*
X2425Y925*
X2428Y919*
X2425Y913*
X2419Y910*
X2397*
X2419D02*
X2428Y891D01*
X2450Y894D02*
X2456Y891D01*
X2463*
X2469Y894*
X2472Y900*
X2469Y906*
X2463Y910*
X2456*
X2463D02*
X2469Y913D01*
X2472Y919*
X2469Y925*
X2463Y928*
X2456*
X2450Y925*
X2366Y1154D02*
G75*
G03X2350Y1192I-8J19D01*
G01*
G75*
G03X2366Y1154I8J-19*
G01*
Y2542D02*
G75*
G03X2351Y2506I-8J-18D01*
G01*
G75*
G03X2366Y2542I8J18*
G01*
X2367Y2551D02*
G75*
G03X2351Y2590I-8J19D01*
G01*
G75*
G03X2367Y2551I8J-19*
G01*
Y3940D02*
G75*
G03X2352Y3904I-8J-18D01*
G01*
G75*
G03X2367Y3940I8J18*
G01*
X2375Y1648D02*
Y2048D01*
X2376Y3046D02*
Y3446D01*
X2377Y2526D02*
X2404Y2439D01*
X2522Y2460*
X2378Y1173D02*
X2403Y1257D01*
X2518Y1237*
Y1238*
X2378Y3924D02*
X2405Y3836D01*
X2523Y3858*
X2379Y2570D02*
X2404Y2655D01*
X2519Y2634*
Y2635*
X2521Y2282D02*
X2223Y2217D01*
X2522Y1413D02*
X2227Y1480D01*
Y1480*
X2522Y3680D02*
X2224Y3615D01*
X2523Y2811D02*
X2228Y2878D01*
Y2878*
X2524Y1453D02*
X2286Y1545D01*
X2044Y1453*
X2525Y2851D02*
X2287Y2943D01*
X2045Y2850*
X2541Y2431D02*
X2286Y2152D01*
X2541Y1240D02*
G75*
G03X2516Y1265I-13J13D01*
G01*
G75*
G03X2541Y1240I13J-13*
G01*
Y1428D02*
G75*
G03X2503Y1438I-19J5D01*
G01*
G75*
G03X2541Y1428I19J-5*
G01*
Y2268D02*
G75*
G03X2503Y2258I-19J-5D01*
G01*
G75*
G03X2541Y2268I19J5*
G01*
Y2456D02*
G75*
G03X2516Y2431I-13J-13D01*
G01*
G75*
G03X2541Y2456I13J13*
G01*
X2542Y1262D02*
X2286Y1544D01*
X2542Y3829D02*
X2287Y3549D01*
X2542Y2637D02*
G75*
G03X2517Y2663I-13J13D01*
G01*
G75*
G03X2542Y2637I13J-13*
G01*
Y2826D02*
G75*
G03X2504Y2836I-19J5D01*
G01*
G75*
G03X2542Y2826I19J-5*
G01*
Y3665D02*
G75*
G03X2504Y3655I-19J-5D01*
G01*
G75*
G03X2542Y3665I19J5*
G01*
Y3854D02*
G75*
G03X2517Y3828I-13J-13D01*
G01*
G75*
G03X2542Y3854I13J13*
G01*
X2543Y2660D02*
X2287Y2942D01*
X2720Y1302D02*
G75*
G03X2759Y1318I19J8D01*
G01*
G75*
G03X2720Y1302I-19J-8*
G01*
Y1463D02*
G75*
G03X2757Y1448I18J-8D01*
G01*
G75*
G03X2720Y1463I-18J8*
G01*
X2737Y1474D02*
X2824Y1502D01*
X2803Y1619*
X2738Y1331D02*
X2785Y1383D01*
X2736Y1437*
X2801Y2145D02*
X2798Y2142D01*
X2792Y2139*
X2783*
X2776Y2142*
X2773Y2145*
X2770Y2151*
Y2164*
X2773Y2170*
X2776Y2173*
X2783Y2176*
X2792*
X2798Y2173*
X2801Y2170*
X2830Y2158D02*
X2836D01*
X2842Y2161*
X2845Y2167*
X2842Y2173*
X2836Y2176*
X2830*
X2823Y2173*
X2820Y2167*
X2823Y2161*
X2830Y2158*
X2823Y2154*
X2820Y2148*
X2823Y2142*
X2830Y2139*
X2836*
X2842Y2142*
X2845Y2148*
X2842Y2154*
X2836Y2158*
X2754Y1817D02*
Y1842D01*
X2767Y1829D02*
X2742D01*
X2815Y3566D02*
X2812Y3563D01*
X2806Y3560*
X2796*
X2790Y3563*
X2787Y3566*
X2784Y3573*
Y3585*
X2787Y3591*
X2790Y3595*
X2796Y3598*
X2806*
X2812Y3595*
X2815Y3591*
X2859Y3560D02*
X2834D01*
X2856Y3582*
X2859Y3588*
X2856Y3595*
X2850Y3598*
X2840*
X2834Y3595*
X2806Y1151D02*
X2825Y1267D01*
X2733Y1289*
X2732Y1292*
X2807Y1127D02*
G75*
G03X2832Y1153I13J13D01*
G01*
G75*
G03X2807Y1127I-13J-13*
G01*
Y1639D02*
G75*
G03X2832Y1613I13J-13D01*
G01*
G75*
G03X2807Y1639I-13J13*
G01*
X2829Y1127D02*
X3111Y1382D01*
X2831Y1638D02*
X3111Y1383D01*
X2862Y2825D02*
Y2862D01*
X2846D02*
X2878D01*
X2896Y2825D02*
Y2862D01*
X2918*
X2925Y2859*
X2928Y2853*
X2925Y2847*
X2918Y2844*
X2896*
X2971Y2825D02*
X2946D01*
X2968Y2847*
X2971Y2853*
X2968Y2859*
X2962Y2862*
X2953*
X2946Y2859*
X2892Y3398D02*
Y3373D01*
X2880Y3385D02*
X2905D01*
X2932Y3863D02*
Y3901D01*
X2916D02*
X2947D01*
X2966Y3863D02*
Y3901D01*
X2988*
X2994Y3898*
X2997Y3891*
X2994Y3885*
X2988Y3882*
X2966*
X3022Y3863D02*
X3035D01*
X3028D02*
Y3901D01*
X3022Y3895*
X2980Y1146D02*
X3047Y1442D01*
X3047*
X2981Y1619D02*
X3046Y1321D01*
X2995Y1127D02*
G75*
G03X3005Y1165I5J19D01*
G01*
G75*
G03X2995Y1127I-5J-19*
G01*
Y1639D02*
G75*
G03X3005Y1601I5J-19D01*
G01*
G75*
G03X2995Y1639I-5J19*
G01*
X3020Y1145D02*
X3112Y1382D01*
X3019Y1625*
X3072Y1383D02*
X3112D01*
Y1617*
G75*
G03X3092Y1637I-19*
G01*
X3092*
G75*
G03X3072Y1617J-20*
G01*
Y1383*
X3104Y1351D02*
X3726D01*
X3104Y1415D02*
X3726D01*
X3112Y1383D02*
X3072D01*
Y1149*
G75*
G03X3092Y1129I20*
G01*
G75*
G03X3112Y1149J20*
G01*
Y1383*
X3267Y1945D02*
X3292D01*
X3280Y1933D02*
Y1958D01*
X3317Y2133D02*
X3314Y2130D01*
X3308Y2127*
X3298*
X3292Y2130*
X3289Y2133*
X3286Y2140*
Y2152*
X3289Y2158*
X3292Y2161*
X3298Y2165*
X3308*
X3314Y2161*
X3317Y2158*
X3342Y2127D02*
X3355D01*
X3348D02*
Y2165D01*
X3342Y2158*
X3411Y2127D02*
X3386D01*
X3408Y2149*
X3411Y2155*
X3408Y2161*
X3402Y2165*
X3392*
X3386Y2161*
X3355Y1316D02*
Y1288D01*
X3358Y1282*
X3364Y1279*
X3377*
X3383Y1282*
X3386Y1288*
Y1316*
X3405Y1282D02*
X3411Y1279D01*
X3420*
X3427Y1282*
X3430Y1288*
Y1291*
X3427Y1297*
X3420Y1301*
X3405*
Y1316*
X3430*
X3437Y600D02*
X2322D01*
Y829*
X3378*
X3437Y770*
Y600*
X3489Y3879D02*
X3498D01*
Y3876*
X3495Y3870*
X3492Y3866*
X3486Y3863*
X3480*
X3473Y3866*
X3470Y3870*
X3467Y3876*
Y3888*
X3470Y3895*
X3473Y3898*
X3480Y3901*
X3486*
X3492Y3898*
X3495Y3895*
X3498Y3888*
X3517Y3863D02*
Y3901D01*
X3548Y3863*
Y3901*
X3567Y3863D02*
Y3901D01*
X3586*
X3592Y3898*
X3595Y3895*
X3598Y3888*
Y3876*
X3595Y3870*
X3592Y3866*
X3586Y3863*
X3567*
X3512Y3552D02*
Y3590D01*
X3534*
X3540Y3587*
X3544Y3580*
X3540Y3574*
X3534Y3571*
X3512*
X3534D02*
X3544Y3552D01*
X3587D02*
X3562D01*
X3584Y3574*
X3587Y3580*
X3584Y3587*
X3578Y3590*
X3569*
X3562Y3587*
X3619Y3552D02*
X3631D01*
X3625D02*
Y3590D01*
X3619Y3584*
X3535Y2965D02*
Y3002D01*
X3520D02*
X3551D01*
X3570Y2965D02*
Y3002D01*
X3592*
X3598Y2999*
X3601Y2993*
X3598Y2987*
X3592Y2983*
X3570*
X3645Y2965D02*
X3620D01*
X3642Y2987*
X3645Y2993*
X3642Y2999*
X3635Y3002*
X3626*
X3620Y2999*
X3673Y2968D02*
X3679Y2965D01*
X3685*
X3692Y2968*
X3695Y2974*
Y2993*
X3692Y2999*
X3685Y3002*
X3679*
X3673Y2999*
X3670Y2993*
Y2974*
X3673Y2968*
X3692Y2999*
X3615Y1422D02*
Y1592D01*
X3215*
Y1422*
X3615*
Y1472D02*
X3215D01*
X3644Y3386D02*
X3641Y3389D01*
X3638Y3395*
Y3404*
X3641Y3411*
X3644Y3414*
X3650Y3417*
X3663*
X3669Y3414*
X3672Y3411*
X3675Y3404*
Y3395*
X3672Y3389*
X3669Y3386*
X3638Y3342D02*
Y3367D01*
X3660Y3345*
X3666Y3342*
X3672Y3345*
X3675Y3351*
Y3361*
X3672Y3367*
X3647Y3317D02*
X3653Y3314D01*
X3657Y3308*
Y3301*
X3653Y3295*
X3647Y3292*
X3641Y3295*
X3638Y3301*
Y3308*
X3641Y3314*
X3647Y3317*
X3657*
X3666Y3314*
X3672Y3308*
X3675Y3301*
X3670Y3231D02*
Y3203D01*
X3673Y3197*
X3679Y3194*
X3692*
X3698Y3197*
X3701Y3203*
Y3231*
X3726Y3194D02*
X3739D01*
X3732D02*
Y3231D01*
X3726Y3225*
X3779Y3213D02*
X3785D01*
X3792Y3216*
X3795Y3222*
X3792Y3228*
X3785Y3231*
X3779*
X3773Y3228*
X3770Y3222*
X3773Y3216*
X3779Y3213*
X3773Y3210*
X3770Y3203*
X3773Y3197*
X3779Y3194*
X3785*
X3792Y3197*
X3795Y3203*
X3792Y3210*
X3785Y3213*
X3693Y2712D02*
X3690Y2716D01*
X3687Y2722*
Y2731*
X3690Y2737*
X3693Y2741*
X3700Y2744*
X3712*
X3718Y2741*
X3721Y2737*
X3725Y2731*
Y2722*
X3721Y2716*
X3718Y2712*
X3687Y2687D02*
Y2675D01*
Y2681D02*
X3725D01*
X3718Y2687*
X3687Y2634D02*
X3690Y2628D01*
X3696Y2622*
X3706Y2619*
X3715*
X3721Y2622*
X3725Y2628*
Y2634*
X3721Y2641*
X3715Y2644*
X3709Y2641*
X3706Y2634*
Y2628*
X3709Y2622*
X3715Y2619*
X3742Y3104D02*
X3739Y3101D01*
X3733Y3098*
X3724*
X3717Y3101*
X3714Y3104*
X3711Y3110*
Y3123*
X3714Y3129*
X3717Y3132*
X3724Y3135*
X3733*
X3739Y3132*
X3742Y3129*
X3786Y3098D02*
X3761D01*
X3783Y3119*
X3786Y3126*
X3783Y3132*
X3777Y3135*
X3767*
X3761Y3132*
X3821Y3098D02*
X3827Y3101D01*
X3833Y3107*
X3836Y3116*
Y3126*
X3833Y3132*
X3827Y3135*
X3821*
X3814Y3132*
X3811Y3126*
X3814Y3119*
X3821Y3116*
X3827*
X3833Y3119*
X3836Y3126*
X3718Y1383D02*
X3757D01*
Y1617*
G75*
G03X3738Y1637I-20*
G01*
G75*
G03X3718Y1617J-20*
G01*
Y1383*
X3732Y2447D02*
X3769D01*
Y2425*
X3766Y2419*
X3760Y2416*
X3754Y2419*
X3751Y2425*
Y2447*
X3732Y2385D02*
X3757D01*
X3766D02*
X3757Y1383*
X3718D01*
Y1148*
G75*
G03X3737Y1129I19*
G01*
X3738*
G75*
G03X3757Y1149J20*
G01*
Y1383*
X3754Y520D02*
Y545D01*
X3766Y533D02*
X3741D01*
X3807Y3041D02*
X3845D01*
Y3019*
X3842Y3013*
X3835Y3010*
X3829Y3013*
X3826Y3019*
Y3041*
Y3019D02*
X3807Y3010D01*
Y2966D02*
Y2991D01*
X3829Y2969*
X3835Y2966*
X3842Y2969*
X3845Y2975*
Y2985*
X3842Y2991*
X3807Y2916D02*
Y2941D01*
X3829Y2919*
X3835Y2916*
X3842Y2919*
X3845Y2925*
Y2935*
X3842Y2941*
X3810Y1621D02*
X3718Y1383D01*
X3810Y1141*
X3835Y1127D02*
G75*
G03X3825Y1165I-5J19D01*
G01*
G75*
G03X3835Y1127I5J-19*
G01*
Y1639D02*
G75*
G03X3825Y1601I-5J-19D01*
G01*
G75*
G03X3835Y1639I5J19*
G01*
X3849Y1147D02*
X3784Y1445D01*
X3850Y1620D02*
X3783Y1324D01*
X3783*
X3878Y3665D02*
X3916D01*
Y3643*
X3912Y3637*
X3906Y3634*
X3900Y3637*
X3897Y3643*
Y3665*
Y3643D02*
X3878Y3634D01*
Y3590D02*
Y3615D01*
X3900Y3593*
X3906Y3590*
X3912Y3593*
X3916Y3599*
Y3609*
X3912Y3615*
X3881Y3562D02*
X3878Y3556D01*
Y3549*
X3881Y3543*
X3887Y3540*
X3906*
X3912Y3543*
X3916Y3549*
Y3556*
X3912Y3562*
X3906Y3565*
X3887*
X3881Y3562*
X3912Y3543*
X3922Y2162D02*
Y2199D01*
X3906D02*
X3937D01*
X3956Y2162D02*
Y2199D01*
X3978*
X3984Y2196*
X3987Y2190*
X3984Y2183*
X3978Y2180*
X3956*
X4022Y2162D02*
Y2199D01*
X4006Y2174*
X4031*
X3935Y3863D02*
Y3901D01*
X3920D02*
X3951D01*
X3970Y3863D02*
Y3901D01*
X3992*
X3998Y3898*
X4001Y3891*
X3998Y3885*
X3992Y3882*
X3970*
X4045Y3863D02*
X4020D01*
X4042Y3885*
X4045Y3891*
X4042Y3898*
X4035Y3901*
X4026*
X4020Y3898*
X4076Y3863D02*
X4089D01*
X4082D02*
Y3901D01*
X4076Y3895*
X3998Y1127D02*
X3718Y1383D01*
X4001Y1639D02*
X3718Y1383D01*
X4006Y3017D02*
Y3054D01*
X4028*
X4035Y3051*
X4038Y3045*
X4035Y3039*
X4028Y3036*
X4006*
X4028D02*
X4038Y3017D01*
X4063D02*
X4075D01*
X4069D02*
Y3054D01*
X4063Y3048*
X4023Y1127D02*
G75*
G03X3998Y1153I-13J13D01*
G01*
G75*
G03X4023Y1127I13J-13*
G01*
Y1639D02*
G75*
G03X3998Y1613I-13J-13D01*
G01*
G75*
G03X4023Y1639I13J13*
G01*
X4026Y1148D02*
X4005Y1265D01*
X4091Y1290*
X4090Y1475D02*
X4005Y1501D01*
X4026Y1615*
X4025*
X4091Y1329D02*
X4045Y1383D01*
X4090Y1435*
X4109Y1302D02*
G75*
G03X4073Y1317I-18J8D01*
G01*
G75*
G03X4109Y1302I18J-8*
G01*
Y1463D02*
G75*
G03X4070Y1447I-19J-8D01*
G01*
G75*
G03X4109Y1463I19J8*
G01*
X4127Y3629D02*
Y3667D01*
X4148*
X4155Y3663*
X4158Y3657*
X4155Y3651*
X4148Y3648*
X4127*
X4148D02*
X4158Y3629D01*
X4183D02*
X4195D01*
X4189D02*
Y3667D01*
X4183Y3660*
X4236Y3629D02*
X4242Y3632D01*
X4248Y3638*
X4252Y3648*
Y3657*
X4248Y3663*
X4242Y3667*
X4236*
X4230Y3663*
X4227Y3657*
X4230Y3651*
X4236Y3648*
X4242*
X4248Y3651*
X4252Y3657*
X4164Y3448D02*
X4161Y3445D01*
X4154Y3442*
X4145*
X4139Y3445*
X4136Y3448*
X4132Y3455*
Y3467*
X4136Y3473*
X4139Y3476*
X4145Y3480*
X4154*
X4161Y3476*
X4164Y3473*
X4207Y3442D02*
X4182D01*
X4204Y3464*
X4207Y3470*
X4204Y3476*
X4198Y3480*
X4189*
X4182Y3476*
X4242Y3461D02*
X4248D01*
X4254Y3464*
X4257Y3470*
X4254Y3476*
X4248Y3480*
X4242*
X4236Y3476*
X4232Y3470*
X4236Y3464*
X4242Y3461*
X4236Y3458*
X4232Y3451*
X4236Y3445*
X4242Y3442*
X4248*
X4254Y3445*
X4257Y3451*
X4254Y3458*
X4248Y3461*
X4152Y2995D02*
Y3033D01*
X4174*
X4180Y3030*
X4183Y3023*
X4180Y3017*
X4174Y3014*
X4152*
X4174D02*
X4183Y2995D01*
X4227D02*
X4202D01*
X4224Y3017*
X4227Y3023*
X4224Y3030*
X4218Y3033*
X4208*
X4202Y3030*
X4187Y3267D02*
X4184Y3264D01*
X4178Y3261*
X4169*
X4162Y3264*
X4159Y3267*
X4156Y3273*
Y3286*
X4159Y3292*
X4162Y3295*
X4169Y3298*
X4178*
X4184Y3295*
X4187Y3292*
X4231Y3261D02*
X4206D01*
X4228Y3283*
X4231Y3289*
X4228Y3295*
X4222Y3298*
X4212*
X4206Y3295*
X4281Y3261D02*
X4256D01*
X4278Y3283*
X4281Y3289*
X4278Y3295*
X4272Y3298*
X4262*
X4256Y3295*
X4197Y1003D02*
X4194Y1000D01*
X4188Y997*
X4178*
X4172Y1000*
X4169Y1003*
X4166Y1010*
Y1022*
X4169Y1028*
X4172Y1032*
X4178Y1035*
X4188*
X4194Y1032*
X4197Y1028*
X4216Y1007D02*
X4219Y1013D01*
X4225Y1016*
X4232*
X4238Y1013*
X4241Y1007*
X4238Y1000*
X4232Y997*
X4225*
X4219Y1000*
X4216Y1007*
Y1016*
X4219Y1025*
X4225Y1032*
X4232Y1035*
X4231Y2727D02*
Y2765D01*
X4215D02*
X4246D01*
X4265Y2727D02*
Y2765D01*
X4287*
X4293Y2762*
X4296Y2756*
X4293Y2749*
X4287Y2746*
X4265*
X4340Y2727D02*
X4315D01*
X4337Y2749*
X4340Y2756*
X4337Y2762*
X4331Y2765*
X4321*
X4315Y2762*
X4390Y2727D02*
X4365D01*
X4387Y2749*
X4390Y2756*
X4387Y2762*
X4381Y2765*
X4371*
X4365Y2762*
X4238Y720D02*
G75*
G03X3513I-363D01*
G01*
G75*
G03X4238I363*
G01*
X4270Y3863D02*
Y3901D01*
X4254D02*
X4286D01*
X4304Y3863D02*
Y3901D01*
X4326*
X4333Y3898*
X4336Y3891*
X4333Y3885*
X4326Y3882*
X4304*
X4361Y3863D02*
X4373D01*
X4367D02*
Y3901D01*
X4361Y3895*
X4411Y3863D02*
X4423D01*
X4417D02*
Y3901D01*
X4411Y3895*
X4265Y1612D02*
X4521Y1330D01*
X4266Y418D02*
G75*
G03X4291Y443I13J13D01*
G01*
G75*
G03X4266Y418I-13J-13*
G01*
Y606D02*
G75*
G03X4304Y616I19J5D01*
G01*
G75*
G03X4266Y606I-19J-5*
G01*
Y1446D02*
G75*
G03X4304Y1436I19J-5D01*
G01*
G75*
G03X4266Y1446I-19J5*
G01*
Y1634D02*
G75*
G03X4291Y1609I13J-13D01*
G01*
G75*
G03X4266Y1634I-13J13*
G01*
X4266Y443D02*
X4521Y723D01*
X4283Y1421D02*
X4521Y1329D01*
X4763Y1422*
X4285Y1461D02*
X4580Y1394D01*
Y1394*
X4286Y592D02*
X4584Y657D01*
X4286Y415D02*
X4403Y436D01*
X4429Y350*
X4289Y1635D02*
X4405Y1616D01*
X4428Y1708*
X4431Y1709*
X4355Y2981D02*
Y2953D01*
X4358Y2947*
X4364Y2944*
X4377*
X4383Y2947*
X4386Y2953*
Y2981*
X4411Y2944D02*
X4424D01*
X4417D02*
Y2981D01*
X4411Y2975*
X4461Y2944D02*
X4474D01*
X4467D02*
Y2981D01*
X4461Y2975*
X4401Y3480D02*
Y3451D01*
X4404Y3445*
X4410Y3442*
X4423*
X4429Y3445*
X4432Y3451*
Y3480*
X4457Y3442D02*
X4470D01*
X4464D02*
Y3480D01*
X4457Y3473*
X4504Y3445D02*
X4510Y3442D01*
X4517*
X4523Y3445*
X4526Y3451*
Y3470*
X4523Y3476*
X4517Y3480*
X4510*
X4504Y3476*
X4501Y3470*
Y3451*
X4504Y3445*
X4523Y3476*
X4449Y1120D02*
X4421D01*
X4415Y1117*
X4411Y1110*
Y1098*
X4415Y1092*
X4421Y1088*
X4449*
X4411Y1054D02*
X4449D01*
X4424Y1070*
Y1045*
X4441Y332D02*
G75*
G03X4456Y368I8J18D01*
G01*
G75*
G03X4441Y332I-8J-18*
G01*
Y1721D02*
G75*
G03X4457Y1682I8J-19D01*
G01*
G75*
G03X4441Y1721I-8J19*
G01*
X4453Y2875D02*
Y2913D01*
X4475*
X4481Y2909*
X4485Y2903*
X4481Y2897*
X4475Y2894*
X4453*
X4475D02*
X4485Y2875D01*
X4513D02*
X4519Y2878D01*
X4525Y2884*
X4528Y2894*
Y2903*
X4525Y2909*
X4519Y2913*
X4513*
X4506Y2909*
X4503Y2903*
X4506Y2897*
X4513Y2894*
X4519*
X4525Y2897*
X4528Y2903*
X4467Y350D02*
X4522Y396D01*
X4574Y351*
X4469Y1703D02*
X4522Y1656D01*
X4576Y1705*
X4485Y2999D02*
Y3149D01*
X4345*
Y2999*
X4484*
X4490Y1337D02*
Y715D01*
X4504Y3250D02*
X4542D01*
Y3228*
X4538Y3221*
X4532Y3218*
X4526Y3221*
X4523Y3228*
Y3250*
Y3228D02*
X4504Y3218D01*
X4507Y3196D02*
X4504Y3190D01*
Y3184*
X4507Y3178*
X4513Y3175*
X4520Y3178*
X4523Y3184*
Y3190*
Y3184D02*
X4526Y3178D01*
X4532Y3175*
X4538Y3178*
X4542Y3184*
Y3190*
X4538Y3196*
X4498Y2805D02*
Y2843D01*
X4519*
X4526Y2840*
X4529Y2833*
X4526Y2827*
X4519Y2824*
X4498*
X4519D02*
X4529Y2805D01*
X4557Y2824D02*
X4563D01*
X4569Y2827*
X4573Y2833*
X4569Y2840*
X4563Y2843*
X4557*
X4551Y2840*
X4548Y2833*
X4551Y2827*
X4557Y2824*
X4551Y2821*
X4548Y2815*
X4551Y2808*
X4557Y2805*
X4563*
X4569Y2808*
X4573Y2815*
X4569Y2821*
X4563Y2824*
X4518Y2981D02*
Y2953D01*
X4521Y2947*
X4528Y2944*
X4540*
X4546Y2947*
X4550Y2953*
Y2981*
X4575Y2944D02*
X4587D01*
X4581D02*
Y2981D01*
X4575Y2975*
X4618Y2947D02*
X4625Y2944D01*
X4634*
X4640Y2947*
X4643Y2953*
Y2956*
X4640Y2963*
X4634Y2966*
X4618*
Y2981*
X4643*
X4522Y684D02*
Y723D01*
X4287*
G75*
G03X4268Y704J-19*
G01*
Y703*
G75*
G03X4287Y684I20*
G01*
X4522*
Y723D02*
Y684D01*
X4756*
G75*
G03X4776Y703J20*
G01*
G75*
G03X4756Y723I-20*
G01*
X4522*
Y1329D02*
Y1369D01*
X4287*
G75*
G03X4268Y1349J-20*
G01*
G75*
G03X4287Y1329I20*
G01*
X4522*
Y1369D02*
Y1329D01*
X4756*
G75*
G03X4776Y1349J19*
G01*
Y1349*
G75*
G03X4756Y1369I-20*
G01*
X4522*
X4526Y3275D02*
Y3425D01*
X4386*
Y3275*
X4525*
X4565Y3505D02*
X4562Y3502D01*
X4556Y3499*
X4546*
X4540Y3502*
X4537Y3505*
X4534Y3512*
Y3524*
X4537Y3530*
X4540Y3533*
X4546Y3537*
X4556*
X4562Y3533*
X4565Y3530*
X4609Y3499D02*
X4584D01*
X4606Y3521*
X4609Y3527*
X4606Y3533*
X4600Y3537*
X4590*
X4584Y3533*
X4637Y3502D02*
X4643Y3499D01*
X4650*
X4656Y3502*
X4659Y3508*
X4656Y3515*
X4650Y3518*
X4643*
X4650D02*
X4656Y3521D01*
X4659Y3527*
X4656Y3533*
X4650Y3537*
X4643*
X4637Y3533*
X4553Y1337D02*
Y715D01*
X4561Y826D02*
X4731D01*
Y1226*
X4561*
Y826*
X4602Y332D02*
G75*
G03X4586Y371I-8J19D01*
G01*
G75*
G03X4602Y332I8J-19*
G01*
Y1721D02*
G75*
G03X4587Y1684I-8J-18D01*
G01*
G75*
G03X4602Y1721I8J18*
G01*
X4624Y3863D02*
Y3901D01*
X4609D02*
X4640D01*
X4659Y3863D02*
Y3901D01*
X4681*
X4687Y3898*
X4690Y3891*
X4687Y3885*
X4681Y3882*
X4659*
X4715Y3863D02*
X4728D01*
X4721D02*
Y3901D01*
X4715Y3895*
X4762Y3866D02*
X4768Y3863D01*
X4774*
X4781Y3866*
X4784Y3873*
Y3891*
X4781Y3898*
X4774Y3901*
X4768*
X4762Y3898*
X4759Y3891*
Y3873*
X4762Y3866*
X4781Y3898*
X4611Y826D02*
Y1226D01*
X4613Y1704D02*
X4641Y1617D01*
X4758Y1638*
X4614Y351D02*
X4640Y436D01*
X4754Y415*
Y416*
X4636Y2806D02*
Y2844D01*
X4658*
X4664Y2841*
X4668Y2834*
X4664Y2828*
X4658Y2825*
X4636*
X4658D02*
X4668Y2806D01*
X4693D02*
X4705D01*
X4699D02*
Y2844D01*
X4693Y2837*
X4739Y2809D02*
X4746Y2806D01*
X4752*
X4758Y2809*
X4761Y2816*
Y2834*
X4758Y2841*
X4752Y2844*
X4746*
X4739Y2841*
X4736Y2834*
Y2816*
X4739Y2809*
X4758Y2841*
X4650Y2996D02*
Y3146D01*
X4510*
Y2996*
X4649*
X4680Y3495D02*
Y3533D01*
X4702*
X4708Y3530*
X4711Y3523*
X4708Y3517*
X4702Y3514*
X4680*
X4702D02*
X4711Y3495D01*
X4730D02*
X4755Y3533D01*
X4730*
X4688Y3228D02*
Y3199D01*
X4691Y3193*
X4697Y3190*
X4709*
X4716Y3193*
X4719Y3199*
Y3228*
X4744Y3190D02*
X4756D01*
X4750D02*
Y3228D01*
X4744Y3221*
X4803Y3190D02*
Y3228D01*
X4788Y3203*
X4813*
X4733Y1798D02*
Y1836D01*
X4755*
X4761Y1833*
X4764Y1826*
X4761Y1820*
X4755Y1817*
X4733*
X4755D02*
X4764Y1798D01*
X4808D02*
X4783D01*
X4805Y1820*
X4808Y1826*
X4805Y1833*
X4798Y1836*
X4789*
X4783Y1833*
X4833Y1801D02*
X4839Y1798D01*
X4848*
X4855Y1801*
X4858Y1808*
Y1811*
X4855Y1817*
X4848Y1820*
X4833*
Y1836*
X4858*
X4757Y1460D02*
X4459Y1395D01*
X4758Y591D02*
X4463Y658D01*
Y658*
X4760Y631D02*
X4522Y723D01*
X4280Y631*
X4777Y1610D02*
X4522Y1330D01*
X4778Y418D02*
G75*
G03X4752Y443I-13J13D01*
G01*
G75*
G03X4778Y418I13J-13*
G01*
Y606D02*
G75*
G03X4739Y616I-19J5D01*
G01*
G75*
G03X4778Y606I19J-5*
G01*
Y1446D02*
G75*
G03X4739Y1436I-19J-5D01*
G01*
G75*
G03X4778Y1446I19J5*
G01*
Y1634D02*
G75*
G03X4752Y1609I-13J-13D01*
G01*
G75*
G03X4778Y1634I13J13*
G01*
X4778Y440D02*
X4522Y723D01*
X4845Y2173D02*
X4842Y2170D01*
X4835Y2166*
X4826*
X4820Y2170*
X4817Y2173*
X4814Y2179*
Y2191*
X4817Y2198*
X4820Y2201*
X4826Y2204*
X4835*
X4842Y2201*
X4845Y2198*
X4870Y2166D02*
X4882D01*
X4876D02*
Y2204D01*
X4870Y2198*
X4923Y2185D02*
X4929D01*
X4935Y2188*
X4939Y2195*
X4935Y2201*
X4929Y2204*
X4923*
X4917Y2201*
X4914Y2195*
X4917Y2188*
X4923Y2185*
X4917Y2182*
X4914Y2176*
X4917Y2170*
X4923Y2166*
X4929*
X4935Y2170*
X4939Y2176*
X4935Y2182*
X4929Y2185*
X4814Y2911D02*
Y2882D01*
X4817Y2876*
X4823Y2873*
X4835*
X4842Y2876*
X4845Y2882*
Y2911*
X4870Y2873D02*
X4882D01*
X4876D02*
Y2911D01*
X4870Y2904*
X4914Y2882D02*
X4917Y2889D01*
X4923Y2892*
X4929*
X4935Y2889*
X4939Y2882*
X4935Y2876*
X4929Y2873*
X4923*
X4917Y2876*
X4914Y2882*
Y2892*
X4917Y2901*
X4923Y2907*
X4929Y2911*
X4816Y2996D02*
Y3146D01*
X4676*
Y2996*
X4815*
X4819Y3381D02*
X4669D01*
Y3241*
X4819*
Y3380*
X4828Y2564D02*
Y2602D01*
X4850*
X4856Y2598*
X4860Y2592*
X4856Y2586*
X4850Y2583*
X4828*
X4850D02*
X4860Y2564D01*
X4878Y2567D02*
X4885Y2564D01*
X4894*
X4900Y2567*
X4903Y2573*
Y2577*
X4900Y2583*
X4894Y2586*
X4878*
Y2602*
X4903*
X4835Y3133D02*
Y3105D01*
X4838Y3099*
X4845Y3096*
X4857*
X4863Y3099*
X4866Y3105*
Y3133*
X4891Y3096D02*
X4904D01*
X4898D02*
Y3133D01*
X4891Y3127*
X4938Y3099D02*
X4945Y3096D01*
X4951*
X4957Y3099*
X4960Y3105*
X4957Y3111*
X4951Y3114*
X4945*
X4951D02*
X4957Y3117D01*
X4960Y3124*
X4957Y3130*
X4951Y3133*
X4945*
X4938Y3130*
X4845Y3487D02*
Y3525D01*
X4867*
X4873Y3522*
X4876Y3515*
X4873Y3509*
X4867Y3506*
X4845*
X4867D02*
X4876Y3487D01*
X4895Y3497D02*
X4898Y3503D01*
X4904Y3506*
X4911*
X4917Y3503*
X4920Y3497*
X4917Y3490*
X4911Y3487*
X4904*
X4898Y3490*
X4895Y3497*
Y3506*
X4898Y3515*
X4904Y3522*
X4911Y3525*
X4855Y2233D02*
Y2271D01*
X4877*
X4883Y2268*
X4886Y2261*
X4883Y2255*
X4877Y2252*
X4855*
X4877D02*
X4886Y2233D01*
X4911D02*
X4924D01*
X4917D02*
Y2271D01*
X4911Y2265*
X4970Y2233D02*
Y2271D01*
X4955Y2246*
X4980*
X4904Y1800D02*
Y1838D01*
X4926*
X4932Y1835*
X4935Y1828*
X4932Y1822*
X4926Y1819*
X4904*
X4926D02*
X4935Y1800D01*
X4979D02*
X4954D01*
X4976Y1822*
X4979Y1828*
X4976Y1835*
X4970Y1838*
X4960*
X4954Y1835*
X5004Y1810D02*
X5007Y1816D01*
X5013Y1819*
X5020*
X5026Y1816*
X5029Y1810*
X5026Y1803*
X5020Y1800*
X5013*
X5007Y1803*
X5004Y1810*
Y1819*
X5007Y1828*
X5013Y1835*
X5020Y1838*
X4953Y1729D02*
Y1767D01*
X4938D02*
X4969D01*
X4988Y1729D02*
Y1767D01*
X5009*
X5016Y1764*
X5019Y1758*
X5016Y1751*
X5009Y1748*
X4988*
X5041Y1733D02*
X5047Y1729D01*
X5053*
X5059Y1733*
X5063Y1739*
X5059Y1745*
X5053Y1748*
X5047*
X5053D02*
X5059Y1751D01*
X5063Y1758*
X5059Y1764*
X5053Y1767*
X5047*
X5041Y1764*
X4975Y1342D02*
X4972Y1339D01*
X4965Y1336*
X4956*
X4950Y1339*
X4947Y1342*
X4943Y1348*
Y1361*
X4947Y1367*
X4950Y1370*
X4956Y1373*
X4965*
X4972Y1370*
X4975Y1367*
X5000Y1336D02*
X5012D01*
X5006D02*
Y1373D01*
X5000Y1367*
X5047Y1339D02*
X5053Y1336D01*
X5059*
X5065Y1339*
X5068Y1345*
Y1364*
X5065Y1370*
X5059Y1373*
X5053*
X5047Y1370*
X5043Y1364*
Y1345*
X5047Y1339*
X5065Y1370*
X4945Y2852D02*
X4795D01*
Y2712*
X4945*
Y2851*
X5023Y2917D02*
Y2888D01*
X5026Y2882*
X5033Y2879*
X5045*
X5051Y2882*
X5054Y2888*
Y2917*
X5079Y2879D02*
X5092D01*
X5086D02*
Y2917D01*
X5079Y2910*
X5148Y2879D02*
X5123D01*
X5145Y2901*
X5148Y2907*
X5145Y2913*
X5139Y2917*
X5129*
X5123Y2913*
X5045Y3301D02*
X5083D01*
Y3279*
X5080Y3273*
X5073Y3269*
X5067Y3273*
X5064Y3279*
Y3301*
Y3279D02*
X5045Y3269D01*
Y3244D02*
Y3232D01*
Y3238D02*
X5083D01*
X5077Y3244*
X5045Y3176D02*
Y3201D01*
X5067Y3179*
X5073Y3176*
X5080Y3179*
X5083Y3185*
Y3194*
X5080Y3201*
X5047Y3466D02*
X5085D01*
Y3444*
X5082Y3438*
X5075Y3435*
X5069Y3438*
X5066Y3444*
Y3466*
Y3444D02*
X5047Y3435D01*
Y3410D02*
Y3397D01*
Y3404D02*
X5085D01*
X5079Y3410*
X5050Y3363D02*
X5047Y3357D01*
Y3350*
X5050Y3344*
X5057Y3341*
X5063Y3344*
X5066Y3350*
Y3357*
Y3350D02*
X5069Y3344D01*
X5075Y3341*
X5082Y3344*
X5085Y3350*
Y3357*
X5082Y3363*
X5072Y1182D02*
Y1157D01*
X5059Y1170D02*
X5084D01*
X5140Y1990D02*
X5137Y1986D01*
X5131Y1983*
X5121*
X5115Y1986*
X5112Y1990*
X5109Y1996*
Y2008*
X5112Y2015*
X5115Y2018*
X5121Y2021*
X5131*
X5137Y2018*
X5140Y2015*
X5165Y1983D02*
X5178D01*
X5171D02*
Y2021D01*
X5165Y2015*
X5224Y1983D02*
Y2021D01*
X5209Y1996*
X5234*
X5162Y2712D02*
Y2862D01*
X5022*
Y2712*
X5161*
X5242Y3933D02*
X5205D01*
Y3901*
Y3870D02*
X5230D01*
X5239D02*
X5205Y3833*
X5230D01*
X5227D02*
X5230Y3830D01*
Y3823*
X5227Y3820*
X5217*
X5227D02*
X5230Y3817D01*
Y3811*
X5227Y3808*
X5205*
Y3770D02*
X5230D01*
X5239D02*
X5230Y3726*
Y3714D01*
X5236Y3720D02*
X5208D01*
X5205Y3717*
Y3714*
X5208Y3711*
X5214Y3683D02*
X5208Y3680D01*
X5205Y3673*
Y3661*
X5208Y3655*
X5214Y3651*
X5220Y3655*
X5224Y3661*
Y3673*
X5227Y3680*
X5233Y3683*
X5239Y3680*
X5242Y3673*
Y3661*
X5239Y3655*
X5233Y3651*
X5230Y3633D02*
X5208D01*
X5205Y3630*
Y3623*
X5208Y3620*
X5217*
X5208D02*
X5205Y3617D01*
Y3611*
X5208Y3608*
X5230*
X5216Y726D02*
X5210Y723D01*
X5207Y717*
Y704*
X5210Y698*
X5216Y695*
X5222Y698*
X5226Y704*
Y717*
X5229Y723*
X5235Y726*
X5241Y723*
X5244Y717*
Y704*
X5241Y698*
X5235Y695*
X5232Y670D02*
Y657D01*
X5238Y663D02*
X5210D01*
X5207Y660*
Y657*
X5210Y654*
X5229Y626D02*
X5232Y620D01*
Y610*
X5229Y604*
X5222Y601*
X5213*
X5210Y604*
X5207Y610*
Y617*
X5210Y623*
X5213Y626*
X5216*
X5219Y623*
X5222Y617*
Y610*
X5219Y604*
X5216Y601*
X5213D02*
X5207D01*
X5232Y570D02*
Y557D01*
X5238Y563D02*
X5210D01*
X5207Y560*
Y557*
X5210Y554*
X5232Y526D02*
X5216D01*
X5210Y523*
X5207Y517*
Y510*
X5210Y504*
X5216Y501*
X5232D02*
X5207D01*
X5210Y476D02*
X5207Y470D01*
Y457*
X5210Y451*
X5216*
X5219Y457*
Y470*
X5222Y476*
X5229*
X5232Y470*
Y457*
X5229Y451*
X5244Y426D02*
X5207D01*
Y395*
Y376D02*
X5244D01*
Y345*
X5226Y351D02*
Y376D01*
X5207D02*
Y345D01*
Y326D02*
X5244D01*
Y307*
X5241Y301*
X5238Y298*
X5232Y295*
X5219*
X5213Y298*
X5210Y301*
X5207Y307*
Y326*
X5209Y1466D02*
X5246D01*
Y1435*
X5227Y1441D02*
Y1466D01*
X5209Y1404D02*
X5234D01*
X5243D02*
X5218Y1366*
X5212Y1363D01*
X5209Y1357*
Y1350*
X5212Y1344*
X5218Y1341*
X5224*
X5231Y1344*
X5234Y1350*
Y1357*
X5231Y1363*
X5224Y1366*
X5209D02*
X5246D01*
X5212Y1291D02*
X5209Y1294D01*
Y1300*
Y1307*
X5212Y1313*
X5218Y1316*
X5227*
X5231Y1313*
X5234Y1307*
Y1300*
X5231Y1294*
X5227Y1291*
X5224*
X5221Y1294*
X5218Y1300*
Y1307*
X5221Y1313*
X5224Y1316*
X5209Y1266D02*
X5234D01*
X5224D02*
X5231Y1263D01*
X5234Y1257*
Y1250*
X5231Y1244*
X5209Y3192D02*
X5246D01*
Y3174*
X5243Y3167*
X5240Y3164*
X5234Y3161*
X5221*
X5215Y3164*
X5212Y3167*
X5209Y3174*
Y3192*
Y3142D02*
X5234D01*
X5224D02*
X5231Y3139D01*
X5234Y3133*
Y3127*
X5231Y3121*
X5209Y3080D02*
X5234D01*
X5243D02*
X5234Y3042*
X5209Y3030D01*
X5234Y3017*
X5212Y2967D02*
X5209Y2971D01*
Y2977*
Y2983*
X5212Y2989*
X5218Y2992*
X5227*
X5231Y2989*
X5234Y2983*
Y2977*
X5231Y2971*
X5227Y2967*
X5224*
X5221Y2971*
X5218Y2977*
Y2983*
X5221Y2989*
X5224Y2992*
X5209Y2942D02*
X5234D01*
X5224D02*
X5231Y2939D01*
X5234Y2933*
Y2927*
X5231Y2921*
X5246Y2892D02*
X5209D01*
Y2861*
Y2842D02*
X5246D01*
Y2811*
X5227Y2817D02*
Y2842D01*
X5209D02*
Y2811D01*
Y2792D02*
X5246D01*
Y2774*
X5243Y2767*
X5240Y2764*
X5234Y2761*
X5221*
X5215Y2764*
X5212Y2767*
X5209Y2774*
Y2792*
X5221Y2433D02*
X5258D01*
Y2411*
X5255Y2405*
X5249Y2401*
X5242Y2405*
X5239Y2411*
Y2433*
X5230Y2383D02*
X5224Y2380D01*
X5221Y2373*
Y2367*
X5224Y2361*
X5230Y2358*
X5236*
X5242Y2361*
X5246Y2367*
Y2373*
X5242Y2380*
X5236Y2383*
X5230*
X5224Y2333D02*
X5221Y2326D01*
Y2314*
X5224Y2308*
X5230*
X5233Y2314*
Y2326*
X5236Y2333*
X5242*
X5246Y2326*
Y2314*
X5242Y2308*
X5221Y2270D02*
X5246D01*
X5255D02*
X5246Y2226*
Y2214D01*
X5252Y2220D02*
X5224D01*
X5221Y2217*
Y2214*
X5224Y2211*
X5221Y2170D02*
X5246D01*
X5255D02*
X5230Y2133*
X5224Y2130D01*
X5221Y2123*
Y2117*
X5224Y2111*
X5230Y2108*
X5236*
X5242Y2111*
X5246Y2117*
Y2123*
X5242Y2130*
X5236Y2133*
X5230*
X5221Y2083D02*
X5246D01*
X5236D02*
X5242Y2080D01*
X5246Y2073*
Y2067*
X5242Y2061*
X5236Y2058*
X5221*
D02*
D94*
X27Y3432D02*
Y2782D01*
X477*
Y3432*
X27*
X2462Y525D02*
X1012D01*
Y75*
X2462*
Y525*
X5122Y2522D02*
X3822D01*
Y2322*
X5122*
Y2522*
X5275Y1477D02*
Y827D01*
X5725*
Y1477*
X5275*
Y2433D02*
Y1583D01*
X5725*
Y2433*
X5275*
Y3197D02*
Y2547D01*
X5725*
Y3197*
X5275*
X5277Y721D02*
Y71D01*
X5727*
Y721*
X5277*
Y3945D02*
Y3295D01*
X5727*
Y3945*
X5277*
D02*
D95*
X853Y3373D02*
Y3443D01*
X989*
Y3373*
X853*
X1317Y3533D02*
Y3463D01*
X1181*
Y3533*
X1317*
X1968Y3803D02*
G75*
G03X1768I-100D01*
G01*
G75*
G03X1968I100*
G01*
X2924Y3803D02*
G75*
G03X2724I-100D01*
G01*
G75*
G03X2924I100*
G01*
X2946Y2791D02*
G75*
G03Y2591J-100D01*
G01*
G75*
G03Y2791J100*
G01*
X3371Y3907D02*
G75*
G03Y3707J-100D01*
G01*
G75*
G03Y3907J100*
G01*
X3620Y2930D02*
G75*
G03Y2730J-100D01*
G01*
G75*
G03Y2930J100*
G01*
X3713Y3418D02*
X3783D01*
Y3282*
X3713*
Y3418*
X3740Y2749D02*
X3810D01*
Y2613*
X3740*
Y2749*
X3809Y3598D02*
Y3528D01*
X3673*
Y3598*
X3809*
X3834Y3906D02*
G75*
G03Y3706J-100D01*
G01*
G75*
G03Y3906J100*
G01*
X3860Y3046D02*
X3930D01*
Y2910*
X3860*
Y3046*
X3929Y3668D02*
X3999D01*
Y3532*
X3929*
Y3668*
X3968Y2152D02*
G75*
G03Y1952J-100D01*
G01*
G75*
G03Y2152J100*
G01*
X4001Y3152D02*
Y3082D01*
X3865*
Y3152*
X4001*
X4035Y3667D02*
X4105D01*
Y3531*
X4035*
Y3667*
X4111Y3345D02*
X4041D01*
Y3481*
X4111*
Y3345*
X4122Y3073D02*
X4052D01*
Y3209*
X4122*
Y3073*
X4177Y3904D02*
G75*
G03Y3704J-100D01*
G01*
G75*
G03Y3904J100*
G01*
X4187Y2978D02*
G75*
G03Y2778J-100D01*
G01*
G75*
G03Y2978J100*
G01*
X4242Y3142D02*
X4312D01*
Y3006*
X4242*
Y3142*
X4290Y3247D02*
Y3177D01*
X4154*
Y3247*
X4290*
X4347Y3177D02*
Y3247D01*
X4483*
Y3177*
X4347*
X4519Y3904D02*
G75*
G03Y3704J-100D01*
G01*
G75*
G03Y3904J100*
G01*
X4564Y3478D02*
X4634D01*
Y3342*
X4564*
Y3478*
X4607Y2789D02*
Y2719D01*
X4471*
Y2789*
X4607*
X4636Y2719D02*
Y2789D01*
X4772*
Y2719*
X4636*
X4690Y2927D02*
Y2857D01*
X4554*
Y2927*
X4690*
X4812Y3483D02*
Y3413D01*
X4676*
Y3483*
X4812*
X4838Y2156D02*
X4908D01*
Y2020*
X4838*
Y2156*
X4862Y1922D02*
Y1852D01*
X4726*
Y1922*
X4862*
X4916Y3339D02*
X4846D01*
Y3475*
X4916*
Y3339*
X4932Y2684D02*
Y2614D01*
X4796*
Y2684*
X4932*
X4959Y3304D02*
X5029D01*
Y3168*
X4959*
Y3304*
X5005Y1717D02*
G75*
G03Y1517J-100D01*
G01*
G75*
G03Y1717J100*
G01*
X5029Y3337D02*
X4959D01*
Y3473*
X5029*
Y3337*
X5032Y1922D02*
Y1852D01*
X4896*
Y1922*
X5032*
X5138Y2283D02*
Y2213D01*
X5002*
Y2283*
X5138*
X5202Y2042D02*
X5132D01*
Y2178*
X5202*
Y2042*
D02*
D127*
X758Y3769D02*
X1556D01*
Y3951*
X758*
Y3769*
X3822Y3340D02*
G75*
G03Y3364J12D01*
G01*
Y3420D02*
Y3284D01*
X3874Y2724D02*
G75*
G03Y2748J12D01*
G01*
Y2782D02*
Y2690D01*
X4018Y3284D02*
Y3420D01*
X4067Y2690D02*
Y2782D01*
X4969Y2125D02*
Y2094D01*
X5079Y2116D02*
G75*
G03Y2104I10J-6D01*
G01*
X5089Y2094D02*
Y2125D01*
D02*
D128*
X591Y3875D02*
Y3847D01*
X594Y3841*
X600Y3838*
X613*
X619Y3841*
X622Y3847*
Y3875*
X647Y3838D02*
X660D01*
X654D02*
Y3875D01*
X647Y3869*
X691Y3838D02*
X716Y3875D01*
X691*
X3777Y3237D02*
Y3262D01*
X3789Y3244D02*
X3764Y3256D01*
Y3244D02*
X3789Y3256D01*
X3856Y2608D02*
Y2633D01*
X3869Y2614D02*
X3844Y2627D01*
Y2614D02*
X3869Y2627D01*
X4124Y2767D02*
X4096D01*
X4090Y2764*
X4087Y2758*
Y2745*
X4090Y2739*
X4096Y2736*
X4124*
X4087Y2717D02*
X4124Y2692D01*
Y2717*
X4999Y2021D02*
Y1993D01*
X5002Y1986*
X5008Y1983*
X5020*
X5027Y1986*
X5030Y1993*
Y2021*
X5052Y1986D02*
X5058Y1983D01*
X5064*
X5070Y1986*
X5074Y1993*
X5070Y1999*
X5064Y2002*
X5058*
X5064D02*
X5070Y2005D01*
X5074Y2011*
X5070Y2018*
X5064Y2021*
X5058*
X5052Y2018*
X5103Y2187D02*
Y2162D01*
X5091Y2181D02*
X5116Y2168D01*
Y2181D02*
X5091Y2168D01*
D02*
D130*
X2820Y1687D02*
G75*
G03Y2120J217D01*
G01*
G75*
G03Y1687J-217*
G01*
X2827Y3528D02*
G75*
G03Y3095J-217D01*
G01*
G75*
G03Y3528J217*
G01*
X3138Y1880D02*
G75*
G03X3571I217D01*
G01*
G75*
G03X3138I-217*
G01*
X5006Y1312D02*
G75*
G03Y879J-217D01*
G01*
G75*
G03Y1312J217*
G01*
X0Y0D02*
M02*
