%FSLAX33Y33*%
%MOMM*%
G04 EasyPC Gerber Version 17.0 Build 3379 *
%ADD25R,0.70800X1.36840*%
%ADD75R,0.75880X1.80020*%
%ADD27R,0.75880X2.18120*%
%ADD28R,0.80000X0.90000*%
%ADD29R,1.49540X1.72400*%
%ADD24R,2.00000X2.00000*%
%ADD73R,2.10000X2.10000*%
%ADD71R,3.00000X3.00000*%
%ADD17C,1.40000*%
%ADD78C,1.70000*%
%ADD23C,1.90000*%
%ADD74C,2.10000*%
%ADD20C,2.20000*%
%ADD77C,2.30000*%
%ADD19C,2.40000*%
%ADD21C,2.40000*%
%ADD70C,3.20000*%
%ADD22C,5.20000*%
%ADD18C,7.00000*%
%ADD72R,0.90000X0.80000*%
%ADD26R,1.72400X1.49540*%
%ADD76R,2.50000X2.00000*%
X0Y0D02*
D02*
D17*
X79794Y56849D03*
X95914Y65039D03*
X101151Y69514D03*
X105539Y90489D03*
X109689Y74939D03*
X117539Y81489D03*
X120889Y53214D03*
Y96589D03*
X121139Y73464D03*
X121939Y51889D03*
X123239Y75564D03*
X123789Y50189D03*
X124389Y76839D03*
X125514Y52539D03*
X126689Y76789D03*
X128139Y14714D03*
D02*
D18*
X7064Y7889D03*
Y93889D03*
X90064Y60889D03*
X127064Y7889D03*
Y93889D03*
D02*
D19*
X95189Y88114D03*
X103539Y83389D03*
D02*
D70*
X3888Y18146D03*
X7614Y34989D03*
X11389Y18146D03*
X15234Y34989D03*
X18889Y18146D03*
X26389D03*
X30414Y35089D03*
X32889Y18146D03*
X38034Y35089D03*
X40389Y18146D03*
X47439Y96589D03*
X47889Y18146D03*
X55389D03*
X61889D03*
X69389D03*
X71739Y96597D03*
X74839Y68339D03*
X76889Y18146D03*
X84389D03*
X85614Y96689D03*
X91939Y71889D03*
X97389Y96663D03*
X98439Y14489D03*
Y22109D03*
X100789Y52114D03*
X106089Y96614D03*
X106339Y73089D03*
X114789Y96614D03*
X127139Y41064D03*
D02*
D71*
X6389Y76384D03*
Y81464D03*
X31414Y7614D03*
X36493D03*
X41574D03*
X46654D03*
X51734D03*
X56814D03*
X139712Y26709D03*
Y31789D03*
Y45929D03*
Y51009D03*
Y56089D03*
Y70409D03*
Y75489D03*
X139739Y7509D03*
Y12589D03*
Y89409D03*
Y94489D03*
D02*
D20*
X56814Y10959D03*
X136362Y51009D03*
X136367Y56089D03*
D02*
D21*
X61839Y44399D03*
Y46939D03*
Y49479D03*
X61864Y79899D03*
Y82439D03*
Y84979D03*
X84198Y38914D03*
X86739D03*
X89279D03*
X118639Y23524D03*
Y26064D03*
Y28604D03*
D02*
D22*
X58049Y34189D03*
Y59689D03*
X58074Y69689D03*
Y95189D03*
X73989Y35124D03*
X99489D03*
X114849Y13314D03*
Y38814D03*
D02*
D23*
X71689Y47489D03*
Y49489D03*
X71739Y82964D03*
Y84964D03*
X84339Y47689D03*
X86339D03*
X127093Y26689D03*
Y28689D03*
D02*
D24*
X98359Y60249D03*
Y62789D03*
X100899Y60249D03*
Y62789D03*
X103439Y60249D03*
Y62789D03*
X105978Y60249D03*
Y62789D03*
X108518Y60249D03*
Y62789D03*
X111059Y60249D03*
Y62789D03*
X113599Y60249D03*
Y62789D03*
X116139Y60249D03*
Y62789D03*
X118679Y60249D03*
Y62789D03*
X121218Y60249D03*
Y62789D03*
X123759Y60249D03*
Y62789D03*
X126299Y60249D03*
Y62789D03*
X128839Y60249D03*
Y62789D03*
D02*
D25*
X126789Y52522D03*
Y54656D03*
X127739Y52522D03*
Y54656D03*
X128689Y52522D03*
Y54656D03*
D02*
D26*
X24214Y83387D03*
Y85292D03*
Y87587D03*
Y89492D03*
X95189Y84137D03*
Y86042D03*
X95889Y67137D03*
Y69042D03*
X98926Y74699D03*
Y76604D03*
X100689Y90487D03*
Y92392D03*
X103389Y90474D03*
Y92379D03*
X103539Y85737D03*
Y87642D03*
X103801Y78824D03*
Y80729D03*
X108639Y77137D03*
Y79042D03*
X116814Y85662D03*
Y87567D03*
X123764Y52087D03*
Y53992D03*
X123989Y85587D03*
Y87492D03*
X126839Y81237D03*
Y83142D03*
Y85537D03*
Y87442D03*
X131239Y52637D03*
Y54542D03*
D02*
D27*
X98933Y67127D03*
Y71851D03*
X100204Y67127D03*
Y71851D03*
X101474Y67127D03*
Y71851D03*
X102743Y67127D03*
Y71851D03*
D02*
D28*
X111189Y79089D03*
X112139Y77089D03*
X112239Y86089D03*
X113089Y79089D03*
X113189Y84089D03*
X114139Y86089D03*
X115389Y79014D03*
X116339Y77014D03*
X117289Y79014D03*
X119589D03*
X120539Y77014D03*
X121489Y79014D03*
X128389Y71789D03*
X129339Y69789D03*
X130289Y71789D03*
D02*
D29*
X30761Y88839D03*
X32666D03*
X94061Y90489D03*
X95966D03*
X98948Y79177D03*
X100854D03*
X106286Y81589D03*
X108191D03*
X111186D03*
X113091D03*
X114336Y69964D03*
X116241D03*
X116436Y73464D03*
X118341D03*
X118536Y69964D03*
X119536Y87589D03*
X120441Y69964D03*
X120811Y47939D03*
X121441Y87589D03*
X122586Y67289D03*
X122716Y47939D03*
X124491Y67289D03*
X125136Y47939D03*
X127041D03*
X127836Y57089D03*
X129741D03*
D02*
D72*
X119489Y83139D03*
Y85039D03*
X121489Y84089D03*
X122689Y69714D03*
Y71614D03*
X124689Y70664D03*
D02*
D73*
X20870Y97522D03*
D02*
D74*
X22572Y92442D03*
X24274Y97522D03*
X25976Y92442D03*
X27678Y97522D03*
X29380Y92442D03*
X31081Y97522D03*
X32783Y92442D03*
X34485Y97522D03*
X36187Y92442D03*
X37889Y97522D03*
D02*
D75*
X97659Y82485D03*
Y87793D03*
X98929Y82485D03*
Y87793D03*
X100198Y82485D03*
Y87793D03*
X101469Y82485D03*
Y87793D03*
D02*
D76*
X27714Y70439D03*
Y74939D03*
D02*
D77*
X17489Y77464D03*
X27649D03*
D02*
D78*
X82764Y82889D03*
X91068Y55224D03*
X95314Y93614D03*
X97689Y56564D03*
X100214Y84564D03*
X106139Y78689D03*
X106339Y85489D03*
X120805Y67980D03*
X126614Y71864D03*
X0Y0D02*
M02*
