%FSLAX23Y23*%
%MOIN*%
G04 EasyPC Gerber Version 17.0 Build 3379 *
%ADD87R,0.05100X0.06000*%
%ADD158R,0.05400X0.05400*%
%ADD154R,0.06000X0.06000*%
%ADD150R,0.11024X0.11024*%
%ADD97C,0.01000*%
%ADD95C,0.03150*%
%ADD81C,0.03200*%
%ADD96C,0.03937*%
%ADD159C,0.05400*%
%ADD85C,0.05600*%
%ADD161C,0.06000*%
%ADD153C,0.06299*%
%ADD83C,0.06300*%
%ADD152C,0.07000*%
%ADD151C,0.07874*%
%ADD93R,0.01800X0.01300*%
%ADD91R,0.04000X0.02000*%
%ADD92R,0.04771X0.02000*%
%ADD89R,0.07800X0.02200*%
%ADD94R,0.04800X0.04000*%
%ADD82C,0.11811*%
%ADD84C,0.13780*%
%ADD88R,0.06000X0.05100*%
%ADD90R,0.09055X0.07087*%
X0Y0D02*
D02*
D81*
X4083Y2737D03*
X4255Y3563D03*
X4279Y3098D03*
X4287Y3366D03*
X4728Y3208D03*
X4858Y2893D03*
X4905Y2112D03*
X4940Y2976D03*
X4980Y1970D03*
X5039Y2067D03*
X5088Y3023D03*
X5090Y2830D03*
D02*
D82*
X238Y714D03*
X330Y2748D03*
X533Y714D03*
X645Y1401D03*
X759Y3846D03*
X828Y714D03*
X945Y1401D03*
X1124Y714D03*
X1379D03*
X1675D03*
X1970D03*
X2000Y1401D03*
X2133Y3145D03*
X2265Y714D03*
X2300Y1401D03*
X2537Y714D03*
X2832D03*
X3127D03*
X3421Y2346D03*
X3423Y714D03*
X3720Y2830D03*
X3976Y570D03*
Y870D03*
X4275Y2114D03*
X4303Y3805D03*
X4377Y2829D03*
X4543Y2114D03*
X4716Y3805D03*
X5106Y1617D03*
D02*
D83*
X3414Y1527D03*
X3514D03*
X3614D03*
X4771Y925D03*
Y1025D03*
Y1125D03*
D02*
D84*
X299Y2110D03*
X1299D03*
X1704Y2114D03*
X2704D03*
X3007Y1358D03*
X4007D03*
X4602Y523D03*
Y1523D03*
D02*
D85*
X4854Y2673D03*
D02*
D87*
X722Y2576D03*
X753Y1551D03*
X797Y2576D03*
X828Y1551D03*
X2045Y2531D03*
X2106Y1531D03*
X2120Y2531D03*
X2181Y1531D03*
X2454Y2815D03*
X2496Y3043D03*
X2529Y2815D03*
X2571Y3043D03*
X3423Y1708D03*
X3498D03*
X3753Y3834D03*
X3828D03*
X3911D03*
X3986D03*
X4859Y1870D03*
X4934D03*
X5029D03*
X5104D03*
X5166Y2972D03*
X5167Y3720D03*
X5241Y2972D03*
X5242Y3720D03*
X5297Y496D03*
X5372D03*
D02*
D88*
X2452Y2620D03*
Y2695D03*
X3149Y2761D03*
Y2836D03*
X3838Y690D03*
Y765D03*
X4342Y3563D03*
Y3638D03*
X4377Y3025D03*
Y3100D03*
X4771Y3480D03*
Y3555D03*
X4800Y2975D03*
Y3050D03*
X4986Y1049D03*
Y1124D03*
D02*
D89*
X4466Y3491D03*
Y3541D03*
Y3591D03*
Y3641D03*
X4493Y2991D03*
Y3041D03*
Y3091D03*
Y3141D03*
X4660Y3491D03*
Y3541D03*
Y3591D03*
Y3641D03*
X4687Y2991D03*
Y3041D03*
Y3091D03*
Y3141D03*
D02*
D90*
X2872Y2773D03*
Y2950D03*
X2877Y3049D03*
Y3226D03*
D02*
D91*
X4834Y2159D03*
Y2234D03*
X4999Y2159D03*
Y2234D03*
D02*
D92*
X4767Y2196D03*
X4933D03*
D02*
D93*
X2260Y2695D03*
X2315D03*
D02*
D94*
X2630Y2617D03*
Y2697D03*
X2717Y2657D03*
D02*
D95*
X3421Y1878D02*
Y1710D01*
X3423Y1708*
X3421Y2346D02*
Y2087D01*
X3478Y2030*
X3423Y1708D02*
X3414Y1699D01*
Y1527*
X3478Y2030D02*
X3476D01*
X3421Y1975*
Y1878*
X3500D02*
Y1710D01*
X3498Y1708*
X3514Y1527D02*
Y1599D01*
X3498Y1615*
Y1708*
X4279Y3098D02*
X4374D01*
X4377Y3100*
X4466Y3641D02*
X4660D01*
X4466D02*
Y3591D01*
Y3641D02*
X4346D01*
X4342Y3638*
X4493Y3091D02*
X4385D01*
X4377Y3100*
X4493Y3141D02*
Y3091D01*
X4660Y3491D02*
X4760D01*
X4771Y3480*
X4687Y2991D02*
X4783D01*
X4800Y2975*
X4687Y3141D02*
X4493D01*
X4771Y1025D02*
X4871D01*
X4893Y1047*
X4984*
X4986Y1049*
X4771Y1125D02*
X4985D01*
X4986Y1124*
X4859Y1870D02*
Y2065D01*
X4905Y2112*
X4986Y1049D02*
X5102D01*
X5104Y1051*
X5173Y2372D02*
X5256D01*
X5310Y2318*
Y1502*
X5215Y1407*
X5031*
X4610Y1828*
X3803*
X3601Y2030*
X3478*
X5601Y1052D02*
X5105D01*
X5104Y1051*
X5601Y1252D02*
X5226D01*
X5104Y1129*
D02*
D96*
X1711Y279D02*
Y438D01*
X1677Y472*
Y712*
X1675Y714*
X1911Y279D02*
Y442D01*
X1968Y500*
Y712*
X1970Y714*
X2111Y279D02*
Y445D01*
X2189Y523*
X2641*
X2832Y714*
X2311Y279D02*
X2964D01*
X3127Y442*
Y714*
X3605D02*
X3423D01*
X3614Y1527D02*
Y723D01*
X3605Y714*
X3838Y690D02*
X3671D01*
X3647Y714*
X3605*
X3838Y765D02*
X3946D01*
X3976Y795*
Y870*
Y570D02*
Y661D01*
X3948Y689*
X3840*
X3838Y690*
X4771Y925D02*
X4535D01*
X4181Y570*
X3976*
X4986Y1124D02*
X4992Y1129D01*
X5104*
X5173Y2372D02*
X5073D01*
D02*
D97*
X4255Y3563D02*
Y3758D01*
X4303Y3805*
X4342Y3563D02*
X4256D01*
X4255Y3563*
X4377Y3025D02*
Y2830D01*
X4377Y2829*
X4466Y3541D02*
X4418D01*
X4397Y3563*
X4342*
X4342Y3563*
X4493Y3041D02*
X4393D01*
X4377Y3025*
X4660Y3541D02*
X4757D01*
X4771Y3555*
X4673Y2472D02*
X4675D01*
X4724Y2423*
X4811*
X4823Y2410*
Y2321*
X4849Y2296*
X4907*
X4933Y2270*
Y2196*
X4687Y3041D02*
X4791D01*
X4800Y3050*
X4771Y3555D02*
Y3572D01*
X5165*
X5166Y3572*
Y3555*
X4800Y3050D02*
Y3070D01*
X5165*
X5166Y3070*
Y3051*
X4858Y2893D02*
X4940Y2976D01*
X4934Y1870D02*
Y2195D01*
X4933Y2196*
X5029Y1870D02*
X4934D01*
X5039Y2067D02*
Y2293D01*
X5022Y2310*
Y2421*
X5073Y2472*
X5088Y3023D02*
X4623Y2558D01*
Y2298*
X4611Y2286*
X4203*
X4173Y2316*
Y2372*
X5104Y1870D02*
Y1619D01*
X5106Y1617*
X5166Y2972D02*
Y3018D01*
X5165Y3019*
X5166Y2479*
X5173Y2472*
X5166Y2972D02*
Y3051D01*
Y3555*
Y3719*
X5167Y3720*
X5241Y2972D02*
X5601D01*
X5242Y3720D02*
X5602D01*
D02*
D150*
X322Y3402D03*
Y3602D03*
X1311Y279D03*
X1511D03*
X1711D03*
X1911D03*
X2111D03*
X2311D03*
X5601Y1052D03*
Y1252D03*
Y1808D03*
Y2008D03*
Y2208D03*
Y2772D03*
Y2972D03*
X5602Y296D03*
Y496D03*
Y3520D03*
Y3720D03*
D02*
D151*
X2311Y411D03*
X5469Y2008D03*
X5469Y2208D03*
D02*
D152*
X715Y2263D03*
X814D03*
X914D03*
X2124Y2267D03*
X2224D03*
X2324D03*
D02*
D153*
X720Y2750D03*
X799D03*
X2055Y2696D03*
X2133D03*
X3421Y1878D03*
X3500D03*
X5104Y1051D03*
Y1129D03*
D02*
D154*
X3973Y2372D03*
Y2472D03*
X4073Y2372D03*
Y2472D03*
X4173Y2372D03*
Y2472D03*
X4273Y2372D03*
Y2472D03*
X4373Y2372D03*
Y2472D03*
X4473Y2372D03*
Y2472D03*
X4573Y2372D03*
Y2472D03*
X4673Y2372D03*
Y2472D03*
X4773Y2372D03*
Y2472D03*
X4873Y2372D03*
Y2472D03*
X4973Y2372D03*
Y2472D03*
X5073Y2372D03*
Y2472D03*
X5173Y2372D03*
Y2472D03*
D02*
D158*
X1078Y3859D03*
D02*
D159*
X1145Y3659D03*
X1212Y3859D03*
X1279Y3659D03*
X1346Y3859D03*
X1413Y3659D03*
X1480Y3859D03*
X1547Y3659D03*
X1614Y3859D03*
X1681Y3659D03*
X1748Y3859D03*
D02*
D161*
X2997Y2723D03*
Y3123D03*
X0Y0D02*
M02*
