%FSLAX23Y23*%
%MOIN*%
G04 EasyPC Gerber Version 17.0 Build 3379 *
%ADD158R,0.05400X0.05400*%
%ADD154R,0.06000X0.06000*%
%ADD150R,0.11024X0.11024*%
%ADD80C,0.00500*%
%ADD81C,0.03200*%
%ADD159C,0.05400*%
%ADD85C,0.05600*%
%ADD161C,0.06000*%
%ADD153C,0.06299*%
%ADD83C,0.06300*%
%ADD152C,0.07000*%
%ADD151C,0.07874*%
%ADD82C,0.11811*%
%ADD84C,0.13780*%
X0Y0D02*
D02*
D80*
X74Y35D02*
X5850D01*
Y3984*
X74*
Y35*
X3725D02*
X3565D01*
Y747*
X3457Y855*
X74*
Y1015*
X3533*
X3725Y823*
Y35*
G36*
X3565*
Y747*
X3457Y855*
X74*
Y1015*
X3533*
X3725Y823*
Y35*
G37*
D02*
D81*
X4083Y2737D03*
X4255Y3563D03*
X4279Y3098D03*
X4287Y3366D03*
X4728Y3208D03*
X4858Y2893D03*
X4905Y2112D03*
X4940Y2976D03*
X4980Y1970D03*
X5039Y2067D03*
X5088Y3023D03*
X5090Y2830D03*
D02*
D82*
X238Y714D03*
X330Y2748D03*
X533Y714D03*
X645Y1401D03*
X759Y3846D03*
X828Y714D03*
X945Y1401D03*
X1124Y714D03*
X1379D03*
X1675D03*
X1970D03*
X2000Y1401D03*
X2133Y3145D03*
X2265Y714D03*
X2300Y1401D03*
X2537Y714D03*
X2832D03*
X3127D03*
X3421Y2346D03*
X3423Y714D03*
X3720Y2830D03*
X3976Y570D03*
Y870D03*
X4275Y2114D03*
X4303Y3805D03*
X4377Y2829D03*
X4543Y2114D03*
X4716Y3805D03*
X5106Y1617D03*
D02*
D83*
X3414Y1527D03*
X3514D03*
X3614D03*
X4771Y925D03*
Y1025D03*
Y1125D03*
D02*
D84*
X299Y2110D03*
X1299D03*
X1704Y2114D03*
X2704D03*
X3007Y1358D03*
X4007D03*
X4602Y523D03*
Y1523D03*
D02*
D85*
X4854Y2673D03*
D02*
D150*
X322Y3402D03*
Y3602D03*
X1311Y279D03*
X1511D03*
X1711D03*
X1911D03*
X2111D03*
X2311D03*
X5601Y1052D03*
Y1252D03*
Y1808D03*
Y2008D03*
Y2208D03*
Y2772D03*
Y2972D03*
X5602Y296D03*
Y496D03*
Y3520D03*
Y3720D03*
D02*
D151*
X2311Y411D03*
X5469Y2008D03*
X5469Y2208D03*
D02*
D152*
X715Y2263D03*
X814D03*
X914D03*
X2124Y2267D03*
X2224D03*
X2324D03*
D02*
D153*
X720Y2750D03*
X799D03*
X2055Y2696D03*
X2133D03*
X3421Y1878D03*
X3500D03*
X5104Y1051D03*
Y1129D03*
D02*
D154*
X3973Y2372D03*
Y2472D03*
X4073Y2372D03*
Y2472D03*
X4173Y2372D03*
Y2472D03*
X4273Y2372D03*
Y2472D03*
X4373Y2372D03*
Y2472D03*
X4473Y2372D03*
Y2472D03*
X4573Y2372D03*
Y2472D03*
X4673Y2372D03*
Y2472D03*
X4773Y2372D03*
Y2472D03*
X4873Y2372D03*
Y2472D03*
X4973Y2372D03*
Y2472D03*
X5073Y2372D03*
Y2472D03*
X5173Y2372D03*
Y2472D03*
D02*
D158*
X1078Y3859D03*
D02*
D159*
X1145Y3659D03*
X1212Y3859D03*
X1279Y3659D03*
X1346Y3859D03*
X1413Y3659D03*
X1480Y3859D03*
X1547Y3659D03*
X1614Y3859D03*
X1681Y3659D03*
X1748Y3859D03*
D02*
D161*
X2997Y2723D03*
Y3123D03*
X0Y0D02*
M02*
