%FSLAX23Y23*%
%MOIN*%
G04 EasyPC Gerber Version 17.0 Build 3379 *
%ADD107R,0.05887X0.06787*%
%ADD114R,0.06187X0.06187*%
%ADD112R,0.06787X0.06787*%
%ADD105R,0.11811X0.11811*%
%ADD103C,0.03987*%
%ADD115C,0.06187*%
%ADD123C,0.06387*%
%ADD117C,0.06787*%
%ADD111C,0.07087*%
%ADD109C,0.07087*%
%ADD108C,0.07787*%
%ADD121R,0.02587X0.02087*%
%ADD119R,0.04787X0.02787*%
%ADD120R,0.05559X0.02787*%
%ADD113R,0.08587X0.02987*%
%ADD106C,0.08661*%
%ADD104C,0.12598*%
%ADD118C,0.14567*%
%ADD122R,0.05587X0.04787*%
%ADD110R,0.06787X0.05887*%
%ADD116R,0.09843X0.07874*%
X0Y0D02*
D02*
D103*
X4083Y2737D03*
X4255Y3563D03*
X4279Y3098D03*
X4287Y3366D03*
X4728Y3208D03*
X4858Y2893D03*
X4905Y2112D03*
X4940Y2976D03*
X4980Y1970D03*
X5039Y2067D03*
X5088Y3023D03*
X5090Y2830D03*
D02*
D104*
X238Y714D03*
X330Y2748D03*
X533Y714D03*
X645Y1401D03*
X759Y3846D03*
X828Y714D03*
X945Y1401D03*
X1124Y714D03*
X1379D03*
X1675D03*
X1970D03*
X2000Y1401D03*
X2133Y3145D03*
X2265Y714D03*
X2300Y1401D03*
X2537Y714D03*
X2832D03*
X3127D03*
X3421Y2346D03*
X3423Y714D03*
X3720Y2830D03*
X3976Y570D03*
Y870D03*
X4275Y2114D03*
X4303Y3805D03*
X4377Y2829D03*
X4543Y2114D03*
X4716Y3805D03*
X5106Y1617D03*
D02*
D105*
X322Y3402D03*
Y3602D03*
X1311Y279D03*
X1511D03*
X1711D03*
X1911D03*
X2111D03*
X2311D03*
X5601Y1052D03*
Y1252D03*
Y1808D03*
Y2008D03*
Y2208D03*
Y2772D03*
Y2972D03*
X5602Y296D03*
Y496D03*
Y3520D03*
Y3720D03*
D02*
D106*
X2311Y411D03*
X5469Y2008D03*
X5469Y2208D03*
D02*
D107*
X722Y2576D03*
X753Y1551D03*
X797Y2576D03*
X828Y1551D03*
X2045Y2531D03*
X2106Y1531D03*
X2120Y2531D03*
X2181Y1531D03*
X2454Y2815D03*
X2496Y3043D03*
X2529Y2815D03*
X2571Y3043D03*
X3423Y1708D03*
X3498D03*
X3753Y3834D03*
X3828D03*
X3911D03*
X3986D03*
X4859Y1870D03*
X4934D03*
X5029D03*
X5104D03*
X5166Y2972D03*
X5167Y3720D03*
X5241Y2972D03*
X5242Y3720D03*
X5297Y496D03*
X5372D03*
D02*
D108*
X715Y2263D03*
X814D03*
X914D03*
X2124Y2267D03*
X2224D03*
X2324D03*
D02*
D109*
X3414Y1527D03*
X3514D03*
X3614D03*
X4771Y925D03*
Y1025D03*
Y1125D03*
D02*
D110*
X2452Y2620D03*
Y2695D03*
X3149Y2761D03*
Y2836D03*
X3838Y690D03*
Y765D03*
X4342Y3563D03*
Y3638D03*
X4377Y3025D03*
Y3100D03*
X4771Y3480D03*
Y3555D03*
X4800Y2975D03*
Y3050D03*
X4986Y1049D03*
Y1124D03*
D02*
D111*
X720Y2750D03*
X799D03*
X2055Y2696D03*
X2133D03*
X3421Y1878D03*
X3500D03*
X5104Y1051D03*
Y1129D03*
D02*
D112*
X3973Y2372D03*
Y2472D03*
X4073Y2372D03*
Y2472D03*
X4173Y2372D03*
Y2472D03*
X4273Y2372D03*
Y2472D03*
X4373Y2372D03*
Y2472D03*
X4473Y2372D03*
Y2472D03*
X4573Y2372D03*
Y2472D03*
X4673Y2372D03*
Y2472D03*
X4773Y2372D03*
Y2472D03*
X4873Y2372D03*
Y2472D03*
X4973Y2372D03*
Y2472D03*
X5073Y2372D03*
Y2472D03*
X5173Y2372D03*
Y2472D03*
D02*
D113*
X4466Y3491D03*
Y3541D03*
Y3591D03*
Y3641D03*
X4493Y2991D03*
Y3041D03*
Y3091D03*
Y3141D03*
X4660Y3491D03*
Y3541D03*
Y3591D03*
Y3641D03*
X4687Y2991D03*
Y3041D03*
Y3091D03*
Y3141D03*
D02*
D114*
X1078Y3859D03*
D02*
D115*
X1145Y3659D03*
X1212Y3859D03*
X1279Y3659D03*
X1346Y3859D03*
X1413Y3659D03*
X1480Y3859D03*
X1547Y3659D03*
X1614Y3859D03*
X1681Y3659D03*
X1748Y3859D03*
D02*
D116*
X2872Y2773D03*
Y2950D03*
X2877Y3049D03*
Y3226D03*
D02*
D117*
X2997Y2723D03*
Y3123D03*
D02*
D118*
X299Y2110D03*
X1299D03*
X1704Y2114D03*
X2704D03*
X3007Y1358D03*
X4007D03*
X4602Y523D03*
Y1523D03*
D02*
D119*
X4834Y2159D03*
Y2234D03*
X4999Y2159D03*
Y2234D03*
D02*
D120*
X4767Y2196D03*
X4933D03*
D02*
D121*
X2260Y2695D03*
X2315D03*
D02*
D122*
X2630Y2617D03*
Y2697D03*
X2717Y2657D03*
D02*
D123*
X4854Y2673D03*
X0Y0D02*
M02*
