%FSLAX23Y23*%
%MOIN*%
G04 EasyPC Gerber Version 17.0 Build 3379 *
%ADD73R,0.07400X0.07400*%
%ADD29R,0.08000X0.08000*%
%ADD20R,0.13024X0.13024*%
%ADD17C,0.02500*%
%ADD19C,0.03600*%
%ADD79C,0.05200*%
%ADD74C,0.07400*%
%AMT72*0 Thermal pad*4,1,6,0.03000,0.00500,0.03000,0.03000,0.00500,0.03000,0.00500,0.04000,0.04000,0.04000,0.04000,0.00500,0.03000,0.00500,0*4,1,6,-0.00500,0.03000,-0.03000,0.03000,-0.03000,0.00500,-0.04000,0.00500,-0.04000,0.04000,-0.00500,0.04000,-0.00500,0.03000,0*4,1,6,-0.03000,-0.00500,-0.03000,-0.03000,-0.00500,-0.03000,-0.00500,-0.04000,-0.04000,-0.04000,-0.04000,-0.00500,-0.03000,-0.00500,0*4,1,6,0.00500,-0.03000,0.03000,-0.03000,0.03000,-0.00500,0.04000,-0.00500,0.04000,-0.04000,0.00500,-0.04000,0.00500,-0.03000,0*%
%ADD72T72*%
%AMT28*0 Thermal pad*4,1,6,0.05512,0.00500,0.05512,0.05512,0.00500,0.05512,0.00500,0.06512,0.06512,0.06512,0.06512,0.00500,0.05512,0.00500,0*4,1,6,-0.00500,0.05512,-0.05512,0.05512,-0.05512,0.00500,-0.06512,0.00500,-0.06512,0.06512,-0.00500,0.06512,-0.00500,0.05512,0*4,1,6,-0.05512,-0.00500,-0.05512,-0.05512,-0.00500,-0.05512,-0.00500,-0.06512,-0.06512,-0.06512,-0.06512,-0.00500,-0.05512,-0.00500,0*4,1,6,0.00500,-0.05512,0.05512,-0.05512,0.05512,-0.00500,0.06512,-0.00500,0.06512,-0.06512,0.00500,-0.06512,0.00500,-0.05512,0*%
%ADD28T28*%
%AMT18*0 Thermal pad*7,0,0,0.05200,0.03200,0.01000,0*%
%ADD18T18*%
%ADD76C,0.08000*%
%ADD26C,0.08299*%
%ADD24C,0.08300*%
%ADD22C,0.09000*%
%ADD21C,0.09874*%
%ADD70C,0.13811*%
%AMT75*0 Thermal pad*7,0,0,0.07400,0.05400,0.01000,0*%
%ADD75T75*%
%AMT78*0 Thermal pad*7,0,0,0.07600,0.05600,0.01000,0*%
%ADD78T78*%
%AMT27*0 Thermal pad*7,0,0,0.08299,0.06299,0.01000,0*%
%ADD27T27*%
%AMT25*0 Thermal pad*7,0,0,0.08300,0.06300,0.01000,0*%
%ADD25T25*%
%AMT23*0 Thermal pad*7,0,0,0.09000,0.07000,0.01000,0*%
%ADD23T23*%
%AMT71*0 Thermal pad*7,0,0,0.13811,0.11811,0.01000,0*%
%ADD71T71*%
%ADD77C,0.15780*%
X0Y0D02*
D02*
D17*
X74Y35D02*
X5850D01*
Y3984*
X74*
Y35*
X3725D02*
X3565D01*
Y747*
X3457Y855*
X74*
Y1015*
X3533*
X3725Y823*
Y35*
G36*
X3565*
Y747*
X3457Y855*
X74*
Y1015*
X3533*
X3725Y823*
Y35*
G37*
D02*
D18*
X4083Y2737D03*
X4287Y3366D03*
X4728Y3208D03*
X4905Y2112D03*
X5090Y2830D03*
D02*
D19*
X5059Y2007D03*
D02*
D70*
X238Y714D03*
X330Y2748D03*
X533Y714D03*
X645Y1401D03*
X759Y3846D03*
X828Y714D03*
X1675D03*
X1970D03*
X2133Y3145D03*
X2265Y714D03*
X2300Y1401D03*
X2832Y714D03*
X3127D03*
X3421Y2346D03*
X3423Y714D03*
X3720Y2830D03*
X3976Y570D03*
X4275Y2114D03*
X4303Y3805D03*
X4377Y2829D03*
X4543Y2114D03*
X5106Y1617D03*
D02*
D71*
X945Y1401D03*
X1124Y714D03*
X1379D03*
X2000Y1401D03*
X2537Y714D03*
X3976Y870D03*
X4716Y3805D03*
D02*
D20*
X322Y3602D03*
X1311Y279D03*
X1511D03*
X1711D03*
X1911D03*
X2111D03*
X2311D03*
X5601Y1252D03*
Y1808D03*
Y2008D03*
Y2208D03*
Y2772D03*
Y2972D03*
X5602Y496D03*
Y3720D03*
D02*
D21*
X2311Y411D03*
X5469Y2008D03*
X5469Y2208D03*
D02*
D22*
X715Y2263D03*
X914D03*
X2124Y2267D03*
X2224D03*
D02*
D23*
X814Y2263D03*
X2324Y2267D03*
D02*
D24*
X3414Y1527D03*
X3614D03*
X4771Y925D03*
Y1125D03*
D02*
D25*
X3514Y1527D03*
X4771Y1025D03*
D02*
D26*
X720Y2750D03*
X2133Y2696D03*
X3421Y1878D03*
X5104Y1129D03*
D02*
D27*
X799Y2750D03*
X2055Y2696D03*
X3500Y1878D03*
X5104Y1051D03*
D02*
D28*
X322Y3402D03*
X5601Y1052D03*
X5602Y296D03*
Y3520D03*
D02*
D29*
X3973Y2372D03*
X4073D03*
Y2472D03*
X4173Y2372D03*
Y2472D03*
X4273D03*
X4373Y2372D03*
Y2472D03*
X4473Y2372D03*
Y2472D03*
X4573D03*
X4673Y2372D03*
Y2472D03*
X4773Y2372D03*
X4873D03*
Y2472D03*
X4973D03*
X5073Y2372D03*
Y2472D03*
X5173Y2372D03*
Y2472D03*
D02*
D72*
X3973D03*
X4273Y2372D03*
X4573D03*
X4773Y2472D03*
X4973Y2372D03*
D02*
D73*
X1078Y3859D03*
D02*
D74*
X1145Y3659D03*
X1212Y3859D03*
X1279Y3659D03*
X1346Y3859D03*
X1480D03*
X1547Y3659D03*
X1614Y3859D03*
X1681Y3659D03*
X1748Y3859D03*
D02*
D75*
X1413Y3659D03*
D02*
D76*
X2997Y2723D03*
Y3123D03*
D02*
D77*
X299Y2110D03*
X1299D03*
X1704Y2114D03*
X2704D03*
X3007Y1358D03*
X4007D03*
X4602Y523D03*
Y1523D03*
D02*
D78*
X4854Y2673D03*
D02*
D79*
X4255Y3563D03*
X4279Y3098D03*
X4858Y2893D03*
X4940Y2976D03*
X4980Y1970D03*
X5039Y2067D03*
X5088Y3023D03*
X0Y0D02*
M02*
