%FSLAX23Y23*%
%MOIN*%
G04 EasyPC Gerber Version 17.0 Build 3379 *
%ADD126C,0.00300*%
%ADD80C,0.00500*%
%ADD125C,0.00600*%
%ADD124C,0.00800*%
X0Y0D02*
D02*
D80*
X74Y35D02*
X5850D01*
Y3984*
X74*
Y35*
X720Y2676D02*
X717Y2673D01*
X714Y2667*
Y2658*
X717Y2651*
X720Y2648*
X726Y2645*
X739*
X745Y2648*
X748Y2651*
X751Y2658*
Y2667*
X748Y2673*
X745Y2676*
X714Y2701D02*
Y2714D01*
Y2708D02*
X751D01*
X745Y2701*
X714Y2751D02*
Y2764D01*
Y2758D02*
X751D01*
X745Y2751*
X920Y1527D02*
X916Y1524D01*
X913Y1518*
Y1508*
X916Y1502*
X920Y1499*
X926Y1496*
X938*
X945Y1499*
X948Y1502*
X951Y1508*
Y1518*
X948Y1524*
X945Y1527*
X916Y1549D02*
X913Y1555D01*
Y1561*
X916Y1568*
X923Y1571*
X929Y1568*
X932Y1561*
Y1555*
Y1561D02*
X935Y1568D01*
X941Y1571*
X948Y1568*
X951Y1561*
Y1555*
X948Y1549*
X1236Y204D02*
Y354D01*
X2236*
Y479*
X2386*
Y204*
X1236*
X1954Y2555D02*
X1957Y2558D01*
X1960Y2564*
Y2574*
X1957Y2580*
X1954Y2583*
X1947Y2586*
X1935*
X1929Y2583*
X1925Y2580*
X1922Y2574*
Y2564*
X1925Y2558*
X1929Y2555*
X1960Y2527D02*
X1957Y2520D01*
X1950Y2514*
X1941Y2511*
X1932*
X1925Y2514*
X1922Y2520*
Y2527*
X1925Y2533*
X1932Y2536*
X1938Y2533*
X1941Y2527*
Y2520*
X1938Y2514*
X1932Y2511*
X2015Y1555D02*
X2018Y1558D01*
X2021Y1564*
Y1574*
X2018Y1580*
X2015Y1583*
X2008Y1586*
X1996*
X1990Y1583*
X1986Y1580*
X1983Y1574*
Y1564*
X1986Y1558*
X1990Y1555*
X2021Y1520D02*
X1983D01*
X2008Y1536*
Y1511*
X2497Y2598D02*
X2535D01*
Y2620*
X2531Y2626*
X2525Y2629*
X2519Y2626*
X2516Y2620*
Y2598*
Y2620D02*
X2497Y2629D01*
Y2673D02*
Y2648D01*
X2519Y2670*
X2525Y2673*
X2531Y2670*
X2535Y2664*
Y2654*
X2531Y2648*
X2516Y2707D02*
Y2714D01*
X2519Y2720*
X2525Y2723*
X2531Y2720*
X2535Y2714*
Y2707*
X2531Y2701*
X2525Y2698*
X2519Y2701*
X2516Y2707*
X2513Y2701*
X2506Y2698*
X2500Y2701*
X2497Y2707*
Y2714*
X2500Y2720*
X2506Y2723*
X2513Y2720*
X2516Y2714*
X2551Y2863D02*
Y2901D01*
X2529*
X2523Y2898*
X2519Y2891*
X2523Y2885*
X2529Y2882*
X2551*
X2529D02*
X2519Y2863D01*
X2476D02*
X2501D01*
X2479Y2885*
X2476Y2891*
X2479Y2898*
X2485Y2901*
X2494*
X2501Y2898*
X2451Y2863D02*
X2426Y2901D01*
X2451*
X2593Y3088D02*
Y3125D01*
X2571*
X2565Y3122*
X2562Y3116*
X2565Y3110*
X2571Y3106*
X2593*
X2571D02*
X2562Y3088D01*
X2537D02*
X2524D01*
X2531D02*
Y3125D01*
X2537Y3119*
X2493Y3091D02*
X2487Y3088D01*
X2477*
X2471Y3091*
X2468Y3097*
Y3100*
X2471Y3106*
X2477Y3110*
X2493*
Y3125*
X2468*
X2736Y2779D02*
Y2751D01*
X2733Y2744*
X2726Y2741*
X2714*
X2708Y2744*
X2705Y2751*
Y2779*
X2661Y2741D02*
X2686D01*
X2664Y2763*
X2661Y2769*
X2664Y2776*
X2670Y2779*
X2680*
X2686Y2776*
X2630Y2741D02*
X2617D01*
X2623D02*
Y2779D01*
X2630Y2772*
X2748Y2587D02*
X2598D01*
Y2727*
X2748*
Y2588*
X2819Y2911D02*
X2925D01*
X2824Y3187D02*
X2931D01*
X2863Y2862D02*
X2825D01*
Y2843*
X2828Y2837*
X2831Y2834*
X2838Y2831*
X2850*
X2856Y2834*
X2860Y2837*
X2863Y2843*
Y2862*
Y2806D02*
Y2793D01*
Y2799D02*
X2825D01*
X2831Y2806*
X2868Y3137D02*
X2831D01*
Y3119*
X2834Y3112*
X2837Y3109*
X2843Y3106*
X2856*
X2862Y3109*
X2865Y3112*
X2868Y3119*
Y3137*
Y3062D02*
Y3087D01*
X2846Y3065*
X2840Y3062*
X2834Y3065*
X2831Y3072*
Y3081*
X2834Y3087*
X2925Y2773D02*
X2819D01*
Y2950*
X2925*
Y2773*
X2921Y2991D02*
X2884D01*
Y2969*
X2887Y2963*
X2893Y2959*
X2899Y2963*
X2903Y2969*
Y2991*
Y2969D02*
X2921Y2959D01*
Y2934D02*
Y2922D01*
Y2928D02*
X2884D01*
X2890Y2934*
X2903Y2881D02*
Y2875D01*
X2899Y2869*
X2893Y2866*
X2887Y2869*
X2884Y2875*
Y2881*
X2887Y2888*
X2893Y2891*
X2899Y2888*
X2903Y2881*
X2906Y2888*
X2912Y2891*
X2918Y2888*
X2921Y2881*
Y2875*
X2918Y2869*
X2912Y2866*
X2906Y2869*
X2903Y2875*
X2931Y3049D02*
X2824D01*
Y3226*
X2931*
Y3049*
X2947Y2823D02*
X3047D01*
Y3023*
X2947*
Y2823*
X2997Y2773D02*
Y2823D01*
Y3023D02*
Y3073D01*
X3066Y2768D02*
X3063Y2764D01*
X3060Y2758*
Y2749*
X3063Y2743*
X3066Y2739*
X3072Y2736*
X3085*
X3091Y2739*
X3094Y2743*
X3097Y2749*
Y2758*
X3094Y2764*
X3091Y2768*
X3060Y2811D02*
Y2786D01*
X3081Y2808*
X3088Y2811*
X3094Y2808*
X3097Y2802*
Y2793*
X3094Y2786*
X3063Y2836D02*
X3060Y2843D01*
Y2852*
X3063Y2858*
X3069Y2861*
X3072*
X3078Y2858*
X3081Y2852*
Y2836*
X3097*
Y2861*
X3589Y1684D02*
X3586Y1681D01*
X3583Y1675*
Y1666*
X3586Y1659*
X3589Y1656*
X3595Y1653*
X3608*
X3614Y1656*
X3617Y1659*
X3620Y1666*
Y1675*
X3617Y1681*
X3614Y1684*
X3583Y1709D02*
Y1722D01*
Y1716D02*
X3620D01*
X3614Y1709*
X3586Y1753D02*
X3583Y1759D01*
Y1769*
X3586Y1775*
X3592Y1778*
X3595*
X3601Y1775*
X3604Y1769*
Y1753*
X3620*
Y1778*
X3850Y3883D02*
Y3920D01*
X3828*
X3822Y3917*
X3819Y3911*
X3822Y3905*
X3828Y3902*
X3850*
X3828D02*
X3819Y3883D01*
X3775D02*
X3800D01*
X3778Y3905*
X3775Y3911*
X3778Y3917*
X3784Y3920*
X3794*
X3800Y3917*
X3734Y3883D02*
Y3920D01*
X3750Y3895*
X3725*
X3862Y857D02*
X3865Y853D01*
X3871Y850*
X3881*
X3887Y853*
X3890Y857*
X3893Y863*
Y875*
X3890Y882*
X3887Y885*
X3881Y888*
X3871*
X3865Y885*
X3862Y882*
X3843Y850D02*
X3818Y888D01*
X3843*
X4007Y3887D02*
Y3924D01*
X3986*
X3979Y3921*
X3976Y3915*
X3979Y3909*
X3986Y3906*
X4007*
X3986D02*
X3976Y3887D01*
X3932D02*
X3957D01*
X3936Y3909*
X3932Y3915*
X3936Y3921*
X3942Y3924*
X3951*
X3957Y3921*
X3904Y3890D02*
X3898Y3887D01*
X3892*
X3886Y3890*
X3882Y3896*
X3886Y3903*
X3892Y3906*
X3898*
X3892D02*
X3886Y3909D01*
X3882Y3915*
X3886Y3921*
X3892Y3924*
X3898*
X3904Y3921*
X4296Y3034D02*
X4293Y3031D01*
X4290Y3025*
Y3016*
X4293Y3009*
X4296Y3006*
X4302Y3003*
X4315*
X4321Y3006*
X4324Y3009*
X4327Y3016*
Y3025*
X4324Y3031*
X4321Y3034*
X4290Y3059D02*
Y3072D01*
Y3066D02*
X4327D01*
X4321Y3059*
X4299Y3103D02*
X4306Y3106D01*
X4309Y3112*
Y3119*
X4306Y3125*
X4299Y3128*
X4293Y3125*
X4290Y3119*
Y3112*
X4293Y3106*
X4299Y3103*
X4309*
X4318Y3106*
X4324Y3112*
X4327Y3119*
X4370Y3492D02*
X4373Y3488D01*
X4379Y3485*
X4389*
X4395Y3488*
X4398Y3492*
X4401Y3498*
Y3510*
X4398Y3517*
X4395Y3520*
X4389Y3523*
X4379*
X4373Y3520*
X4370Y3517*
X4345Y3485D02*
X4332D01*
X4339D02*
Y3523D01*
X4345Y3517*
X4301Y3485D02*
X4276Y3523D01*
X4301*
X4590Y3724D02*
Y3695D01*
X4587Y3689*
X4581Y3686*
X4568*
X4562Y3689*
X4559Y3695*
Y3724*
X4531Y3686D02*
X4524Y3689D01*
X4518Y3695*
X4515Y3705*
Y3714*
X4518Y3720*
X4524Y3724*
X4531*
X4537Y3720*
X4540Y3714*
X4537Y3708*
X4531Y3705*
X4524*
X4518Y3708*
X4515Y3714*
X4624Y3217D02*
Y3189D01*
X4620Y3182*
X4614Y3179*
X4602*
X4595Y3182*
X4592Y3189*
Y3217*
X4564Y3198D02*
X4558D01*
X4552Y3201*
X4549Y3207*
X4552Y3214*
X4558Y3217*
X4564*
X4570Y3214*
X4574Y3207*
X4570Y3201*
X4564Y3198*
X4570Y3195*
X4574Y3189*
X4570Y3182*
X4564Y3179*
X4558*
X4552Y3182*
X4549Y3189*
X4552Y3195*
X4558Y3198*
X4852Y3555D02*
X4855Y3559D01*
X4858Y3565*
Y3574*
X4855Y3580*
X4852Y3584*
X4846Y3587*
X4833*
X4827Y3584*
X4824Y3580*
X4821Y3574*
Y3565*
X4824Y3559*
X4827Y3555*
X4858Y3512D02*
Y3537D01*
X4836Y3515*
X4830Y3512*
X4824Y3515*
X4821Y3521*
Y3530*
X4824Y3537*
X4858Y3480D02*
Y3468D01*
Y3474D02*
X4821D01*
X4827Y3480*
X4876Y3046D02*
X4879Y3049D01*
X4882Y3055*
Y3064*
X4879Y3071*
X4876Y3074*
X4869Y3077*
X4857*
X4851Y3074*
X4848Y3071*
X4844Y3064*
Y3055*
X4848Y3049*
X4851Y3046*
X4882Y3002D02*
Y3027D01*
X4860Y3005*
X4854Y3002*
X4848Y3005*
X4844Y3011*
Y3021*
X4848Y3027*
X4879Y2974D02*
X4882Y2967D01*
Y2961*
X4879Y2955*
X4873Y2952*
X4854*
X4848Y2955*
X4844Y2961*
Y2967*
X4848Y2974*
X4854Y2977*
X4873*
X4879Y2974*
X4848Y2955*
X4974Y911D02*
X4971Y908D01*
X4968Y901*
Y892*
X4971Y886*
X4974Y883*
X4980Y879*
X4993*
X4999Y883*
X5002Y886*
X5005Y892*
Y901*
X5002Y908*
X4999Y911*
X4968Y936D02*
Y948D01*
Y942D02*
X5005D01*
X4999Y936*
X4971Y983D02*
X4968Y989D01*
Y995*
X4971Y1001*
X4977Y1004*
X4983Y1001*
X4986Y995*
Y989*
Y995D02*
X4990Y1001D01*
X4996Y1004*
X5002Y1001*
X5005Y995*
Y989*
X5002Y983*
X4959Y1918D02*
Y1956D01*
X4937*
X4931Y1953*
X4928Y1947*
X4931Y1940*
X4937Y1937*
X4959*
X4937D02*
X4928Y1918D01*
X4884D02*
X4909D01*
X4887Y1940*
X4884Y1947*
X4887Y1953*
X4894Y1956*
X4903*
X4909Y1953*
X4859Y1922D02*
X4853Y1918D01*
X4844*
X4837Y1922*
X4834Y1928*
Y1931*
X4837Y1937*
X4844Y1940*
X4859*
Y1956*
X4834*
X5122Y3702D02*
Y3739D01*
X5100*
X5093Y3736*
X5090Y3730*
X5093Y3724*
X5100Y3721*
X5122*
X5100D02*
X5090Y3702D01*
X5056D02*
Y3739D01*
X5072Y3714*
X5047*
X5129Y1919D02*
Y1957D01*
X5108*
X5101Y1954*
X5098Y1948*
X5101Y1941*
X5108Y1938*
X5129*
X5108D02*
X5098Y1919D01*
X5054D02*
X5079D01*
X5058Y1941*
X5054Y1948*
X5058Y1954*
X5064Y1957*
X5073*
X5079Y1954*
X5029Y1929D02*
X5026Y1935D01*
X5020Y1938*
X5014*
X5008Y1935*
X5004Y1929*
X5008Y1923*
X5014Y1919*
X5020*
X5026Y1923*
X5029Y1929*
Y1938*
X5026Y1948*
X5020Y1954*
X5014Y1957*
X5134Y2921D02*
Y2884D01*
X5156*
X5162Y2887*
X5166Y2893*
X5162Y2899*
X5156Y2903*
X5134*
X5156D02*
X5166Y2921D01*
X5191D02*
X5203D01*
X5197D02*
Y2884D01*
X5191Y2890*
X5241Y2921D02*
X5253D01*
X5247D02*
Y2884D01*
X5241Y2890*
X5212Y551D02*
X5174D01*
Y529*
X5177Y523*
X5184Y519*
X5190Y523*
X5193Y529*
Y551*
Y529D02*
X5212Y519D01*
Y494D02*
Y482D01*
Y488D02*
X5174D01*
X5181Y494*
X5212Y451D02*
X5174Y426D01*
Y451*
D02*
D124*
X827Y2541D02*
Y2611D01*
X691*
Y2541*
X827*
X859Y1516D02*
Y1586D01*
X723*
Y1516*
X859*
X2014Y2566D02*
Y2496D01*
X2150*
Y2566*
X2014*
X2075Y1566D02*
Y1496D01*
X2211*
Y1566*
X2075*
X2417Y2589D02*
X2487D01*
Y2725*
X2417*
Y2589*
X2560Y2780D02*
Y2850D01*
X2424*
Y2780*
X2560*
X2602Y3008D02*
Y3078D01*
X2466*
Y3008*
X2602*
X3114Y2730D02*
X3184D01*
Y2866*
X3114*
Y2730*
X3528Y1673D02*
Y1743D01*
X3392*
Y1673*
X3528*
X3859Y3799D02*
Y3869D01*
X3723*
Y3799*
X3859*
X3873Y796D02*
X3803D01*
Y660*
X3873*
Y796*
X4016Y3799D02*
Y3869D01*
X3880*
Y3799*
X4016*
X4307Y3532D02*
X4377D01*
Y3668*
X4307*
Y3532*
X4342Y2995D02*
X4412D01*
Y3131*
X4342*
Y2995*
X4806Y3586D02*
X4736D01*
Y3450*
X4806*
Y3586*
X4835Y3080D02*
X4765D01*
Y2944*
X4835*
Y3080*
X4951Y1018D02*
X5021D01*
Y1154*
X4951*
Y1018*
X4964Y1835D02*
Y1905D01*
X4828*
Y1835*
X4964*
X5134D02*
Y1905D01*
X4998*
Y1835*
X5134*
X5135Y3007D02*
Y2937D01*
X5271*
Y3007*
X5135*
X5136Y3755D02*
Y3685D01*
X5272*
Y3755*
X5136*
X5266Y531D02*
Y461D01*
X5402*
Y531*
X5266*
D02*
D125*
X2280Y2708D02*
X2294D01*
Y2682D02*
X2280D01*
X4508Y3665D02*
X4617D01*
X4536Y3165D02*
X4644D01*
X4575Y3665D02*
G75*
G02X4551I-12D01*
G01*
X4602Y3165D02*
G75*
G02X4578I-12D01*
G01*
X4617Y3468D02*
X4508D01*
X4644Y2968D02*
X4536D01*
X4771Y2220D02*
Y2255D01*
X4808*
Y2137D02*
X4771D01*
Y2173*
X4826Y2211D02*
Y2182D01*
X4937Y2220D02*
Y2255D01*
X4973*
Y2137D02*
X4937D01*
Y2173*
X4992Y2211D02*
Y2182D01*
D02*
D126*
X2358Y2763D02*
Y2735D01*
X2355Y2729*
X2348Y2725*
X2336*
X2330Y2729*
X2327Y2735*
Y2763*
X2283Y2725D02*
X2308D01*
X2286Y2747*
X2283Y2754*
X2286Y2760*
X2292Y2763*
X2302*
X2308Y2760*
X2255Y2729D02*
X2248Y2725D01*
X2242*
X2236Y2729*
X2233Y2735*
Y2754*
X2236Y2760*
X2242Y2763*
X2248*
X2255Y2760*
X2258Y2754*
Y2735*
X2255Y2729*
X2236Y2760*
X2364Y2692D02*
X2339D01*
X2358Y2679D02*
X2345Y2704D01*
X2358D02*
X2345Y2679D01*
X4670Y3709D02*
X4645D01*
X4663Y3697D02*
X4651Y3722D01*
X4663D02*
X4651Y3697D01*
X4697Y3209D02*
X4672D01*
X4691Y3197D02*
X4678Y3222D01*
X4691D02*
X4678Y3197D01*
X4834Y2310D02*
Y2282D01*
X4831Y2276*
X4825Y2273*
X4812*
X4806Y2276*
X4803Y2282*
Y2310*
X4784Y2282D02*
X4781Y2288D01*
X4775Y2291*
X4769*
X4762Y2288*
X4759Y2282*
X4762Y2276*
X4769Y2273*
X4775*
X4781Y2276*
X4784Y2282*
Y2291*
X4781Y2301*
X4775Y2307*
X4769Y2310*
X5023Y2306D02*
Y2278D01*
X5020Y2272*
X5014Y2269*
X5001*
X4995Y2272*
X4992Y2278*
Y2306*
X4967Y2269D02*
X4954D01*
X4961D02*
Y2306D01*
X4967Y2300*
X4914Y2269D02*
X4908Y2272D01*
X4901Y2278*
X4898Y2288*
Y2297*
X4901Y2303*
X4908Y2306*
X4914*
X4920Y2303*
X4923Y2297*
X4920Y2291*
X4914Y2288*
X4908*
X4901Y2291*
X4898Y2297*
X0Y0D02*
M02*
