%FSLAX23Y23*%
%MOIN*%
G04 EasyPC Gerber Version 17.0 Build 3379 *
%ADD10R,0.01600X0.04200*%
%ADD16R,0.01800X0.05900*%
%ADD12R,0.01800X0.07400*%
%ADD13R,0.03600X0.04400*%
%ADD14R,0.04700X0.05600*%
%ADD15R,0.04400X0.03600*%
%ADD11R,0.05600X0.04700*%
X0Y0D02*
D02*
D10*
X5092Y2068D03*
Y2152D03*
X5129Y2068D03*
Y2152D03*
X5167Y2068D03*
Y2152D03*
D02*
D11*
X2996Y3474D03*
Y3549D03*
X3816Y3310D03*
Y3385D03*
X3876Y2643D03*
Y2718D03*
X3995Y2941D03*
Y3016D03*
X4064Y3562D03*
Y3637D03*
X4171Y3562D03*
Y3637D03*
X4186Y3294D03*
Y3369D03*
X4187Y3103D03*
Y3178D03*
X4377Y3037D03*
Y3112D03*
X4720Y3446D03*
Y3521D03*
X4973Y2051D03*
Y2126D03*
X4982Y3370D03*
Y3445D03*
X5094Y3198D03*
Y3273D03*
Y3368D03*
Y3443D03*
X5267Y2072D03*
Y2147D03*
D02*
D12*
X3995Y2643D03*
Y2829D03*
X4045Y2643D03*
Y2829D03*
X4095Y2643D03*
Y2829D03*
X4145Y2643D03*
Y2829D03*
D02*
D13*
X4475Y3117D03*
X4515Y3030D03*
X4517Y3393D03*
X4555Y3117D03*
X4557Y3306D03*
X4597Y3393D03*
X4641Y3114D03*
X4681Y3027D03*
X4721Y3114D03*
X4806D03*
X4846Y3027D03*
X4886Y3114D03*
X5152Y2830D03*
X5192Y2743D03*
X5232Y2830D03*
D02*
D14*
X3904Y3566D03*
X3979D03*
X3996Y3117D03*
X4071D03*
X4285Y3212D03*
X4360D03*
X4478D03*
X4553D03*
X4602Y2754D03*
X4677D03*
X4684Y2892D03*
X4759D03*
X4767Y2754D03*
X4807Y3448D03*
X4835Y3643D03*
X4842Y2754D03*
X4882Y3448D03*
X4910Y3643D03*
X4927Y2649D03*
X5002D03*
X5133Y2248D03*
X5208D03*
D02*
D15*
X4801Y3271D03*
Y3351D03*
X4888Y3311D03*
X4927Y2742D03*
Y2822D03*
X5014Y2782D03*
D02*
D16*
X3945Y3247D03*
Y3456D03*
X3995Y3247D03*
Y3456D03*
X4045Y3247D03*
Y3456D03*
X4095Y3247D03*
Y3456D03*
X0Y0D02*
M02*
