%FSLAX23Y23*%
%MOIN*%
G04 EasyPC Gerber Version 17.0 Build 3379 *
%ADD130R,0.02787X0.05387*%
%ADD133R,0.02987X0.07087*%
%ADD131R,0.02987X0.08587*%
%ADD132R,0.04787X0.05587*%
%ADD107R,0.05887X0.06787*%
%ADD114R,0.06187X0.06187*%
%ADD112R,0.06787X0.06787*%
%ADD105R,0.11811X0.11811*%
%ADD103C,0.03987*%
%ADD115C,0.06187*%
%ADD123C,0.06387*%
%ADD117C,0.06787*%
%ADD111C,0.07087*%
%ADD109C,0.07087*%
%ADD108C,0.07787*%
%ADD106C,0.08661*%
%ADD104C,0.12598*%
%ADD118C,0.14567*%
%ADD122R,0.05587X0.04787*%
%ADD110R,0.06787X0.05887*%
X0Y0D02*
D02*
D103*
X4083Y2737D03*
X4255Y3563D03*
X4279Y3098D03*
X4287Y3366D03*
X4728Y3208D03*
X4858Y2893D03*
X4905Y2112D03*
X4940Y2976D03*
X4980Y1970D03*
X5039Y2067D03*
X5088Y3023D03*
X5090Y2830D03*
D02*
D104*
X238Y714D03*
X330Y2748D03*
X533Y714D03*
X645Y1401D03*
X759Y3846D03*
X828Y714D03*
X945Y1401D03*
X1124Y714D03*
X1379D03*
X1675D03*
X1970D03*
X2000Y1401D03*
X2133Y3145D03*
X2265Y714D03*
X2300Y1401D03*
X2537Y714D03*
X2832D03*
X3127D03*
X3421Y2346D03*
X3423Y714D03*
X3720Y2830D03*
X3976Y570D03*
Y870D03*
X4275Y2114D03*
X4303Y3805D03*
X4377Y2829D03*
X4543Y2114D03*
X4716Y3805D03*
X5106Y1617D03*
D02*
D105*
X322Y3402D03*
Y3602D03*
X1311Y279D03*
X1511D03*
X1711D03*
X1911D03*
X2111D03*
X2311D03*
X5601Y1052D03*
Y1252D03*
Y1808D03*
Y2008D03*
Y2208D03*
Y2772D03*
Y2972D03*
X5602Y296D03*
Y496D03*
Y3520D03*
Y3720D03*
D02*
D106*
X2311Y411D03*
X5469Y2008D03*
X5469Y2208D03*
D02*
D107*
X3904Y3566D03*
X3979D03*
X3996Y3117D03*
X4071D03*
X4285Y3212D03*
X4360D03*
X4478D03*
X4553D03*
X4602Y2754D03*
X4677D03*
X4684Y2892D03*
X4759D03*
X4767Y2754D03*
X4807Y3448D03*
X4835Y3643D03*
X4842Y2754D03*
X4882Y3448D03*
X4910Y3643D03*
X4927Y2649D03*
X5002D03*
X5133Y2248D03*
X5208D03*
D02*
D108*
X715Y2263D03*
X814D03*
X914D03*
X2124Y2267D03*
X2224D03*
X2324D03*
D02*
D109*
X3414Y1527D03*
X3514D03*
X3614D03*
X4771Y925D03*
Y1025D03*
Y1125D03*
D02*
D110*
X2996Y3474D03*
Y3549D03*
X3816Y3310D03*
Y3385D03*
X3876Y2643D03*
Y2718D03*
X3995Y2941D03*
Y3016D03*
X4064Y3562D03*
Y3637D03*
X4171Y3562D03*
Y3637D03*
X4186Y3294D03*
Y3369D03*
X4187Y3103D03*
Y3178D03*
X4377Y3037D03*
Y3112D03*
X4720Y3446D03*
Y3521D03*
X4973Y2051D03*
Y2126D03*
X4982Y3370D03*
Y3445D03*
X5094Y3198D03*
Y3273D03*
Y3368D03*
Y3443D03*
X5267Y2072D03*
Y2147D03*
D02*
D111*
X720Y2750D03*
X799D03*
X2055Y2696D03*
X2133D03*
X3421Y1878D03*
X3500D03*
X5104Y1051D03*
Y1129D03*
D02*
D112*
X3973Y2372D03*
Y2472D03*
X4073Y2372D03*
Y2472D03*
X4173Y2372D03*
Y2472D03*
X4273Y2372D03*
Y2472D03*
X4373Y2372D03*
Y2472D03*
X4473Y2372D03*
Y2472D03*
X4573Y2372D03*
Y2472D03*
X4673Y2372D03*
Y2472D03*
X4773Y2372D03*
Y2472D03*
X4873Y2372D03*
Y2472D03*
X4973Y2372D03*
Y2472D03*
X5073Y2372D03*
Y2472D03*
X5173Y2372D03*
Y2472D03*
D02*
D114*
X1078Y3859D03*
D02*
D115*
X1145Y3659D03*
X1212Y3859D03*
X1279Y3659D03*
X1346Y3859D03*
X1413Y3659D03*
X1480Y3859D03*
X1547Y3659D03*
X1614Y3859D03*
X1681Y3659D03*
X1748Y3859D03*
D02*
D117*
X2997Y2723D03*
Y3123D03*
D02*
D118*
X299Y2110D03*
X1299D03*
X1704Y2114D03*
X2704D03*
X3007Y1358D03*
X4007D03*
X4602Y523D03*
Y1523D03*
D02*
D122*
X4801Y3271D03*
Y3351D03*
X4888Y3311D03*
X4927Y2742D03*
Y2822D03*
X5014Y2782D03*
D02*
D123*
X4854Y2673D03*
D02*
D130*
X5092Y2068D03*
Y2152D03*
X5129Y2068D03*
Y2152D03*
X5167Y2068D03*
Y2152D03*
D02*
D131*
X3995Y2643D03*
Y2829D03*
X4045Y2643D03*
Y2829D03*
X4095Y2643D03*
Y2829D03*
X4145Y2643D03*
Y2829D03*
D02*
D132*
X4475Y3117D03*
X4515Y3030D03*
X4517Y3393D03*
X4555Y3117D03*
X4557Y3306D03*
X4597Y3393D03*
X4641Y3114D03*
X4681Y3027D03*
X4721Y3114D03*
X4806D03*
X4846Y3027D03*
X4886Y3114D03*
X5152Y2830D03*
X5192Y2743D03*
X5232Y2830D03*
D02*
D133*
X3945Y3247D03*
Y3456D03*
X3995Y3247D03*
Y3456D03*
X4045Y3247D03*
Y3456D03*
X4095Y3247D03*
Y3456D03*
X0Y0D02*
M02*
