%FSLAX33Y33*%
%MOMM*%
G04 EasyPC Gerber Version 17.0 Build 3379 *
%ADD15C,0.07620*%
%ADD11C,0.12700*%
%ADD14C,0.15240*%
%ADD16C,0.20320*%
%ADD12C,0.25400*%
%ADD13C,0.30480*%
X0Y0D02*
D02*
D11*
X64Y889D02*
X146039D01*
Y100839*
X64*
Y889*
X989Y21046D02*
X29289D01*
Y15246*
X2489*
X989Y16746*
Y21046*
X1928Y23281D02*
X2087Y23202D01*
X2166Y23043*
X2087Y22884*
X1928Y22805*
X1373*
Y23757*
X1928*
X2087Y23678*
X2166Y23519*
X2087Y23361*
X1928Y23281*
X1373*
X2643Y22805D02*
Y23757D01*
X3198*
X3357Y23678*
X3436Y23519*
X3357Y23361*
X3198Y23281*
X2643*
X3198D02*
X3436Y22805D01*
X4071D02*
X4389D01*
X4230D02*
Y23757D01*
X4071Y23599*
X2213Y67927D02*
Y68880D01*
X2610Y68403*
X3007Y68880*
Y67927*
X3484Y68165D02*
X3563Y68007D01*
X3722Y67927*
X3880*
X4039Y68007*
X4119Y68165*
Y68324*
X4039Y68483*
X3880Y68562*
X3722*
X3563Y68483*
X3484Y68324*
Y68165*
X4912Y68562D02*
X5230D01*
X5071Y68721D02*
Y68007D01*
X5150Y67927*
X5230*
X5309Y68007*
X6024Y68165D02*
X6103Y68007D01*
X6262Y67927*
X6420*
X6579Y68007*
X6659Y68165*
Y68324*
X6579Y68483*
X6420Y68562*
X6262*
X6103Y68483*
X6024Y68324*
Y68165*
X7294Y67927D02*
Y68562D01*
Y68324D02*
X7373Y68483D01*
X7532Y68562*
X7690*
X7849Y68483*
X6343Y38085D02*
X6978D01*
X6661Y37767D02*
Y38402D01*
X11907Y46736D02*
X11828Y46657D01*
X11669Y46577*
X11431*
X11272Y46657*
X11193Y46736*
X11114Y46895*
Y47212*
X11193Y47371*
X11272Y47450*
X11431Y47530*
X11669*
X11828Y47450*
X11907Y47371*
X12542Y46577D02*
X12860D01*
X12701D02*
Y47530D01*
X12542Y47371*
X11414Y25789D02*
G75*
G03Y44204J9207D01*
G01*
G75*
G03Y25789J-9207*
G01*
X19157Y7736D02*
X19078Y7657D01*
X18919Y7577*
X18681*
X18522Y7657*
X18443Y7736*
X18364Y7895*
Y8212*
X18443Y8371*
X18522Y8450*
X18681Y8530*
X18919*
X19078Y8450*
X19157Y8371*
X19634Y7895D02*
Y8212D01*
X19713Y8371*
X19792Y8450*
X19951Y8530*
X20110*
X20269Y8450*
X20348Y8371*
X20427Y8212*
Y7895*
X20348Y7736*
X20269Y7657*
X20110Y7577*
X19951*
X19792Y7657*
X19713Y7736*
X19634Y7895*
X20904Y7577D02*
Y8530D01*
X21697Y7577*
Y8530*
X22174Y7577D02*
Y8530D01*
X22967Y7577*
Y8530*
X23602Y7577D02*
X23920D01*
X23761D02*
Y8530D01*
X23602Y8371*
X25902Y85989D02*
X26854D01*
Y85433*
X26775Y85275*
X26616Y85195*
X26457Y85275*
X26378Y85433*
Y85989*
Y85433D02*
X25902Y85195D01*
Y84084D02*
Y84719D01*
X26457Y84163*
X26616Y84084*
X26775Y84163*
X26854Y84322*
Y84560*
X26775Y84719*
X25902Y83211D02*
X25981Y83052D01*
X26140Y82893*
X26378Y82814*
X26616*
X26775Y82893*
X26854Y83052*
Y83211*
X26775Y83370*
X26616Y83449*
X26457Y83370*
X26378Y83211*
Y83052*
X26457Y82893*
X26616Y82814*
X25902Y90239D02*
X26854D01*
Y89683*
X26775Y89525*
X26616Y89445*
X26457Y89525*
X26378Y89683*
Y90239*
Y89683D02*
X25902Y89445D01*
Y88810D02*
Y88493D01*
Y88652D02*
X26854D01*
X26695Y88810*
X26140Y87699D02*
X26299Y87620D01*
X26378Y87461*
Y87302*
X26299Y87143*
X26140Y87064*
X25981Y87143*
X25902Y87302*
Y87461*
X25981Y87620*
X26140Y87699*
X26378*
X26616Y87620*
X26775Y87461*
X26854Y87302*
X26364Y71439D02*
X29064D01*
Y74939D02*
X26364D01*
Y70439*
X29064*
Y74939*
X29144Y38185D02*
X29779D01*
X29461Y37867D02*
Y38502D01*
X29989Y21046D02*
X58289D01*
Y15246*
X31489*
X29989Y16746*
Y21046*
X30227Y74089D02*
X31179D01*
Y73613*
X31100Y73454*
X31020Y73375*
X30862Y73295*
X30544*
X30385Y73375*
X30306Y73454*
X30227Y73613*
Y74089*
Y72184D02*
Y72819D01*
X30782Y72263*
X30941Y72184*
X31100Y72263*
X31179Y72422*
Y72660*
X31100Y72819*
X30957Y86186D02*
X30878Y86107D01*
X30719Y86027*
X30481*
X30322Y86107*
X30243Y86186*
X30164Y86345*
Y86662*
X30243Y86821*
X30322Y86900*
X30481Y86980*
X30719*
X30878Y86900*
X30957Y86821*
X32069Y86027D02*
X31434D01*
X31989Y86583*
X32069Y86742*
X31989Y86900*
X31830Y86980*
X31592*
X31434Y86900*
X33100Y86027D02*
Y86980D01*
X32703Y86345*
X33339*
X30928Y23281D02*
X31087Y23202D01*
X31166Y23043*
X31087Y22884*
X30928Y22805*
X30372*
Y23757*
X30928*
X31087Y23678*
X31166Y23519*
X31087Y23361*
X30928Y23281*
X30372*
X31642Y22805D02*
Y23757D01*
X32198*
X32357Y23678*
X32436Y23519*
X32357Y23361*
X32198Y23281*
X31642*
X32198D02*
X32436Y22805D01*
X33548D02*
X32913D01*
X33468Y23361*
X33548Y23519*
X33468Y23678*
X33309Y23757*
X33071*
X32913Y23678*
X33707Y46686D02*
X33628Y46607D01*
X33469Y46527*
X33231*
X33072Y46607*
X32993Y46686*
X32914Y46845*
Y47162*
X32993Y47321*
X33072Y47400*
X33231Y47480*
X33469*
X33628Y47400*
X33707Y47321*
X34184Y46607D02*
X34342Y46527D01*
X34580*
X34739Y46607*
X34819Y46765*
Y46845*
X34739Y47003*
X34580Y47083*
X34184*
Y47480*
X34819*
X34214Y25889D02*
G75*
G03Y44304J9207D01*
G01*
G75*
G03Y25889J-9207*
G01*
X45210Y91927D02*
Y92880D01*
X44814D02*
X45607D01*
X46084Y91927D02*
Y92880D01*
X46639*
X46798Y92800*
X46877Y92642*
X46798Y92483*
X46639Y92403*
X46084*
X47989Y91927D02*
X47353D01*
X47909Y92483*
X47989Y92642*
X47909Y92800*
X47750Y92880*
X47512*
X47353Y92800*
X48703Y92007D02*
X48862Y91927D01*
X49020*
X49179Y92007*
X49258Y92165*
X49179Y92324*
X49020Y92403*
X48862*
X49020D02*
X49179Y92483D01*
X49258Y92642*
X49179Y92800*
X49020Y92880*
X48862*
X48703Y92800*
X51539Y61824D02*
X58039Y54649D01*
X51549Y31489D02*
G75*
G03X52199Y32139I325J325D01*
G01*
G75*
G03X51549Y31489I-325J-325*
G01*
Y36275D02*
G75*
G03X52515Y36530I484J128D01*
G01*
G75*
G03X51549Y36275I-483J-128*
G01*
Y57603D02*
G75*
G03X52515Y57348I484J-128D01*
G01*
G75*
G03X51549Y57603I-483J128*
G01*
Y62389D02*
G75*
G03X52199Y61739I325J-325D01*
G01*
G75*
G03X51549Y62389I-325J325*
G01*
X51559Y32119D02*
X58044Y39229D01*
X51564Y97324D02*
X58064Y90149D01*
X51574Y66989D02*
G75*
G03X52224Y67639I325J325D01*
G01*
G75*
G03X51574Y66989I-325J-325*
G01*
Y71775D02*
G75*
G03X52540Y72030I484J128D01*
G01*
G75*
G03X51574Y71775I-483J-128*
G01*
Y93103D02*
G75*
G03X52540Y92848I484J-128D01*
G01*
G75*
G03X51574Y93103I-483J128*
G01*
Y97889D02*
G75*
G03X52224Y97239I325J-325D01*
G01*
G75*
G03X51574Y97889I-325J325*
G01*
X51584Y67619D02*
X58068Y74729D01*
X51999Y56969D02*
X58039Y54634D01*
X64189Y56984*
X52024Y92469D02*
X58064Y90134D01*
X64214Y92484*
X52033Y57984D02*
X59544Y56289D01*
Y56284*
X52059Y35914D02*
X59629Y37564D01*
X52059Y93484D02*
X59568Y91789D01*
Y91784*
X52074Y31414D02*
X55049Y31939D01*
X55699Y29764*
X52084Y71414D02*
X59653Y73064D01*
X52099Y66914D02*
X55074Y67439D01*
X55724Y65264*
X52149Y62414D02*
X55099Y61914D01*
X55674Y64264*
X55749Y64289*
X52174Y97914D02*
X55124Y97414D01*
X55699Y99764*
X55774Y99789*
X56054Y48139D02*
X55340D01*
X55181Y48060*
X55102Y47901*
Y47583*
X55181Y47425*
X55340Y47345*
X56054*
X55102Y46234D02*
Y46869D01*
X55657Y46313*
X55816Y46234*
X55975Y46313*
X56054Y46472*
Y46710*
X55975Y46869*
X56154Y83889D02*
X55440D01*
X55281Y83810*
X55202Y83651*
Y83333*
X55281Y83175*
X55440Y83095*
X56154*
X55202Y82460D02*
Y82143D01*
Y82302D02*
X56154D01*
X55995Y82460*
X56003Y29299D02*
G75*
G03X56385Y30223I191J462D01*
G01*
G75*
G03X56003Y29299I-191J-462*
G01*
Y64579D02*
G75*
G03X56412Y63591I205J-494D01*
G01*
G75*
G03X56003Y64579I-205J494*
G01*
X56028Y64799D02*
G75*
G03X56410Y65723I191J462D01*
G01*
G75*
G03X56028Y64799I-191J-462*
G01*
Y100079D02*
G75*
G03X56437Y99091I205J-494D01*
G01*
G75*
G03X56028Y100079I-205J494*
G01*
X56674Y29764D02*
X58049Y30939D01*
X59374Y29789*
X56699Y65264D02*
X58074Y66439D01*
X59399Y65289*
X56724Y64139D02*
X58049Y62939D01*
X59424Y64189*
X56749Y99639D02*
X58074Y98439D01*
X59449Y99689*
X57218Y39239D02*
X52078D01*
G75*
G03X51599Y38759J-480*
G01*
Y38729*
G75*
G03X52089Y38239I490*
G01*
X53759*
G75*
G02X54059Y37939J-300*
G01*
Y37769*
G75*
G02X53968Y37679I-90*
G01*
X51799Y36849*
X51599Y36639*
X51528Y36459*
X51568Y36209*
X51709Y36019*
X51968Y35919*
X52209Y35929*
X55749Y36729*
X51519Y32089*
X51419Y31919*
X51428Y31719*
X51509Y31519*
X51699Y31399*
X51899Y31349*
X55039Y31929*
X55728Y29579*
X55859Y29389*
X56009Y29289*
X56239Y29259*
X56439Y29309*
X56559Y29429*
X58039Y30939*
X59589Y29339*
X59839Y29259*
X60068Y29279*
X60249Y29399*
X60379Y29579*
X61039Y31939*
X64149Y31379*
X64359*
X64539Y31489*
X64678Y31729*
X64659Y31919*
X64439Y32219*
X60299Y36759*
X64058Y35899*
X64318Y35959*
X64478Y36109*
X64549Y36409*
X64478Y36669*
X64239Y36859*
X62618Y37489*
X62158Y37749*
X62049Y37859*
X62028Y37979*
X62039Y38029*
X62078Y38089*
X62158Y38159*
X62289Y38229*
X63978Y38219*
G75*
G03X64509Y38749J530*
G01*
Y38769*
G75*
G03X64039Y39239I-470*
G01*
X58928*
G75*
G02X58849Y39319J80*
G01*
Y46959*
G75*
G03X58839Y46969I-10*
G01*
X57239*
G75*
G03X57228Y46959J-10*
G01*
Y39289*
G75*
G02X57178Y39239I-50*
G01*
X56949*
X57218*
G36*
X52078*
G75*
G03X51599Y38759J-480*
G01*
Y38729*
G75*
G03X52089Y38239I490*
G01*
X53759*
G75*
G02X54059Y37939J-300*
G01*
Y37769*
G75*
G02X53968Y37679I-90*
G01*
X51799Y36849*
X51599Y36639*
X51528Y36459*
X51568Y36209*
X51709Y36019*
X51968Y35919*
X52209Y35929*
X55749Y36729*
X51519Y32089*
X51419Y31919*
X51428Y31719*
X51509Y31519*
X51699Y31399*
X51899Y31349*
X55039Y31929*
X55728Y29579*
X55859Y29389*
X56009Y29289*
X56239Y29259*
X56439Y29309*
X56559Y29429*
X58039Y30939*
X59589Y29339*
X59839Y29259*
X60068Y29279*
X60249Y29399*
X60379Y29579*
X61039Y31939*
X64149Y31379*
X64359*
X64539Y31489*
X64678Y31729*
X64659Y31919*
X64439Y32219*
X60299Y36759*
X64058Y35899*
X64318Y35959*
X64478Y36109*
X64549Y36409*
X64478Y36669*
X64239Y36859*
X62618Y37489*
X62158Y37749*
X62049Y37859*
X62028Y37979*
X62039Y38029*
X62078Y38089*
X62158Y38159*
X62289Y38229*
X63978Y38219*
G75*
G03X64509Y38749J530*
G01*
Y38769*
G75*
G03X64039Y39239I-470*
G01*
X58928*
G75*
G02X58849Y39319J80*
G01*
Y46959*
G75*
G03X58839Y46969I-10*
G01*
X57239*
G75*
G03X57228Y46959J-10*
G01*
Y39289*
G75*
G02X57178Y39239I-50*
G01*
X56949*
X57218*
G37*
X57243Y54839D02*
Y39039D01*
Y74739D02*
X52103D01*
G75*
G03X51624Y74259J-480*
G01*
Y74229*
G75*
G03X52114Y73739I490*
G01*
X53783*
G75*
G02X54084Y73439J-300*
G01*
Y73269*
G75*
G02X53993Y73179I-90*
G01*
X51824Y72349*
X51624Y72139*
X51553Y71959*
X51593Y71709*
X51734Y71519*
X51993Y71419*
X52234Y71429*
X55774Y72229*
X51544Y67589*
X51443Y67419*
X51453Y67219*
X51533Y67019*
X51724Y66899*
X51924Y66849*
X55064Y67429*
X55754Y65079*
X55884Y64889*
X56033Y64789*
X56264Y64759*
X56464Y64809*
X56584Y64929*
X58064Y66439*
X59614Y64839*
X59864Y64759*
X60093Y64779*
X60274Y64899*
X60403Y65079*
X61064Y67439*
X64174Y66879*
X64384*
X64564Y66989*
X64704Y67229*
X64683Y67419*
X64464Y67719*
X60324Y72259*
X64084Y71399*
X64344Y71459*
X64504Y71609*
X64573Y71909*
X64504Y72169*
X64264Y72359*
X62644Y72989*
X62184Y73249*
X62074Y73359*
X62053Y73479*
X62064Y73529*
X62103Y73589*
X62184Y73659*
X62314Y73729*
X64004Y73719*
G75*
G03X64534Y74249J530*
G01*
Y74269*
G75*
G03X64064Y74739I-470*
G01*
X58953*
G75*
G02X58874Y74819J80*
G01*
Y82459*
G75*
G03X58864Y82469I-10*
G01*
X57264*
G75*
G03X57254Y82459J-10*
G01*
Y74789*
G75*
G02X57203Y74739I-50*
G01*
X56974*
X57243*
G36*
X52103*
G75*
G03X51624Y74259J-480*
G01*
Y74229*
G75*
G03X52114Y73739I490*
G01*
X53783*
G75*
G02X54084Y73439J-300*
G01*
Y73269*
G75*
G02X53993Y73179I-90*
G01*
X51824Y72349*
X51624Y72139*
X51553Y71959*
X51593Y71709*
X51734Y71519*
X51993Y71419*
X52234Y71429*
X55774Y72229*
X51544Y67589*
X51443Y67419*
X51453Y67219*
X51533Y67019*
X51724Y66899*
X51924Y66849*
X55064Y67429*
X55754Y65079*
X55884Y64889*
X56033Y64789*
X56264Y64759*
X56464Y64809*
X56584Y64929*
X58064Y66439*
X59614Y64839*
X59864Y64759*
X60093Y64779*
X60274Y64899*
X60403Y65079*
X61064Y67439*
X64174Y66879*
X64384*
X64564Y66989*
X64704Y67229*
X64683Y67419*
X64464Y67719*
X60324Y72259*
X64084Y71399*
X64344Y71459*
X64504Y71609*
X64573Y71909*
X64504Y72169*
X64264Y72359*
X62644Y72989*
X62184Y73249*
X62074Y73359*
X62053Y73479*
X62064Y73529*
X62103Y73589*
X62184Y73659*
X62314Y73729*
X64004Y73719*
G75*
G03X64534Y74249J530*
G01*
Y74269*
G75*
G03X64064Y74739I-470*
G01*
X58953*
G75*
G02X58874Y74819J80*
G01*
Y82459*
G75*
G03X58864Y82469I-10*
G01*
X57264*
G75*
G03X57254Y82459J-10*
G01*
Y74789*
G75*
G02X57203Y74739I-50*
G01*
X56974*
X57243*
G37*
X57269Y90339D02*
Y74539D01*
X58049Y38239D02*
Y39239D01*
X52089*
G75*
G03X51599Y38749J-490*
G01*
Y38739*
G75*
G03X52099Y38239I500*
G01*
X58049*
Y39239D02*
Y38239D01*
X63999*
G75*
G03X64499Y38739J500*
G01*
G75*
G03X63999Y39239I-500*
G01*
X58049*
Y54639D02*
Y55639D01*
X52099*
G75*
G03X51599Y55139J-500*
G01*
G75*
G03X52099Y54639I500*
G01*
X58049*
Y55639D02*
Y54639D01*
X64009*
G75*
G03X64499Y55129J490*
G01*
Y55139*
G75*
G03X63999Y55639I-500*
G01*
X58049*
X58074Y73739D02*
Y74739D01*
X52114*
G75*
G03X51624Y74249J-490*
G01*
Y74239*
G75*
G03X52124Y73739I500*
G01*
X58074*
Y74739D02*
Y73739D01*
X64024*
G75*
G03X64524Y74239J500*
G01*
G75*
G03X64024Y74739I-500*
G01*
X58074*
Y90139D02*
Y91139D01*
X52124*
G75*
G03X51624Y90639J-500*
G01*
G75*
G03X52124Y90139I500*
G01*
X58074*
Y91139D02*
Y90139D01*
X64034*
G75*
G03X64524Y90629J490*
G01*
Y90639*
G75*
G03X64024Y91139I-500*
G01*
X58074*
X58853Y54839D02*
Y39039D01*
X58868Y54659D02*
X64009D01*
G75*
G03X64489Y55139J480*
G01*
Y55169*
G75*
G03X63999Y55659I-490*
G01*
X62328*
G75*
G02X62028Y55959J300*
G01*
Y56129*
G75*
G02X62118Y56219I90*
G01*
X64289Y57049*
X64489Y57259*
X64558Y57439*
X64519Y57689*
X64379Y57879*
X64118Y57979*
X63879Y57969*
X60339Y57169*
X64568Y61809*
X64668Y61979*
X64659Y62179*
X64579Y62379*
X64389Y62499*
X64189Y62549*
X61049Y61969*
X60359Y64319*
X60228Y64509*
X60078Y64609*
X59849Y64639*
X59649Y64589*
X59528Y64469*
X58049Y62959*
X56499Y64559*
X56249Y64639*
X56019Y64619*
X55839Y64499*
X55709Y64319*
X55049Y61959*
X51939Y62519*
X51728*
X51549Y62409*
X51408Y62169*
X51428Y61979*
X51649Y61679*
X55789Y57139*
X52028Y57999*
X51769Y57939*
X51609Y57789*
X51539Y57489*
X51609Y57229*
X51849Y57039*
X53468Y56409*
X53928Y56149*
X54039Y56039*
X54059Y55919*
X54049Y55869*
X54009Y55809*
X53928Y55739*
X53799Y55669*
X52109Y55679*
G75*
G03X51578Y55149J-530*
G01*
Y55129*
G75*
G03X52049Y54659I470*
G01*
X57158*
G75*
G02X57239Y54579J-80*
G01*
Y46939*
G75*
G03X57249Y46929I10*
G01*
X58849*
G75*
G03X58859Y46939J10*
G01*
Y54609*
G75*
G02X58908Y54659I50*
G01*
X59139*
X58868*
G36*
X64009*
G75*
G03X64489Y55139J480*
G01*
Y55169*
G75*
G03X63999Y55659I-490*
G01*
X62328*
G75*
G02X62028Y55959J300*
G01*
Y56129*
G75*
G02X62118Y56219I90*
G01*
X64289Y57049*
X64489Y57259*
X64558Y57439*
X64519Y57689*
X64379Y57879*
X64118Y57979*
X63879Y57969*
X60339Y57169*
X64568Y61809*
X64668Y61979*
X64659Y62179*
X64579Y62379*
X64389Y62499*
X64189Y62549*
X61049Y61969*
X60359Y64319*
X60228Y64509*
X60078Y64609*
X59849Y64639*
X59649Y64589*
X59528Y64469*
X58049Y62959*
X56499Y64559*
X56249Y64639*
X56019Y64619*
X55839Y64499*
X55709Y64319*
X55049Y61959*
X51939Y62519*
X51728*
X51549Y62409*
X51408Y62169*
X51428Y61979*
X51649Y61679*
X55789Y57139*
X52028Y57999*
X51769Y57939*
X51609Y57789*
X51539Y57489*
X51609Y57229*
X51849Y57039*
X53468Y56409*
X53928Y56149*
X54039Y56039*
X54059Y55919*
X54049Y55869*
X54009Y55809*
X53928Y55739*
X53799Y55669*
X52109Y55679*
G75*
G03X51578Y55149J-530*
G01*
Y55129*
G75*
G03X52049Y54659I470*
G01*
X57158*
G75*
G02X57239Y54579J-80*
G01*
Y46939*
G75*
G03X57249Y46929I10*
G01*
X58849*
G75*
G03X58859Y46939J10*
G01*
Y54609*
G75*
G02X58908Y54659I50*
G01*
X59139*
X58868*
G37*
X58879Y90339D02*
Y74539D01*
X58894Y90159D02*
X64034D01*
G75*
G03X64514Y90639J480*
G01*
Y90669*
G75*
G03X64024Y91159I-490*
G01*
X62353*
G75*
G02X62053Y91459J300*
G01*
Y91629*
G75*
G02X62144Y91719I90*
G01*
X64314Y92549*
X64514Y92759*
X64584Y92939*
X64543Y93189*
X64403Y93379*
X64144Y93479*
X63903Y93469*
X60364Y92669*
X64594Y97309*
X64693Y97479*
X64683Y97679*
X64603Y97879*
X64414Y97999*
X64214Y98049*
X61074Y97469*
X60384Y99819*
X60254Y100009*
X60103Y100109*
X59874Y100139*
X59674Y100089*
X59553Y99969*
X58074Y98459*
X56524Y100059*
X56274Y100139*
X56044Y100119*
X55864Y99999*
X55734Y99819*
X55074Y97459*
X51964Y98019*
X51754*
X51574Y97909*
X51434Y97669*
X51453Y97479*
X51674Y97179*
X55814Y92639*
X52053Y93499*
X51794Y93439*
X51634Y93289*
X51564Y92989*
X51634Y92729*
X51874Y92539*
X53493Y91909*
X53953Y91649*
X54064Y91539*
X54084Y91419*
X54074Y91369*
X54033Y91309*
X53953Y91239*
X53824Y91169*
X52134Y91179*
G75*
G03X51603Y90649J-530*
G01*
Y90629*
G75*
G03X52074Y90159I470*
G01*
X57184*
G75*
G02X57264Y90079J-80*
G01*
Y82439*
G75*
G03X57274Y82429I10*
G01*
X58874*
G75*
G03X58884Y82439J10*
G01*
Y90109*
G75*
G02X58934Y90159I50*
G01*
X59164*
X58894*
G36*
X64034*
G75*
G03X64514Y90639J480*
G01*
Y90669*
G75*
G03X64024Y91159I-490*
G01*
X62353*
G75*
G02X62053Y91459J300*
G01*
Y91629*
G75*
G02X62144Y91719I90*
G01*
X64314Y92549*
X64514Y92759*
X64584Y92939*
X64543Y93189*
X64403Y93379*
X64144Y93479*
X63903Y93469*
X60364Y92669*
X64594Y97309*
X64693Y97479*
X64683Y97679*
X64603Y97879*
X64414Y97999*
X64214Y98049*
X61074Y97469*
X60384Y99819*
X60254Y100009*
X60103Y100109*
X59874Y100139*
X59674Y100089*
X59553Y99969*
X58074Y98459*
X56524Y100059*
X56274Y100139*
X56044Y100119*
X55864Y99999*
X55734Y99819*
X55074Y97459*
X51964Y98019*
X51754*
X51574Y97909*
X51434Y97669*
X51453Y97479*
X51674Y97179*
X55814Y92639*
X52053Y93499*
X51794Y93439*
X51634Y93289*
X51564Y92989*
X51634Y92729*
X51874Y92539*
X53493Y91909*
X53953Y91649*
X54064Y91539*
X54084Y91419*
X54074Y91369*
X54033Y91309*
X53953Y91239*
X53824Y91169*
X52134Y91179*
G75*
G03X51603Y90649J-530*
G01*
Y90629*
G75*
G03X52074Y90159I470*
G01*
X57184*
G75*
G02X57264Y90079J-80*
G01*
Y82439*
G75*
G03X57274Y82429I10*
G01*
X58874*
G75*
G03X58884Y82439J10*
G01*
Y90109*
G75*
G02X58934Y90159I50*
G01*
X59164*
X58894*
G37*
X59044Y41859D02*
X63363D01*
Y52019*
X59044*
Y41859*
X59069Y77359D02*
X63388D01*
Y87519*
X59069*
Y77359*
X60169Y23103D02*
X60328Y23024D01*
X60407Y22865*
X60328Y22707*
X60169Y22627*
X59614*
Y23580*
X60169*
X60328Y23500*
X60407Y23342*
X60328Y23183*
X60169Y23103*
X59614*
X60884Y22627D02*
Y23580D01*
X61439*
X61598Y23500*
X61677Y23342*
X61598Y23183*
X61439Y23103*
X60884*
X61439D02*
X61677Y22627D01*
X62233Y22707D02*
X62392Y22627D01*
X62550*
X62709Y22707*
X62789Y22865*
X62709Y23024*
X62550Y23103*
X62392*
X62550D02*
X62709Y23183D01*
X62789Y23342*
X62709Y23500*
X62550Y23580*
X62392*
X62233Y23500*
X60094Y29299D02*
G75*
G03X59685Y30287I-205J494D01*
G01*
G75*
G03X60094Y29299I205J-494*
G01*
Y64579D02*
G75*
G03X59712Y63655I-191J-462D01*
G01*
G75*
G03X60094Y64579I191J462*
G01*
X60120Y64799D02*
G75*
G03X59710Y65787I-205J494D01*
G01*
G75*
G03X60120Y64799I205J-494*
G01*
Y100079D02*
G75*
G03X59737Y99155I-191J-462D01*
G01*
G75*
G03X60120Y100079I191J462*
G01*
X60315Y41859D02*
Y52019D01*
X60340Y77359D02*
Y87519D01*
X60374Y64164D02*
X61074Y61939D01*
X64049Y62489*
X60399Y29789D02*
X61049Y31939D01*
X63949Y31414*
Y31439*
X60399Y99664D02*
X61099Y97439D01*
X64073Y97989*
X60424Y65289D02*
X61074Y67439D01*
X63974Y66914*
Y66939*
X64039Y57964D02*
X56468Y56314D01*
X64064Y35894D02*
X56553Y37589D01*
Y37594*
X64064Y93464D02*
X56493Y91814D01*
X64089Y71394D02*
X56578Y73089D01*
Y73094*
X64099Y36909D02*
X58059Y39244D01*
X51908Y36894*
X64124Y72409D02*
X58084Y74744D01*
X51934Y72394*
X64539Y61759D02*
X58053Y54649D01*
X64549Y31489D02*
G75*
G03X63899Y32139I-325J325D01*
G01*
G75*
G03X64549Y31489I325J-325*
G01*
Y36275D02*
G75*
G03X63582Y36530I-483J128D01*
G01*
G75*
G03X64549Y36275I484J-128*
G01*
Y57603D02*
G75*
G03X63582Y57348I-483J-128D01*
G01*
G75*
G03X64549Y57603I484J128*
G01*
Y62389D02*
G75*
G03X63899Y61739I-325J-325D01*
G01*
G75*
G03X64549Y62389I325J325*
G01*
X64558Y32054D02*
X58059Y39229D01*
X64564Y97259D02*
X58078Y90149D01*
X64573Y66989D02*
G75*
G03X63924Y67639I-325J325D01*
G01*
G75*
G03X64573Y66989I325J-325*
G01*
Y71775D02*
G75*
G03X63607Y72030I-483J128D01*
G01*
G75*
G03X64573Y71775I484J-128*
G01*
Y93103D02*
G75*
G03X63607Y92848I-483J-128D01*
G01*
G75*
G03X64573Y93103I484J128*
G01*
Y97889D02*
G75*
G03X63924Y97239I-325J-325D01*
G01*
G75*
G03X64573Y97889I325J325*
G01*
X64584Y67554D02*
X58084Y74729D01*
X69099Y33078D02*
G75*
G03X70087Y33487I494J205D01*
G01*
G75*
G03X69099Y33078I-494J-205*
G01*
Y37170D02*
G75*
G03X70022Y36787I462J-191D01*
G01*
G75*
G03X69099Y37170I-462J191*
G01*
X69514Y37449D02*
X71739Y38149D01*
X71189Y41124*
X69539Y33799D02*
X70739Y35124D01*
X69489Y36499*
X71157Y54486D02*
X71078Y54407D01*
X70919Y54327*
X70681*
X70522Y54407*
X70443Y54486*
X70364Y54645*
Y54962*
X70443Y55121*
X70522Y55200*
X70681Y55280*
X70919*
X71078Y55200*
X71157Y55121*
X71872Y54803D02*
X72030D01*
X72189Y54883*
X72269Y55042*
X72189Y55200*
X72030Y55280*
X71872*
X71713Y55200*
X71634Y55042*
X71713Y54883*
X71872Y54803*
X71713Y54724*
X71634Y54565*
X71713Y54407*
X71872Y54327*
X72030*
X72189Y54407*
X72269Y54565*
X72189Y54724*
X72030Y54803*
X69963Y46144D02*
Y46779D01*
X70280Y46462D02*
X69645D01*
X71507Y90586D02*
X71428Y90507D01*
X71269Y90427*
X71031*
X70872Y90507*
X70793Y90586*
X70714Y90745*
Y91062*
X70793Y91221*
X70872Y91300*
X71031Y91380*
X71269*
X71428Y91300*
X71507Y91221*
X72619Y90427D02*
X71984D01*
X72539Y90983*
X72619Y91142*
X72539Y91300*
X72380Y91380*
X72142*
X71984Y91300*
X71264Y29224D02*
X71764Y32174D01*
X69414Y32749*
X69389Y32824*
X71289Y28624D02*
G75*
G03X71939Y29274I325J325D01*
G01*
G75*
G03X71289Y28624I-325J-325*
G01*
Y41624D02*
G75*
G03X71939Y40974I325J-325D01*
G01*
G75*
G03X71289Y41624I-325J325*
G01*
X71854Y28614D02*
X79029Y35114D01*
X71919Y41614D02*
X79029Y35129D01*
X72695Y71752D02*
Y72705D01*
X72299D02*
X73092D01*
X73569Y71752D02*
Y72705D01*
X74124*
X74283Y72625*
X74362Y72467*
X74283Y72308*
X74124Y72228*
X73569*
X75474Y71752D02*
X74839D01*
X75394Y72308*
X75474Y72467*
X75394Y72625*
X75235Y72705*
X74997*
X74839Y72625*
X73464Y86309D02*
Y85674D01*
X73147Y85992D02*
X73782D01*
X74460Y98127D02*
Y99080D01*
X74064D02*
X74857D01*
X75334Y98127D02*
Y99080D01*
X75889*
X76048Y99000*
X76127Y98842*
X76048Y98683*
X75889Y98603*
X75334*
X76762Y98127D02*
X77080D01*
X76921D02*
Y99080D01*
X76762Y98921*
X75694Y29109D02*
X77389Y36619D01*
X77394*
X75714Y41114D02*
X77364Y33544D01*
X76075Y28624D02*
G75*
G03X76330Y29591I128J484D01*
G01*
G75*
G03X76075Y28624I-128J-483*
G01*
Y41624D02*
G75*
G03X76330Y40657I128J-483D01*
G01*
G75*
G03X76075Y41624I-128J484*
G01*
X76709Y29074D02*
X79044Y35114D01*
X76694Y41264*
X78039Y35124D02*
X79039D01*
Y41084*
G75*
G03X78549Y41574I-490*
G01*
X78539*
G75*
G03X78039Y41074J-500*
G01*
Y35124*
X78839Y34319D02*
X94639D01*
X78839Y35929D02*
X94639D01*
X79019Y35944D02*
Y41084D01*
G75*
G03X78539Y41564I-480*
G01*
X78509*
G75*
G03X78019Y41074J-490*
G01*
Y39404*
G75*
G02X77719Y39104I-300*
G01*
X77549*
G75*
G02X77459Y39194J90*
G01*
X76629Y41364*
X76419Y41564*
X76239Y41634*
X75989Y41594*
X75799Y41454*
X75698Y41194*
X75709Y40954*
X76509Y37414*
X71869Y41644*
X71698Y41744*
X71499Y41734*
X71299Y41654*
X71179Y41464*
X71129Y41264*
X71709Y38124*
X69359Y37434*
X69169Y37304*
X69069Y37154*
X69039Y36924*
X69089Y36724*
X69209Y36604*
X70719Y35124*
X69119Y33574*
X69039Y33324*
X69059Y33094*
X69179Y32914*
X69359Y32784*
X71719Y32124*
X71159Y29014*
Y28804*
X71269Y28624*
X71509Y28484*
X71698Y28504*
X71999Y28724*
X76539Y32864*
X75679Y29104*
X75739Y28844*
X75889Y28684*
X76189Y28614*
X76448Y28684*
X76639Y28924*
X77269Y30544*
X77529Y31004*
X77639Y31114*
X77759Y31134*
X77809Y31124*
X77869Y31084*
X77939Y31004*
X78009Y30874*
X77999Y29184*
G75*
G03X78529Y28654I530*
G01*
X78549*
G75*
G03X79019Y29124J470*
G01*
Y34234*
G75*
G02X79099Y34314I80*
G01*
X86739*
G75*
G03X86749Y34324J10*
G01*
Y35924*
G75*
G03X86739Y35934I-10*
G01*
X79069*
G75*
G02X79019Y35984J50*
G01*
Y36214*
Y35944*
G36*
Y41084*
G75*
G03X78539Y41564I-480*
G01*
X78509*
G75*
G03X78019Y41074J-490*
G01*
Y39404*
G75*
G02X77719Y39104I-300*
G01*
X77549*
G75*
G02X77459Y39194J90*
G01*
X76629Y41364*
X76419Y41564*
X76239Y41634*
X75989Y41594*
X75799Y41454*
X75698Y41194*
X75709Y40954*
X76509Y37414*
X71869Y41644*
X71698Y41744*
X71499Y41734*
X71299Y41654*
X71179Y41464*
X71129Y41264*
X71709Y38124*
X69359Y37434*
X69169Y37304*
X69069Y37154*
X69039Y36924*
X69089Y36724*
X69209Y36604*
X70719Y35124*
X69119Y33574*
X69039Y33324*
X69059Y33094*
X69179Y32914*
X69359Y32784*
X71719Y32124*
X71159Y29014*
Y28804*
X71269Y28624*
X71509Y28484*
X71698Y28504*
X71999Y28724*
X76539Y32864*
X75679Y29104*
X75739Y28844*
X75889Y28684*
X76189Y28614*
X76448Y28684*
X76639Y28924*
X77269Y30544*
X77529Y31004*
X77639Y31114*
X77759Y31134*
X77809Y31124*
X77869Y31084*
X77939Y31004*
X78009Y30874*
X77999Y29184*
G75*
G03X78529Y28654I530*
G01*
X78549*
G75*
G03X79019Y29124J470*
G01*
Y34234*
G75*
G02X79099Y34314I80*
G01*
X86739*
G75*
G03X86749Y34324J10*
G01*
Y35924*
G75*
G03X86739Y35934I-10*
G01*
X79069*
G75*
G02X79019Y35984J50*
G01*
Y36214*
Y35944*
G37*
X79039Y35124D02*
X78039D01*
Y29174*
G75*
G03X78539Y28674I500*
G01*
G75*
G03X79039Y29174J500*
G01*
Y35124*
X82993Y49415D02*
X83629D01*
X83311Y49097D02*
Y49732D01*
X84257Y54186D02*
X84178Y54107D01*
X84019Y54027*
X83781*
X83622Y54107*
X83543Y54186*
X83464Y54345*
Y54662*
X83543Y54821*
X83622Y54900*
X83781Y54980*
X84019*
X84178Y54900*
X84257Y54821*
X84892Y54027D02*
X85210D01*
X85051D02*
Y54980D01*
X84892Y54821*
X86639Y54027D02*
X86004D01*
X86559Y54583*
X86639Y54742*
X86559Y54900*
X86400Y54980*
X86162*
X86004Y54900*
X85414Y32930D02*
Y32215D01*
X85493Y32057*
X85652Y31977*
X85969*
X86128Y32057*
X86207Y32215*
Y32930*
X86683Y32057D02*
X86842Y31977D01*
X87080*
X87239Y32057*
X87318Y32215*
Y32295*
X87239Y32453*
X87080Y32533*
X86683*
Y32930*
X87318*
X87289Y15246D02*
X58989D01*
Y21046*
X85789*
X87289Y19546*
Y15246*
X88619Y98524D02*
X88857D01*
Y98445*
X88778Y98286*
X88698Y98207*
X88540Y98127*
X88381*
X88222Y98207*
X88143Y98286*
X88064Y98445*
Y98762*
X88143Y98921*
X88222Y99000*
X88381Y99080*
X88540*
X88698Y99000*
X88778Y98921*
X88857Y98762*
X89334Y98127D02*
Y99080D01*
X90127Y98127*
Y99080*
X90604Y98127D02*
Y99080D01*
X91080*
X91239Y99000*
X91318Y98921*
X91397Y98762*
Y98445*
X91318Y98286*
X91239Y98207*
X91080Y98127*
X90604*
X89214Y90227D02*
Y91180D01*
X89769*
X89928Y91100*
X90007Y90942*
X89928Y90783*
X89769Y90703*
X89214*
X89769D02*
X90007Y90227D01*
X91118D02*
X90484D01*
X91039Y90783*
X91118Y90942*
X91039Y91100*
X90880Y91180*
X90642*
X90484Y91100*
X91912Y90227D02*
X92230D01*
X92071D02*
Y91180D01*
X91912Y91021*
X89795Y75302D02*
Y76255D01*
X89399D02*
X90192D01*
X90668Y75302D02*
Y76255D01*
X91224*
X91383Y76175*
X91462Y76017*
X91383Y75858*
X91224Y75778*
X90668*
X92573Y75302D02*
X91939D01*
X92494Y75858*
X92573Y76017*
X92494Y76175*
X92335Y76255*
X92097*
X91939Y76175*
X93288Y75382D02*
X93447Y75302D01*
X93605*
X93764Y75382*
X93844Y75540*
Y76017*
X93764Y76175*
X93605Y76255*
X93447*
X93288Y76175*
X93209Y76017*
Y75540*
X93288Y75382*
X93764Y76175*
X91818Y36120D02*
Y40438D01*
X81659*
Y36120*
X91818*
Y37390D02*
X81659D01*
X92560Y85995D02*
X92481Y86075D01*
X92402Y86233*
Y86472*
X92481Y86630*
X92560Y86710*
X92719Y86789*
X93037*
X93195Y86710*
X93275Y86630*
X93354Y86472*
Y86233*
X93275Y86075*
X93195Y85995*
X92402Y84884D02*
Y85519D01*
X92957Y84963*
X93116Y84884*
X93275Y84963*
X93354Y85122*
Y85360*
X93275Y85519*
X92640Y84249D02*
X92799Y84170D01*
X92878Y84011*
Y83852*
X92799Y83693*
X92640Y83614*
X92481Y83693*
X92402Y83852*
Y84011*
X92481Y84170*
X92640Y84249*
X92878*
X93116Y84170*
X93275Y84011*
X93354Y83852*
X93214Y82080D02*
Y81365D01*
X93293Y81207*
X93452Y81127*
X93769*
X93928Y81207*
X94007Y81365*
Y82080*
X94642Y81127D02*
X94960D01*
X94801D02*
Y82080D01*
X94642Y81921*
X95992Y81603D02*
X96150D01*
X96309Y81683*
X96389Y81842*
X96309Y82000*
X96150Y82080*
X95992*
X95833Y82000*
X95754Y81842*
X95833Y81683*
X95992Y81603*
X95833Y81524*
X95754Y81365*
X95833Y81207*
X95992Y81127*
X96150*
X96309Y81207*
X96389Y81365*
X96309Y81524*
X96150Y81603*
X93810Y68895D02*
X93731Y68975D01*
X93652Y69133*
Y69372*
X93731Y69530*
X93810Y69610*
X93969Y69689*
X94287*
X94445Y69610*
X94525Y69530*
X94604Y69372*
Y69133*
X94525Y68975*
X94445Y68895*
X93652Y68260D02*
Y67943D01*
Y68102D02*
X94604D01*
X94445Y68260*
X93652Y66911D02*
X93731Y66752D01*
X93890Y66593*
X94128Y66514*
X94366*
X94525Y66593*
X94604Y66752*
Y66911*
X94525Y67070*
X94366Y67149*
X94207Y67070*
X94128Y66911*
Y66752*
X94207Y66593*
X94366Y66514*
X95057Y78836D02*
X94978Y78757D01*
X94819Y78677*
X94581*
X94422Y78757*
X94343Y78836*
X94264Y78995*
Y79312*
X94343Y79471*
X94422Y79550*
X94581Y79630*
X94819*
X94978Y79550*
X95057Y79471*
X96168Y78677D02*
X95534D01*
X96089Y79233*
X96168Y79392*
X96089Y79550*
X95930Y79630*
X95692*
X95534Y79550*
X97042Y78677D02*
X97200Y78757D01*
X97359Y78915*
X97439Y79153*
Y79392*
X97359Y79550*
X97200Y79630*
X97042*
X96883Y79550*
X96804Y79392*
X96883Y79233*
X97042Y79153*
X97200*
X97359Y79233*
X97439Y79392*
X94439Y34294D02*
Y29154D01*
G75*
G03X94918Y28674I480*
G01*
X94948*
G75*
G03X95439Y29164J490*
G01*
Y30834*
G75*
G02X95739Y31134I300*
G01*
X95909*
G75*
G02X95999Y31044J-90*
G01*
X96829Y28874*
X97039Y28674*
X97219Y28604*
X97469Y28644*
X97659Y28784*
X97759Y29044*
X97749Y29284*
X96948Y32824*
X101589Y28594*
X101759Y28494*
X101959Y28504*
X102159Y28584*
X102279Y28774*
X102329Y28974*
X101749Y32114*
X104099Y32804*
X104289Y32934*
X104389Y33084*
X104418Y33314*
X104368Y33514*
X104249Y33634*
X102739Y35114*
X104339Y36664*
X104418Y36914*
X104398Y37144*
X104278Y37324*
X104099Y37454*
X101739Y38114*
X102299Y41224*
Y41434*
X102189Y41614*
X101948Y41754*
X101759Y41734*
X101459Y41514*
X96918Y37374*
X97779Y41134*
X97719Y41394*
X97568Y41554*
X97269Y41624*
X97009Y41554*
X96818Y41314*
X96189Y39694*
X95929Y39234*
X95818Y39124*
X95698Y39104*
X95649Y39114*
X95589Y39154*
X95519Y39234*
X95448Y39364*
X95459Y41054*
G75*
G03X94929Y41584I-530*
G01*
X94909*
G75*
G03X94439Y41114J-470*
G01*
Y36004*
G75*
G02X94359Y35924I-80*
G01*
X86719*
G75*
G03X86709Y35914J-10*
G01*
Y34314*
G75*
G03X86719Y34304I10*
G01*
X94389*
G75*
G02X94439Y34254J-50*
G01*
Y34024*
Y34294*
G36*
Y29154*
G75*
G03X94918Y28674I480*
G01*
X94948*
G75*
G03X95439Y29164J490*
G01*
Y30834*
G75*
G02X95739Y31134I300*
G01*
X95909*
G75*
G02X95999Y31044J-90*
G01*
X96829Y28874*
X97039Y28674*
X97219Y28604*
X97469Y28644*
X97659Y28784*
X97759Y29044*
X97749Y29284*
X96948Y32824*
X101589Y28594*
X101759Y28494*
X101959Y28504*
X102159Y28584*
X102279Y28774*
X102329Y28974*
X101749Y32114*
X104099Y32804*
X104289Y32934*
X104389Y33084*
X104418Y33314*
X104368Y33514*
X104249Y33634*
X102739Y35114*
X104339Y36664*
X104418Y36914*
X104398Y37144*
X104278Y37324*
X104099Y37454*
X101739Y38114*
X102299Y41224*
Y41434*
X102189Y41614*
X101948Y41754*
X101759Y41734*
X101459Y41514*
X96918Y37374*
X97779Y41134*
X97719Y41394*
X97568Y41554*
X97269Y41624*
X97009Y41554*
X96818Y41314*
X96189Y39694*
X95929Y39234*
X95818Y39124*
X95698Y39104*
X95649Y39114*
X95589Y39154*
X95519Y39234*
X95448Y39364*
X95459Y41054*
G75*
G03X94929Y41584I-530*
G01*
X94909*
G75*
G03X94439Y41114J-470*
G01*
Y36004*
G75*
G02X94359Y35924I-80*
G01*
X86719*
G75*
G03X86709Y35914J-10*
G01*
Y34314*
G75*
G03X86719Y34304I10*
G01*
X94389*
G75*
G02X94439Y34254J-50*
G01*
Y34024*
Y34294*
G37*
Y35124D02*
X95439D01*
Y41074*
G75*
G03X94939Y41574I-500*
G01*
G75*
G03X94439Y41074J-500*
G01*
Y35124*
X94787Y62154D02*
X95739D01*
Y61598*
X95660Y61440*
X95501Y61360*
X95342Y61440*
X95263Y61598*
Y62154*
X94787Y60567D02*
X95422D01*
X95660D02*
X95439Y35124*
X94439D01*
Y29164*
G75*
G03X94929Y28674I490*
G01*
X94939*
G75*
G03X95439Y29174J500*
G01*
Y35124*
X95343Y13219D02*
Y13854D01*
X95660Y13537D02*
X95025D01*
X96702Y77239D02*
X97654D01*
Y76683*
X97575Y76525*
X97416Y76445*
X97257Y76525*
X97178Y76683*
Y77239*
Y76683D02*
X96702Y76445D01*
Y75334D02*
Y75969D01*
X97257Y75413*
X97416Y75334*
X97575Y75413*
X97654Y75572*
Y75810*
X97575Y75969*
X96702Y74064D02*
Y74699D01*
X97257Y74143*
X97416Y74064*
X97575Y74143*
X97654Y74302*
Y74540*
X97575Y74699*
X96769Y41174D02*
X94433Y35134D01*
X96784Y28984*
X97403Y28624D02*
G75*
G03X97148Y29591I-128J484D01*
G01*
G75*
G03X97403Y28624I128J-483*
G01*
Y41624D02*
G75*
G03X97148Y40657I-128J-483D01*
G01*
G75*
G03X97403Y41624I128J484*
G01*
X97764Y29134D02*
X96114Y36704D01*
X97784Y41139D02*
X96089Y33629D01*
X96084*
X98502Y93089D02*
X99454D01*
Y92533*
X99375Y92375*
X99216Y92295*
X99057Y92375*
X98978Y92533*
Y93089*
Y92533D02*
X98502Y92295D01*
Y91184D02*
Y91819D01*
X99057Y91263*
X99216Y91184*
X99375Y91263*
X99454Y91422*
Y91660*
X99375Y91819*
X98581Y90470D02*
X98502Y90311D01*
Y90152*
X98581Y89993*
X98740Y89914*
X99216*
X99375Y89993*
X99454Y90152*
Y90311*
X99375Y90470*
X99216Y90549*
X98740*
X98581Y90470*
X99375Y89993*
X99610Y54902D02*
Y55855D01*
X99214D02*
X100007D01*
X100484Y54902D02*
Y55855D01*
X101039*
X101198Y55775*
X101277Y55617*
X101198Y55458*
X101039Y55378*
X100484*
X102150Y54902D02*
Y55855D01*
X101754Y55220*
X102389*
X99960Y98127D02*
Y99080D01*
X99564D02*
X100357D01*
X100834Y98127D02*
Y99080D01*
X101389*
X101548Y99000*
X101627Y98842*
X101548Y98683*
X101389Y98603*
X100834*
X102739Y98127D02*
X102104D01*
X102659Y98683*
X102739Y98842*
X102659Y99000*
X102500Y99080*
X102262*
X102104Y99000*
X103532Y98127D02*
X103850D01*
X103691D02*
Y99080D01*
X103532Y98921*
X101558Y28634D02*
X94448Y35119D01*
X101624Y41634D02*
X94448Y35134D01*
X101764Y76627D02*
Y77580D01*
X102319*
X102478Y77500*
X102557Y77342*
X102478Y77183*
X102319Y77103*
X101764*
X102319D02*
X102557Y76627D01*
X103192D02*
X103510D01*
X103351D02*
Y77580D01*
X103192Y77421*
X102189Y28624D02*
G75*
G03X101539Y29274I-325J325D01*
G01*
G75*
G03X102189Y28624I325J-325*
G01*
Y41624D02*
G75*
G03X101539Y40974I-325J-325D01*
G01*
G75*
G03X102189Y41624I325J325*
G01*
X102264Y29149D02*
X101739Y32124D01*
X103914Y32774*
X103889Y37474D02*
X101739Y38124D01*
X102264Y41024*
X102239*
X103914Y33749D02*
X102739Y35124D01*
X103889Y36449*
X104379Y33078D02*
G75*
G03X103455Y33461I-462J191D01*
G01*
G75*
G03X104379Y33078I462J-191*
G01*
Y37170D02*
G75*
G03X103391Y36761I-494J-205D01*
G01*
G75*
G03X104379Y37170I494J205*
G01*
X104814Y92177D02*
Y93130D01*
X105369*
X105528Y93050*
X105607Y92892*
X105528Y92733*
X105369Y92653*
X104814*
X105369D02*
X105607Y92177D01*
X106242D02*
X106560D01*
X106401D02*
Y93130D01*
X106242Y92971*
X107592Y92177D02*
X107750Y92257D01*
X107909Y92415*
X107989Y92653*
Y92892*
X107909Y93050*
X107750Y93130*
X107592*
X107433Y93050*
X107353Y92892*
X107433Y92733*
X107592Y92653*
X107750*
X107909Y92733*
X107989Y92892*
X105757Y87586D02*
X105678Y87507D01*
X105519Y87427*
X105281*
X105122Y87507*
X105043Y87586*
X104964Y87745*
Y88062*
X105043Y88221*
X105122Y88300*
X105281Y88380*
X105519*
X105678Y88300*
X105757Y88221*
X106868Y87427D02*
X106234D01*
X106789Y87983*
X106868Y88142*
X106789Y88300*
X106630Y88380*
X106392*
X106234Y88300*
X107742Y87903D02*
X107900D01*
X108059Y87983*
X108139Y88142*
X108059Y88300*
X107900Y88380*
X107742*
X107583Y88300*
X107504Y88142*
X107583Y87983*
X107742Y87903*
X107583Y87824*
X107504Y87665*
X107583Y87507*
X107742Y87427*
X107900*
X108059Y87507*
X108139Y87665*
X108059Y87824*
X107900Y87903*
X105464Y76077D02*
Y77030D01*
X106019*
X106178Y76950*
X106257Y76792*
X106178Y76633*
X106019Y76553*
X105464*
X106019D02*
X106257Y76077D01*
X107368D02*
X106734D01*
X107289Y76633*
X107368Y76792*
X107289Y76950*
X107130Y77030*
X106892*
X106734Y76950*
X106357Y82986D02*
X106278Y82907D01*
X106119Y82827*
X105881*
X105722Y82907*
X105643Y82986*
X105564Y83145*
Y83462*
X105643Y83621*
X105722Y83700*
X105881Y83780*
X106119*
X106278Y83700*
X106357Y83621*
X107468Y82827D02*
X106834D01*
X107389Y83383*
X107468Y83542*
X107389Y83700*
X107230Y83780*
X106992*
X106834Y83700*
X108739Y82827D02*
X108103D01*
X108659Y83383*
X108739Y83542*
X108659Y83700*
X108500Y83780*
X108262*
X108103Y83700*
X106607Y25486D02*
X106528Y25407D01*
X106369Y25327*
X106131*
X105972Y25407*
X105893Y25486*
X105814Y25645*
Y25962*
X105893Y26121*
X105972Y26200*
X106131Y26280*
X106369*
X106528Y26200*
X106607Y26121*
X107084Y25565D02*
X107163Y25724D01*
X107322Y25803*
X107480*
X107639Y25724*
X107718Y25565*
X107639Y25407*
X107480Y25327*
X107322*
X107163Y25407*
X107084Y25565*
Y25803*
X107163Y26041*
X107322Y26200*
X107480Y26280*
X107460Y69277D02*
Y70230D01*
X107064D02*
X107857D01*
X108334Y69277D02*
Y70230D01*
X108889*
X109048Y70150*
X109127Y69992*
X109048Y69833*
X108889Y69753*
X108334*
X110239Y69277D02*
X109603D01*
X110159Y69833*
X110239Y69992*
X110159Y70150*
X110000Y70230*
X109762*
X109603Y70150*
X111509Y69277D02*
X110874D01*
X111429Y69833*
X111509Y69992*
X111429Y70150*
X111270Y70230*
X111032*
X110874Y70150*
X107639Y18289D02*
G75*
G03X89224I-9207D01*
G01*
G75*
G03X107639I9207*
G01*
X108460Y98127D02*
Y99080D01*
X108064D02*
X108857D01*
X109334Y98127D02*
Y99080D01*
X109889*
X110048Y99000*
X110127Y98842*
X110048Y98683*
X109889Y98603*
X109334*
X110762Y98127D02*
X111080D01*
X110921D02*
Y99080D01*
X110762Y98921*
X112032Y98127D02*
X112350D01*
X112191D02*
Y99080D01*
X112032Y98921*
X108339Y40949D02*
X114839Y33774D01*
X108349Y10614D02*
G75*
G03X108999Y11264I325J325D01*
G01*
G75*
G03X108349Y10614I-325J-325*
G01*
Y15400D02*
G75*
G03X109315Y15655I484J128D01*
G01*
G75*
G03X108349Y15400I-483J-128*
G01*
Y36728D02*
G75*
G03X109315Y36473I484J-128D01*
G01*
G75*
G03X108349Y36728I-483J128*
G01*
Y41514D02*
G75*
G03X108999Y40864I325J-325D01*
G01*
G75*
G03X108349Y41514I-325J325*
G01*
X108359Y11244D02*
X114843Y18354D01*
X108799Y36094D02*
X114839Y33759D01*
X120989Y36109*
X108834Y37109D02*
X116343Y35414D01*
Y35409*
X108859Y15039D02*
X116429Y16689D01*
X108874Y10539D02*
X111849Y11064D01*
X112499Y8889*
X108948Y41539D02*
X111898Y41039D01*
X112474Y43389*
X112549Y43414*
X112654Y27639D02*
X111940D01*
X111781Y27560*
X111702Y27401*
Y27083*
X111781Y26925*
X111940Y26845*
X112654*
X111702Y25972D02*
X112654D01*
X112019Y26369*
Y25734*
X112802Y8424D02*
G75*
G03X113185Y9348I191J462D01*
G01*
G75*
G03X112802Y8424I-191J-462*
G01*
Y43704D02*
G75*
G03X113212Y42716I205J-494D01*
G01*
G75*
G03X112802Y43704I-205J494*
G01*
X113114Y73027D02*
Y73980D01*
X113669*
X113828Y73900*
X113907Y73742*
X113828Y73583*
X113669Y73503*
X113114*
X113669D02*
X113907Y73027D01*
X114622D02*
X114780Y73107D01*
X114939Y73265*
X115018Y73503*
Y73742*
X114939Y73900*
X114780Y73980*
X114622*
X114463Y73900*
X114384Y73742*
X114463Y73583*
X114622Y73503*
X114780*
X114939Y73583*
X115018Y73742*
X113474Y8889D02*
X114849Y10064D01*
X116174Y8914*
X113523Y43264D02*
X114849Y42064D01*
X116224Y43314*
X113589Y79589D02*
X110689D01*
Y78939*
X110489*
Y77239*
X111689*
Y76589*
X112589*
Y77239*
X113789*
Y78939*
X113589*
Y79589*
X114018Y18364D02*
X108879D01*
G75*
G03X108398Y17884J-480*
G01*
Y17854*
G75*
G03X108889Y17364I490*
G01*
X110559*
G75*
G02X110859Y17064J-300*
G01*
Y16894*
G75*
G02X110768Y16804I-90*
G01*
X108599Y15974*
X108398Y15764*
X108329Y15584*
X108368Y15334*
X108509Y15144*
X108768Y15044*
X109009Y15054*
X112549Y15854*
X108318Y11214*
X108218Y11044*
X108228Y10844*
X108309Y10644*
X108499Y10524*
X108698Y10474*
X111839Y11054*
X112528Y8704*
X112659Y8514*
X112809Y8414*
X113039Y8384*
X113239Y8434*
X113359Y8554*
X114839Y10064*
X116389Y8464*
X116639Y8384*
X116868Y8404*
X117049Y8524*
X117179Y8704*
X117839Y11064*
X120948Y10504*
X121159*
X121339Y10614*
X121478Y10854*
X121459Y11044*
X121239Y11344*
X117099Y15884*
X120859Y15024*
X121118Y15084*
X121278Y15234*
X121349Y15534*
X121278Y15794*
X121039Y15984*
X119418Y16614*
X118959Y16874*
X118849Y16984*
X118829Y17104*
X118839Y17154*
X118879Y17214*
X118959Y17284*
X119089Y17354*
X120778Y17344*
G75*
G03X121309Y17874J530*
G01*
Y17894*
G75*
G03X120839Y18364I-470*
G01*
X115728*
G75*
G02X115648Y18444J80*
G01*
Y26084*
G75*
G03X115639Y26094I-10*
G01*
X114039*
G75*
G03X114028Y26084J-10*
G01*
Y18414*
G75*
G02X113978Y18364I-50*
G01*
X113749*
X114018*
G36*
X108879*
G75*
G03X108398Y17884J-480*
G01*
Y17854*
G75*
G03X108889Y17364I490*
G01*
X110559*
G75*
G02X110859Y17064J-300*
G01*
Y16894*
G75*
G02X110768Y16804I-90*
G01*
X108599Y15974*
X108398Y15764*
X108329Y15584*
X108368Y15334*
X108509Y15144*
X108768Y15044*
X109009Y15054*
X112549Y15854*
X108318Y11214*
X108218Y11044*
X108228Y10844*
X108309Y10644*
X108499Y10524*
X108698Y10474*
X111839Y11054*
X112528Y8704*
X112659Y8514*
X112809Y8414*
X113039Y8384*
X113239Y8434*
X113359Y8554*
X114839Y10064*
X116389Y8464*
X116639Y8384*
X116868Y8404*
X117049Y8524*
X117179Y8704*
X117839Y11064*
X120948Y10504*
X121159*
X121339Y10614*
X121478Y10854*
X121459Y11044*
X121239Y11344*
X117099Y15884*
X120859Y15024*
X121118Y15084*
X121278Y15234*
X121349Y15534*
X121278Y15794*
X121039Y15984*
X119418Y16614*
X118959Y16874*
X118849Y16984*
X118829Y17104*
X118839Y17154*
X118879Y17214*
X118959Y17284*
X119089Y17354*
X120778Y17344*
G75*
G03X121309Y17874J530*
G01*
Y17894*
G75*
G03X120839Y18364I-470*
G01*
X115728*
G75*
G02X115648Y18444J80*
G01*
Y26084*
G75*
G03X115639Y26094I-10*
G01*
X114039*
G75*
G03X114028Y26084J-10*
G01*
Y18414*
G75*
G02X113978Y18364I-50*
G01*
X113749*
X114018*
G37*
X114043Y33964D02*
Y18164D01*
X114402Y82539D02*
X115354D01*
Y81983*
X115275Y81825*
X115116Y81745*
X114957Y81825*
X114878Y81983*
Y82539*
Y81983D02*
X114402Y81745D01*
X114481Y81190D02*
X114402Y81031D01*
Y80872*
X114481Y80713*
X114640Y80634*
X114799Y80713*
X114878Y80872*
Y81031*
Y80872D02*
X114957Y80713D01*
X115116Y80634*
X115275Y80713*
X115354Y80872*
Y81031*
X115275Y81190*
X114239Y71252D02*
Y72205D01*
X114794*
X114953Y72125*
X115032Y71967*
X114953Y71808*
X114794Y71728*
X114239*
X114794D02*
X115032Y71252D01*
X115747Y71728D02*
X115905D01*
X116064Y71808*
X116143Y71967*
X116064Y72125*
X115905Y72205*
X115747*
X115588Y72125*
X115509Y71967*
X115588Y71808*
X115747Y71728*
X115588Y71649*
X115509Y71490*
X115588Y71332*
X115747Y71252*
X115905*
X116064Y71332*
X116143Y71490*
X116064Y71649*
X115905Y71728*
X114639Y86589D02*
X111739D01*
Y85939*
X111539*
Y84239*
X112739*
Y83589*
X113639*
Y84239*
X114839*
Y85939*
X114639*
Y86589*
X114849Y17364D02*
Y18364D01*
X108889*
G75*
G03X108398Y17874J-490*
G01*
Y17864*
G75*
G03X108898Y17364I500*
G01*
X114849*
Y18364D02*
Y17364D01*
X120799*
G75*
G03X121299Y17864J500*
G01*
G75*
G03X120799Y18364I-500*
G01*
X114849*
Y33764D02*
Y34764D01*
X108898*
G75*
G03X108398Y34264J-500*
G01*
G75*
G03X108898Y33764I500*
G01*
X114849*
Y34764D02*
Y33764D01*
X120809*
G75*
G03X121299Y34254J490*
G01*
Y34264*
G75*
G03X120799Y34764I-500*
G01*
X114849*
X115957Y89036D02*
X115878Y88957D01*
X115719Y88877*
X115481*
X115322Y88957*
X115243Y89036*
X115164Y89195*
Y89512*
X115243Y89671*
X115322Y89750*
X115481Y89830*
X115719*
X115878Y89750*
X115957Y89671*
X117068Y88877D02*
X116434D01*
X116989Y89433*
X117068Y89592*
X116989Y89750*
X116830Y89830*
X116592*
X116434Y89750*
X117783Y88957D02*
X117942Y88877D01*
X118100*
X118259Y88957*
X118339Y89115*
X118259Y89274*
X118100Y89353*
X117942*
X118100D02*
X118259Y89433D01*
X118339Y89592*
X118259Y89750*
X118100Y89830*
X117942*
X117783Y89750*
X115653Y33964D02*
Y18164D01*
X115668Y33784D02*
X120809D01*
G75*
G03X121289Y34264J480*
G01*
Y34294*
G75*
G03X120799Y34784I-490*
G01*
X119129*
G75*
G02X118829Y35084J300*
G01*
Y35254*
G75*
G02X118918Y35344I90*
G01*
X121089Y36174*
X121289Y36384*
X121359Y36564*
X121318Y36814*
X121179Y37004*
X120918Y37104*
X120679Y37094*
X117139Y36294*
X121368Y40934*
X121468Y41104*
X121459Y41304*
X121379Y41504*
X121189Y41624*
X120989Y41674*
X117849Y41094*
X117159Y43444*
X117028Y43634*
X116879Y43734*
X116648Y43764*
X116448Y43714*
X116329Y43594*
X114849Y42084*
X113299Y43684*
X113049Y43764*
X112818Y43744*
X112639Y43624*
X112509Y43444*
X111849Y41084*
X108739Y41644*
X108528*
X108349Y41534*
X108209Y41294*
X108228Y41104*
X108448Y40804*
X112589Y36264*
X108829Y37124*
X108568Y37064*
X108409Y36914*
X108339Y36614*
X108409Y36354*
X108648Y36164*
X110268Y35534*
X110728Y35274*
X110839Y35164*
X110859Y35044*
X110849Y34994*
X110809Y34934*
X110728Y34864*
X110599Y34794*
X108909Y34804*
G75*
G03X108379Y34274J-530*
G01*
Y34254*
G75*
G03X108849Y33784I470*
G01*
X113959*
G75*
G02X114039Y33704J-80*
G01*
Y26064*
G75*
G03X114049Y26054I10*
G01*
X115648*
G75*
G03X115659Y26064J10*
G01*
Y33734*
G75*
G02X115709Y33784I50*
G01*
X115939*
X115668*
G36*
X120809*
G75*
G03X121289Y34264J480*
G01*
Y34294*
G75*
G03X120799Y34784I-490*
G01*
X119129*
G75*
G02X118829Y35084J300*
G01*
Y35254*
G75*
G02X118918Y35344I90*
G01*
X121089Y36174*
X121289Y36384*
X121359Y36564*
X121318Y36814*
X121179Y37004*
X120918Y37104*
X120679Y37094*
X117139Y36294*
X121368Y40934*
X121468Y41104*
X121459Y41304*
X121379Y41504*
X121189Y41624*
X120989Y41674*
X117849Y41094*
X117159Y43444*
X117028Y43634*
X116879Y43734*
X116648Y43764*
X116448Y43714*
X116329Y43594*
X114849Y42084*
X113299Y43684*
X113049Y43764*
X112818Y43744*
X112639Y43624*
X112509Y43444*
X111849Y41084*
X108739Y41644*
X108528*
X108349Y41534*
X108209Y41294*
X108228Y41104*
X108448Y40804*
X112589Y36264*
X108829Y37124*
X108568Y37064*
X108409Y36914*
X108339Y36614*
X108409Y36354*
X108648Y36164*
X110268Y35534*
X110728Y35274*
X110839Y35164*
X110859Y35044*
X110849Y34994*
X110809Y34934*
X110728Y34864*
X110599Y34794*
X108909Y34804*
G75*
G03X108379Y34274J-530*
G01*
Y34254*
G75*
G03X108849Y33784I470*
G01*
X113959*
G75*
G02X114039Y33704J-80*
G01*
Y26064*
G75*
G03X114049Y26054I10*
G01*
X115648*
G75*
G03X115659Y26064J10*
G01*
Y33734*
G75*
G02X115709Y33784I50*
G01*
X115939*
X115668*
G37*
X115844Y20984D02*
X120163D01*
Y31144*
X115844*
Y20984*
X116894Y8424D02*
G75*
G03X116485Y9412I-205J494D01*
G01*
G75*
G03X116894Y8424I205J-494*
G01*
Y43704D02*
G75*
G03X116512Y42780I-191J-462D01*
G01*
G75*
G03X116894Y43704I191J462*
G01*
X117460Y98127D02*
Y99080D01*
X117064D02*
X117857D01*
X118334Y98127D02*
Y99080D01*
X118889*
X119048Y99000*
X119127Y98842*
X119048Y98683*
X118889Y98603*
X118334*
X119762Y98127D02*
X120080D01*
X119921D02*
Y99080D01*
X119762Y98921*
X120953Y98207D02*
X121112Y98127D01*
X121270*
X121429Y98207*
X121509Y98365*
Y98842*
X121429Y99000*
X121270Y99080*
X121112*
X120953Y99000*
X120874Y98842*
Y98365*
X120953Y98207*
X121429Y99000*
X117115Y20984D02*
Y31144D01*
X117174Y43289D02*
X117874Y41064D01*
X120849Y41614*
X117198Y8914D02*
X117849Y11064D01*
X120749Y10539*
Y10564*
X117764Y71277D02*
Y72230D01*
X118319*
X118478Y72150*
X118557Y71992*
X118478Y71833*
X118319Y71753*
X117764*
X118319D02*
X118557Y71277D01*
X119192D02*
X119510D01*
X119351D02*
Y72230D01*
X119192Y72071*
X120383Y71357D02*
X120542Y71277D01*
X120700*
X120859Y71357*
X120939Y71515*
Y71992*
X120859Y72150*
X120700Y72230*
X120542*
X120383Y72150*
X120304Y71992*
Y71515*
X120383Y71357*
X120859Y72150*
X117789Y79514D02*
X114889D01*
Y78864*
X114689*
Y77164*
X115889*
Y76514*
X116789*
Y77164*
X117989*
Y78864*
X117789*
Y79514*
X118864Y88777D02*
Y89730D01*
X119419*
X119578Y89650*
X119657Y89492*
X119578Y89333*
X119419Y89253*
X118864*
X119419D02*
X119657Y88777D01*
X120134D02*
X120768Y89730D01*
X120134*
X118989Y85539D02*
Y82639D01*
X119639*
Y82439*
X121339*
Y83639*
X121989*
Y84539*
X121339*
Y85739*
X119639*
Y85539*
X118989*
X120214Y45677D02*
Y46630D01*
X120769*
X120928Y46550*
X121007Y46392*
X120928Y46233*
X120769Y46153*
X120214*
X120769D02*
X121007Y45677D01*
X122118D02*
X121484D01*
X122039Y46233*
X122118Y46392*
X122039Y46550*
X121880Y46630*
X121642*
X121484Y46550*
X122754Y45757D02*
X122912Y45677D01*
X123150*
X123309Y45757*
X123389Y45915*
Y45995*
X123309Y46153*
X123150Y46233*
X122754*
Y46630*
X123389*
X120839Y37089D02*
X113268Y35439D01*
X120864Y15019D02*
X113353Y16714D01*
Y16719*
X120898Y16034D02*
X114859Y18369D01*
X108709Y16019*
X121339Y40884D02*
X114853Y33774D01*
X121349Y10614D02*
G75*
G03X120698Y11264I-325J325D01*
G01*
G75*
G03X121349Y10614I325J-325*
G01*
Y15400D02*
G75*
G03X120382Y15655I-483J128D01*
G01*
G75*
G03X121349Y15400I484J-128*
G01*
Y36728D02*
G75*
G03X120382Y36473I-483J-128D01*
G01*
G75*
G03X121349Y36728I484J128*
G01*
Y41514D02*
G75*
G03X120698Y40864I-325J-325D01*
G01*
G75*
G03X121349Y41514I325J325*
G01*
X121359Y11179D02*
X114859Y18354D01*
X121989Y79514D02*
X119089D01*
Y78864*
X118889*
Y77164*
X120089*
Y76514*
X120989*
Y77164*
X122189*
Y78864*
X121989*
Y79514*
X122189Y72114D02*
Y69214D01*
X122839*
Y69014*
X124539*
Y70214*
X125189*
Y71114*
X124539*
Y72314*
X122839*
Y72114*
X122189*
X123057Y55186D02*
X122978Y55107D01*
X122819Y55027*
X122581*
X122422Y55107*
X122343Y55186*
X122264Y55345*
Y55662*
X122343Y55821*
X122422Y55900*
X122581Y55980*
X122819*
X122978Y55900*
X123057Y55821*
X123692Y55027D02*
X124010D01*
X123851D02*
Y55980D01*
X123692Y55821*
X125042Y55503D02*
X125200D01*
X125359Y55583*
X125439Y55742*
X125359Y55900*
X125200Y55980*
X125042*
X124883Y55900*
X124804Y55742*
X124883Y55583*
X125042Y55503*
X124883Y55424*
X124804Y55265*
X124883Y55107*
X125042Y55027*
X125200*
X125359Y55107*
X125439Y55265*
X125359Y55424*
X125200Y55503*
X122639Y65127D02*
Y66080D01*
X123194*
X123353Y66000*
X123432Y65842*
X123353Y65683*
X123194Y65603*
X122639*
X123194D02*
X123432Y65127D01*
X123909Y65207D02*
X124067Y65127D01*
X124305*
X124464Y65207*
X124543Y65365*
Y65445*
X124464Y65603*
X124305Y65683*
X123909*
Y66080*
X124543*
X123064Y88577D02*
Y89530D01*
X123619*
X123778Y89450*
X123857Y89292*
X123778Y89133*
X123619Y89053*
X123064*
X123619D02*
X123857Y88577D01*
X124334Y88815D02*
X124413Y88974D01*
X124572Y89053*
X124730*
X124889Y88974*
X124968Y88815*
X124889Y88657*
X124730Y88577*
X124572*
X124413Y88657*
X124334Y88815*
Y89053*
X124413Y89292*
X124572Y89450*
X124730Y89530*
X123314Y56727D02*
Y57680D01*
X123869*
X124028Y57600*
X124107Y57442*
X124028Y57283*
X123869Y57203*
X123314*
X123869D02*
X124107Y56727D01*
X124742D02*
X125060D01*
X124901D02*
Y57680D01*
X124742Y57521*
X126250Y56727D02*
Y57680D01*
X125853Y57045*
X126489*
X124564Y45727D02*
Y46680D01*
X125119*
X125278Y46600*
X125357Y46442*
X125278Y46283*
X125119Y46203*
X124564*
X125119D02*
X125357Y45727D01*
X126468D02*
X125834D01*
X126389Y46283*
X126468Y46442*
X126389Y46600*
X126230Y46680*
X125992*
X125834Y46600*
X127103Y45965D02*
X127183Y46124D01*
X127342Y46203*
X127500*
X127659Y46124*
X127739Y45965*
X127659Y45807*
X127500Y45727*
X127342*
X127183Y45807*
X127103Y45965*
Y46203*
X127183Y46442*
X127342Y46600*
X127500Y46680*
X125810Y43927D02*
Y44880D01*
X125414D02*
X126207D01*
X126684Y43927D02*
Y44880D01*
X127239*
X127398Y44800*
X127477Y44642*
X127398Y44483*
X127239Y44403*
X126684*
X128033Y44007D02*
X128192Y43927D01*
X128350*
X128509Y44007*
X128589Y44165*
X128509Y44324*
X128350Y44403*
X128192*
X128350D02*
X128509Y44483D01*
X128589Y44642*
X128509Y44800*
X128350Y44880*
X128192*
X128033Y44800*
X126357Y34086D02*
X126278Y34007D01*
X126119Y33927*
X125881*
X125722Y34007*
X125643Y34086*
X125564Y34245*
Y34562*
X125643Y34721*
X125722Y34800*
X125881Y34880*
X126119*
X126278Y34800*
X126357Y34721*
X126992Y33927D02*
X127310D01*
X127151D02*
Y34880D01*
X126992Y34721*
X128183Y34007D02*
X128342Y33927D01*
X128500*
X128659Y34007*
X128738Y34165*
Y34642*
X128659Y34800*
X128500Y34880*
X128342*
X128183Y34800*
X128103Y34642*
Y34165*
X128183Y34007*
X128659Y34800*
X128152Y83839D02*
X129104D01*
Y83283*
X129025Y83125*
X128866Y83045*
X128707Y83125*
X128628Y83283*
Y83839*
Y83283D02*
X128152Y83045D01*
Y82410D02*
Y82093D01*
Y82251D02*
X129104D01*
X128945Y82410*
X128152Y80664D02*
Y81299D01*
X128707Y80743*
X128866Y80664*
X129025Y80743*
X129104Y80902*
Y81140*
X129025Y81299*
X128202Y88039D02*
X129154D01*
Y87483*
X129075Y87325*
X128916Y87245*
X128757Y87325*
X128678Y87483*
Y88039*
Y87483D02*
X128202Y87245D01*
Y86610D02*
Y86293D01*
Y86452D02*
X129154D01*
X128995Y86610*
X128281Y85420D02*
X128202Y85261D01*
Y85102*
X128281Y84943*
X128440Y84864*
X128599Y84943*
X128678Y85102*
Y85261*
Y85102D02*
X128757Y84943D01*
X128916Y84864*
X129075Y84943*
X129154Y85102*
Y85261*
X129075Y85420*
X128818Y30034D02*
Y29399D01*
X128501Y29717D02*
X129136D01*
X130557Y50536D02*
X130478Y50457D01*
X130319Y50377*
X130081*
X129922Y50457*
X129843Y50536*
X129764Y50695*
Y51012*
X129843Y51171*
X129922Y51250*
X130081Y51330*
X130319*
X130478Y51250*
X130557Y51171*
X131192Y50377D02*
X131510D01*
X131351D02*
Y51330D01*
X131192Y51171*
X132700Y50377D02*
Y51330D01*
X132304Y50695*
X132939*
X130789Y72289D02*
X127889D01*
Y71639*
X127689*
Y69939*
X128889*
Y69289*
X129789*
Y69939*
X130988*
Y71639*
X130789*
Y72289*
X133154Y99889D02*
X132202D01*
Y99095*
Y98302D02*
X132837D01*
X133075D02*
X132202Y97349*
X132837D01*
X132757D02*
X132837Y97270D01*
Y97111*
X132757Y97032*
X132519*
X132757D02*
X132837Y96952D01*
Y96793*
X132757Y96714*
X132202*
Y95762D02*
X132837D01*
X133075D02*
X132837Y94650*
Y94333D01*
X132995Y94492D02*
X132281D01*
X132202Y94412*
Y94333*
X132281Y94253*
X132440Y93539D02*
X132281Y93460D01*
X132202Y93301*
Y92983*
X132281Y92825*
X132440Y92745*
X132599Y92825*
X132678Y92983*
Y93301*
X132757Y93460*
X132916Y93539*
X133075Y93460*
X133154Y93301*
Y92983*
X133075Y92825*
X132916Y92745*
X132837Y92269D02*
X132281D01*
X132202Y92190*
Y92031*
X132281Y91952*
X132519*
X132281D02*
X132202Y91872D01*
Y91713*
X132281Y91634*
X132837*
X132490Y18439D02*
X132331Y18360D01*
X132252Y18201*
Y17883*
X132331Y17725*
X132490Y17645*
X132649Y17725*
X132728Y17883*
Y18201*
X132807Y18360*
X132966Y18439*
X133125Y18360*
X133204Y18201*
Y17883*
X133125Y17725*
X132966Y17645*
X132887Y17010D02*
Y16693D01*
X133045Y16852D02*
X132331D01*
X132252Y16772*
Y16693*
X132331Y16613*
X132807Y15899D02*
X132887Y15740D01*
Y15502*
X132807Y15343*
X132649Y15264*
X132410*
X132331Y15343*
X132252Y15502*
Y15661*
X132331Y15820*
X132410Y15899*
X132490*
X132569Y15820*
X132649Y15661*
Y15502*
X132569Y15343*
X132490Y15264*
X132410D02*
X132252D01*
X132887Y14470D02*
Y14153D01*
X133045Y14312D02*
X132331D01*
X132252Y14232*
Y14153*
X132331Y14073*
X132887Y13359D02*
X132490D01*
X132331Y13280*
X132252Y13121*
Y12962*
X132331Y12803*
X132490Y12724*
X132887D02*
X132252D01*
X132331Y12089D02*
X132252Y11930D01*
Y11613*
X132331Y11454*
X132490*
X132569Y11613*
Y11930*
X132649Y12089*
X132807*
X132887Y11930*
Y11613*
X132807Y11454*
X133204Y10819D02*
X132252D01*
Y10025*
Y9549D02*
X133204D01*
Y8755*
X132728Y8914D02*
Y9549D01*
X132252D02*
Y8755D01*
Y8279D02*
X133204D01*
Y7803*
X133125Y7644*
X133045Y7565*
X132887Y7485*
X132569*
X132410Y7565*
X132331Y7644*
X132252Y7803*
Y8279*
X132302Y37239D02*
X133254D01*
Y36445*
X132778Y36604D02*
Y37239D01*
X132302Y35652D02*
X132937D01*
X133175D02*
X132540Y34699*
X132381Y34620D01*
X132302Y34461*
Y34302*
X132381Y34143*
X132540Y34064*
X132699*
X132857Y34143*
X132937Y34302*
Y34461*
X132857Y34620*
X132699Y34699*
X132302D02*
X133254D01*
X132381Y32794D02*
X132302Y32873D01*
Y33032*
Y33191*
X132381Y33350*
X132540Y33429*
X132778*
X132857Y33350*
X132937Y33191*
Y33032*
X132857Y32873*
X132778Y32794*
X132699*
X132619Y32873*
X132540Y33032*
Y33191*
X132619Y33350*
X132699Y33429*
X132302Y32159D02*
X132937D01*
X132699D02*
X132857Y32080D01*
X132937Y31921*
Y31762*
X132857Y31603*
X132302Y81089D02*
X133254D01*
Y80613*
X133175Y80454*
X133095Y80375*
X132937Y80295*
X132619*
X132460Y80375*
X132381Y80454*
X132302Y80613*
Y81089*
Y79819D02*
X132937D01*
X132699D02*
X132857Y79740D01*
X132937Y79581*
Y79422*
X132857Y79263*
X132302Y78232D02*
X132937D01*
X133175D02*
X132937Y77279*
X132302Y76962D01*
X132937Y76644*
X132381Y75374D02*
X132302Y75453D01*
Y75612*
Y75771*
X132381Y75930*
X132540Y76009*
X132778*
X132857Y75930*
X132937Y75771*
Y75612*
X132857Y75453*
X132778Y75374*
X132699*
X132619Y75453*
X132540Y75612*
Y75771*
X132619Y75930*
X132699Y76009*
X132302Y74739D02*
X132937D01*
X132699D02*
X132857Y74660D01*
X132937Y74501*
Y74342*
X132857Y74183*
X133254Y73469D02*
X132302D01*
Y72675*
Y72199D02*
X133254D01*
Y71405*
X132778Y71564D02*
Y72199D01*
X132302D02*
Y71405D01*
Y70929D02*
X133254D01*
Y70453*
X133175Y70294*
X133095Y70215*
X132937Y70135*
X132619*
X132460Y70215*
X132381Y70294*
X132302Y70453*
Y70929*
X132602Y61789D02*
X133554D01*
Y61233*
X133475Y61075*
X133316Y60995*
X133157Y61075*
X133078Y61233*
Y61789*
X132840Y60519D02*
X132681Y60440D01*
X132602Y60281*
Y60122*
X132681Y59963*
X132840Y59884*
X132999*
X133157Y59963*
X133237Y60122*
Y60281*
X133157Y60440*
X132999Y60519*
X132840*
X132681Y59249D02*
X132602Y59090D01*
Y58773*
X132681Y58614*
X132840*
X132919Y58773*
Y59090*
X132999Y59249*
X133157*
X133237Y59090*
Y58773*
X133157Y58614*
X132602Y57662D02*
X133237D01*
X133475D02*
X133237Y56550*
Y56233D01*
X133395Y56392D02*
X132681D01*
X132602Y56312*
Y56233*
X132681Y56153*
X132602Y55122D02*
X133237D01*
X133475D02*
X132840Y54169*
X132681Y54090D01*
X132602Y53931*
Y53772*
X132681Y53613*
X132840Y53534*
X132999*
X133157Y53613*
X133237Y53772*
Y53931*
X133157Y54090*
X132999Y54169*
X132840*
X132602Y52899D02*
X133237D01*
X132999D02*
X133157Y52820D01*
X133237Y52661*
Y52502*
X133157Y52343*
X132999Y52264*
X132602*
D02*
D12*
X674Y87179D02*
Y70669D01*
X12104*
Y87179*
X674*
X62528Y13329D02*
X25699D01*
Y1899*
X62528*
Y13329*
X130109Y64059D02*
X97089D01*
Y58979*
X130109*
Y64059*
X133997Y37504D02*
Y20994D01*
X145427*
Y37504*
X133997*
Y61804D02*
Y40214D01*
X145427*
Y61804*
X133997*
Y81204D02*
Y64694D01*
X145427*
Y81204*
X133997*
X134024Y18304D02*
Y1794D01*
X145454*
Y18304*
X134024*
Y100204D02*
Y83694D01*
X145454*
Y100204*
X134024*
D02*
D13*
X71619Y42844D02*
G75*
G03Y53844J5500D01*
G01*
G75*
G03Y42844J-5500*
G01*
X71809Y89609D02*
G75*
G03Y78609J-5500D01*
G01*
G75*
G03Y89609J5500*
G01*
X79694Y47759D02*
G75*
G03X90693I5500D01*
G01*
G75*
G03X79694I-5500*
G01*
X127163Y33334D02*
G75*
G03Y22334J-5500D01*
G01*
G75*
G03Y33334J5500*
G01*
D02*
D14*
X19245Y95744D02*
X39514D01*
Y100367*
X19245*
Y95744*
X97074Y84834D02*
G75*
G03Y85444J305D01*
G01*
Y86860D02*
Y83418D01*
X98387Y69184D02*
G75*
G03Y69794J305D01*
G01*
Y70662D02*
Y68316D01*
X102053Y83418D02*
Y86860D01*
X103290Y68316D02*
Y70662D01*
X126215Y53980D02*
Y53198D01*
X129000Y53744D02*
G75*
G03Y53434I263J-155D01*
G01*
X129263Y53198D02*
Y53980D01*
D02*
D15*
X15014Y98430D02*
Y97715D01*
X15093Y97557*
X15252Y97477*
X15569*
X15728Y97557*
X15807Y97715*
Y98430*
X16442Y97477D02*
X16760D01*
X16601D02*
Y98430D01*
X16442Y98271*
X17554Y97477D02*
X18189Y98430D01*
X17554*
X95935Y82231D02*
Y82866D01*
X96252Y82390D02*
X95617Y82707D01*
Y82390D02*
X96252Y82707D01*
X97946Y66238D02*
Y66873D01*
X98264Y66397D02*
X97629Y66714D01*
Y66397D02*
X98264Y66714D01*
X104754Y70289D02*
X104040D01*
X103881Y70210*
X103802Y70051*
Y69733*
X103881Y69575*
X104040Y69495*
X104754*
X103802Y69019D02*
X104754Y68384D01*
Y69019*
X114139Y79898D02*
Y80613D01*
X114059Y80772*
X113900Y80851*
X113583*
X113424Y80772*
X113345Y80613*
Y79898*
X112710Y80851D02*
X112392D01*
X112551D02*
Y79898D01*
X112710Y80057*
X111440Y80851D02*
X111122D01*
X111281D02*
Y79898D01*
X111440Y80057*
X115189Y86898D02*
Y87613D01*
X115109Y87772*
X114950Y87851*
X114633*
X114474Y87772*
X114395Y87613*
Y86898*
X113760Y87851D02*
X113442D01*
X113601D02*
Y86898D01*
X113760Y87057*
X112569Y87772D02*
X112410Y87851D01*
X112252*
X112093Y87772*
X112014Y87613*
Y87137*
X112093Y86978*
X112252Y86898*
X112410*
X112569Y86978*
X112648Y87137*
Y87613*
X112569Y87772*
X112093Y86978*
X118679Y86089D02*
X117965D01*
X117806Y86010*
X117727Y85851*
Y85533*
X117806Y85375*
X117965Y85295*
X118679*
X117727Y84660D02*
Y84343D01*
Y84501D02*
X118679D01*
X118520Y84660*
X117727Y83152D02*
X118679D01*
X118044Y83549*
Y82914*
X118339Y79823D02*
Y80538D01*
X118259Y80697*
X118100Y80776*
X117783*
X117624Y80697*
X117545Y80538*
Y79823*
X116910Y80776D02*
X116592D01*
X116751D02*
Y79823D01*
X116910Y79982*
X115799Y80697D02*
X115640Y80776D01*
X115402*
X115243Y80697*
X115164Y80538*
Y80458*
X115243Y80300*
X115402Y80220*
X115799*
Y79823*
X115164*
X121879Y72664D02*
X121165D01*
X121006Y72585*
X120927Y72426*
Y72108*
X121006Y71950*
X121165Y71870*
X121879*
X120927Y71235D02*
Y70918D01*
Y71077D02*
X121879D01*
X121720Y71235*
X121165Y70124D02*
X121323Y70045D01*
X121403Y69886*
Y69727*
X121323Y69568*
X121165Y69489*
X121006Y69568*
X120927Y69727*
Y69886*
X121006Y70045*
X121165Y70124*
X121403*
X121641Y70045*
X121800Y69886*
X121879Y69727*
X122539Y79823D02*
Y80538D01*
X122459Y80697*
X122300Y80776*
X121983*
X121824Y80697*
X121745Y80538*
Y79823*
X121110Y80776D02*
X120792D01*
X120951D02*
Y79823D01*
X121110Y79982*
X119919Y80697D02*
X119760Y80776D01*
X119602*
X119443Y80697*
X119364Y80538*
X119443Y80379*
X119602Y80300*
X119760*
X119602D02*
X119443Y80220D01*
X119364Y80062*
X119443Y79903*
X119602Y79823*
X119760*
X119919Y79903*
X126964Y51330D02*
Y50615D01*
X127043Y50457*
X127202Y50377*
X127519*
X127678Y50457*
X127757Y50615*
Y51330*
X128313Y50457D02*
X128472Y50377D01*
X128630*
X128789Y50457*
X128869Y50615*
X128789Y50774*
X128630Y50853*
X128472*
X128630D02*
X128789Y50933D01*
X128869Y51092*
X128789Y51250*
X128630Y51330*
X128472*
X128313Y51250*
X129625Y55545D02*
Y54910D01*
X129308Y55386D02*
X129943Y55068D01*
Y55386D02*
X129308Y55068D01*
X131339Y72598D02*
Y73313D01*
X131259Y73472*
X131100Y73551*
X130783*
X130624Y73472*
X130545Y73313*
Y72598*
X129910Y73551D02*
X129592D01*
X129751D02*
Y72598D01*
X129910Y72757*
X128164Y73551D02*
X128798D01*
X128243Y72995*
X128164Y72837*
X128243Y72678*
X128402Y72598*
X128640*
X128798Y72678*
D02*
D16*
X25103Y82612D02*
X23325D01*
Y86066*
X25103*
Y82612*
Y86812D02*
X23325D01*
Y90266*
X25103*
Y86812*
X33441Y89728D02*
Y87950D01*
X29986*
Y89728*
X33441*
X49978Y96589D02*
G75*
G03X44899I-2540D01*
G01*
G75*
G03X49978I2540*
G01*
X74279Y96597D02*
G75*
G03X69198I-2540D01*
G01*
G75*
G03X74279I2540*
G01*
X74839Y70879D02*
G75*
G03Y65799J-2540D01*
G01*
G75*
G03Y70879J2540*
G01*
X85614Y99229D02*
G75*
G03Y94149J-2540D01*
G01*
G75*
G03Y99229J2540*
G01*
X91939Y74429D02*
G75*
G03Y69349J-2540D01*
G01*
G75*
G03Y74429J2540*
G01*
X94299Y86816D02*
X96078D01*
Y83362*
X94299*
Y86816*
X95000Y69816D02*
X96778D01*
Y66362*
X95000*
Y69816*
X96741Y91378D02*
Y89600D01*
X93286*
Y91378*
X96741*
X97389Y99203D02*
G75*
G03Y94123J-2540D01*
G01*
G75*
G03Y99203J2540*
G01*
X98037Y77379D02*
X99815D01*
Y73924*
X98037*
Y77379*
X99799Y93166D02*
X101578D01*
Y89712*
X99799*
Y93166*
X100789Y54654D02*
G75*
G03Y49574J-2540D01*
G01*
G75*
G03Y54654J2540*
G01*
X101628Y80066D02*
Y78288D01*
X98174*
Y80066*
X101628*
X102499Y93154D02*
X104278D01*
Y89699*
X102499*
Y93154*
X104427Y84962D02*
X102650D01*
Y88416*
X104427*
Y84962*
X104690Y78049D02*
X102912D01*
Y81504*
X104690*
Y78049*
X106089Y99154D02*
G75*
G03Y94074J-2540D01*
G01*
G75*
G03Y99154J2540*
G01*
X106339Y75629D02*
G75*
G03Y70549J-2540D01*
G01*
G75*
G03Y75629J2540*
G01*
X107749Y79816D02*
X109528D01*
Y76362*
X107749*
Y79816*
X108966Y82478D02*
Y80700D01*
X105511*
Y82478*
X108966*
X110411Y80700D02*
Y82478D01*
X113866*
Y80700*
X110411*
X114789Y99154D02*
G75*
G03Y94074J-2540D01*
G01*
G75*
G03Y99154J2540*
G01*
X115924Y88341D02*
X117703D01*
Y84887*
X115924*
Y88341*
X117016Y70853D02*
Y69075D01*
X113561*
Y70853*
X117016*
X117761Y69075D02*
Y70853D01*
X121216*
Y69075*
X117761*
X119116Y74353D02*
Y72575D01*
X115661*
Y74353*
X119116*
X122216Y88478D02*
Y86700D01*
X118761*
Y88478*
X122216*
X122874Y54766D02*
X124653D01*
Y51312*
X122874*
Y54766*
X123491Y48828D02*
Y47050D01*
X120036*
Y48828*
X123491*
X124878Y84812D02*
X123100D01*
Y88266*
X124878*
Y84812*
X125266Y68178D02*
Y66400D01*
X121811*
Y68178*
X125266*
X125949Y83916D02*
X127728D01*
Y80462*
X125949*
Y83916*
X127139Y43604D02*
G75*
G03Y38524J-2540D01*
G01*
G75*
G03Y43604J2540*
G01*
X127728Y84762D02*
X125949D01*
Y88216*
X127728*
Y84762*
X127816Y48828D02*
Y47050D01*
X124361*
Y48828*
X127816*
X130516Y57978D02*
Y56200D01*
X127061*
Y57978*
X130516*
X132128Y51862D02*
X130350D01*
Y55316*
X132128*
Y51862*
X0Y0D02*
M02*
