%FSLAX33Y33*%
%MOMM*%
G04 EasyPC Gerber Version 17.0 Build 3379 *
%ADD90R,0.50800X1.16840*%
%ADD98R,0.55880X1.60020*%
%ADD92R,0.55880X1.98120*%
%ADD93R,0.60000X0.70000*%
%ADD94R,1.29540X1.52400*%
%ADD89R,1.80000X1.80000*%
%ADD96R,1.90000X1.90000*%
%ADD84R,2.80000X2.80000*%
%ADD11C,0.12700*%
%ADD12C,0.25400*%
%ADD82C,0.30000*%
%ADD103C,0.40000*%
%ADD102C,0.80000*%
%ADD104C,0.90000*%
%ADD105C,1.10000*%
%ADD79C,1.20000*%
%ADD101C,1.50000*%
%ADD88C,1.70000*%
%ADD97C,1.90000*%
%ADD85C,2.00000*%
%ADD100C,2.10000*%
%ADD81C,2.20000*%
%ADD86C,2.20000*%
%ADD83C,3.00000*%
%ADD87C,5.00000*%
%ADD80C,6.80000*%
%ADD95R,0.70000X0.60000*%
%ADD91R,1.52400X1.29540*%
%ADD99R,2.30000X1.80000*%
X0Y0D02*
D02*
D11*
X6678Y15239D02*
X8039Y16599D01*
Y24489*
X8014Y24514*
Y31514*
X9764Y33264*
Y35489*
X8339Y36914*
X3489*
X2163Y35589*
Y16589*
X3513Y15239*
X6678*
G36*
X8039Y16599*
Y24489*
X8014Y24514*
Y31514*
X9764Y33264*
Y35489*
X8339Y36914*
X3489*
X2163Y35589*
Y16589*
X3513Y15239*
X6678*
G37*
X22914Y99064D02*
X15789D01*
Y92214*
X9464Y85889*
X3489*
X2114Y84514*
Y79439*
X2588Y78964*
X5514*
X25639Y78914*
Y76939*
X26264Y76314*
X28589*
X28989Y76714*
Y81739*
X28789Y81939*
X22639*
X22464Y82114*
Y90689*
X23664Y91889*
Y93364*
X22914Y94114*
Y99064*
G36*
X15789*
Y92214*
X9464Y85889*
X3489*
X2114Y84514*
Y79439*
X2588Y78964*
X5514*
X25639Y78914*
Y76939*
X26264Y76314*
X28589*
X28989Y76714*
Y81739*
X28789Y81939*
X22639*
X22464Y82114*
Y90689*
X23664Y91889*
Y93364*
X22914Y94114*
Y99064*
G37*
X36189Y98683D02*
Y95064D01*
X34514Y93389*
Y73564*
X29889Y68939*
X25364*
X2163Y45739*
Y33214*
X4339Y31039*
X7899*
X10789Y33929*
Y36789*
X12089Y38089*
X12139Y38114*
X43739Y69714*
Y98683*
X36189*
G36*
Y95064*
X34514Y93389*
Y73564*
X29889Y68939*
X25364*
X2163Y45739*
Y33214*
X4339Y31039*
X7899*
X10789Y33929*
Y36789*
X12089Y38089*
X12139Y38114*
X43739Y69714*
Y98683*
X36189*
G37*
X118278Y24839D02*
G75*
G02X118999I360J-1315D01*
G01*
X119564*
X120789Y26064*
X119614Y27239*
X88714*
X87914Y28039*
Y48289*
X87139Y49064*
X86214*
X85514Y48364*
Y44924*
X85674Y44764*
Y39984*
X85664Y39974*
Y28064*
X84989Y27389*
X61664*
X59864Y25589*
Y15864*
X60614Y15114*
X63414*
X64064Y15764*
Y23839*
X65064Y24839*
X92114*
X96539Y20414*
X100514*
X104939Y24839*
X118278*
G36*
G75*
G02X118999I360J-1315*
G01*
X119564*
X120789Y26064*
X119614Y27239*
X88714*
X87914Y28039*
Y48289*
X87139Y49064*
X86214*
X85514Y48364*
Y44924*
X85674Y44764*
Y39984*
X85664Y39974*
Y28064*
X84989Y27389*
X61664*
X59864Y25589*
Y15864*
X60614Y15114*
X63414*
X64064Y15764*
Y23839*
X65064Y24839*
X92114*
X96539Y20414*
X100514*
X104939Y24839*
X118278*
G37*
X137964Y28489D02*
X136714Y27239D01*
X118939*
X118364Y26664*
Y25339*
X118814Y24889*
X141189*
X141589Y25289*
Y28064*
X141164Y28489*
X137964*
G36*
X136714Y27239*
X118939*
X118364Y26664*
Y25339*
X118814Y24889*
X141189*
X141589Y25289*
Y28064*
X141164Y28489*
X137964*
G37*
D02*
D12*
X24214Y83387D02*
Y81089D01*
X25564Y79739*
X24214Y87587D02*
Y85292D01*
X24274Y97522D02*
Y89552D01*
X24214Y89492*
X34485Y97522D02*
X31264Y94301D01*
Y90789*
X31664Y90389*
X32364*
X32664Y90089*
Y88889*
X32716Y88937*
Y88839*
X32666*
X47439Y96589D02*
Y96199D01*
X51649Y91989*
X103389*
Y92379*
X95189Y84137D02*
X97461D01*
X97889Y84564*
X100214*
X95314Y93614D02*
X89814Y99114D01*
X26764*
X25964Y98314*
Y92442*
X25976*
X95889Y67137D02*
Y65064D01*
X95914Y65039*
X95966Y90489D02*
X100686D01*
X100689Y90487*
X97689Y56564D02*
X95239Y59014D01*
Y62539*
X86114Y71664*
Y79389*
X82611Y82892*
X98926Y76604D02*
Y79154D01*
X98948Y79177*
X98929Y82485D02*
Y79197D01*
X98948Y79177*
X98929Y87793D02*
Y86579D01*
X98391Y86042*
X95189*
X98933Y67127D02*
X95898D01*
X95889Y67137*
X98933Y71851D02*
Y74692D01*
X98926Y74699*
X98933Y71851D02*
X91976D01*
X91939Y71889*
X98948Y79177D02*
X95226D01*
X92739Y81664*
Y89167*
X94061Y90489*
X100198Y82485D02*
Y84549D01*
X100214Y84564*
X100198Y82485D02*
Y81229D01*
X100854Y80574*
Y79177*
X100198Y87793D02*
Y89997D01*
X100689Y90487*
X100204Y71851D02*
Y76054D01*
X100839Y76689*
Y79162*
X100689Y92392D02*
X103376D01*
X103389Y92379*
X100899Y60249D02*
X99614Y61534D01*
Y64364*
X100204Y64954*
Y67127*
X100899Y62789D02*
Y64199D01*
X101474Y64774*
Y67127*
X101151Y69514D02*
X101129D01*
X101104Y69489*
X101474Y71851D02*
Y73524D01*
X101539Y73589*
X105839*
X106339Y73089*
X102743Y67127D02*
Y65109D01*
X102989Y64864*
X105239*
X105978Y64124*
Y62789*
X103389Y90474D02*
X105523D01*
X105539Y90489*
X103539Y87642D02*
X103291D01*
X100214Y84564*
X108191Y81589D02*
Y79489D01*
X108639Y79042*
Y77137D02*
Y75989D01*
X109689Y74939*
X108639Y79042D02*
X110983D01*
X111189Y79089*
X111123Y81526*
X111186Y81589*
X112139Y77089D02*
Y74889D01*
X114336Y72692*
Y69964*
X112239Y86089D02*
X110268Y86034D01*
X109723Y85489*
X106339*
X113089Y79089D02*
X113155Y81526D01*
X113091Y81589*
Y83874*
X113189Y84089*
X113599Y62789D02*
X112339Y61529D01*
Y57264*
X110299Y55224*
X91068*
X114139Y86089D02*
Y88564D01*
X106089Y96614*
X114139Y86089D02*
X114214D01*
X114205Y78280*
X113964Y78039*
X111164*
X110989Y77864*
Y65589*
X109764Y64364*
Y61569*
X108518Y60324*
Y60249*
X114336Y69964D02*
Y67392D01*
X115039Y66689*
X122586*
Y67289*
X115389Y79014D02*
X115386Y80712D01*
X116164Y81489*
X117539*
X116241Y69964D02*
X118536D01*
X116339Y77014D02*
Y73562D01*
X116436Y73464*
X116814Y85662D02*
Y82214D01*
X117539Y81489*
X117289Y79014D02*
X117291Y76512D01*
X118114Y75689*
X120489*
X120539Y75639*
X118341Y73464D02*
X121139D01*
X118536Y69964D02*
Y73269D01*
X118341Y73464*
X119489Y83139D02*
X118411Y83137D01*
X117539Y82264*
Y81489*
X119536Y87589D02*
X116836D01*
X116814Y87567*
X119536Y87589D02*
Y85245D01*
X119489Y85039*
X119589Y79014D02*
X119586Y80867D01*
X118964Y81489*
X117539*
X120539Y75639D02*
Y75589D01*
X121839Y74289*
X123139*
X123739Y73689*
Y69189*
X124491Y68437*
Y67289*
X120539Y77014D02*
Y75639D01*
X120811Y47939D02*
Y53137D01*
X121441Y87589D02*
Y89962D01*
X114789Y96614*
X121489Y84089D02*
Y79014D01*
Y84089D02*
X123639D01*
X123989Y84439*
Y85587*
X122689Y69714D02*
X122614D01*
Y69739*
X122564*
X120805Y67980*
X122689Y71614D02*
X120930Y71680D01*
X120639Y71389*
Y70162*
X120441Y69964*
X122716Y47939D02*
Y51112D01*
X121939Y51889*
X123239Y75564D02*
X124764D01*
X125564Y76364*
Y82949*
X125754Y83139*
X126543*
X126554Y83129*
X126839Y83142*
X123764Y52087D02*
Y50214D01*
X123789Y50189*
X127039*
X127739Y50889*
Y52522*
X123989Y87492D02*
X121539D01*
X121441Y87589*
X124389Y76839D02*
Y83114D01*
X125389Y84114*
Y87144*
X125023Y87509*
X123974*
X123914Y87449*
X123989Y87492*
X124491Y67289D02*
X128639D01*
X129339Y67989*
Y69789*
X124689Y70664D02*
X139457D01*
X139712Y70409*
X125136Y47939D02*
X122716D01*
X126789Y52522D02*
X125530D01*
X125514Y52539*
X126789Y54656D02*
Y55614D01*
X125014Y57389*
Y61534*
X123759Y62789*
X126839Y81237D02*
Y76939D01*
X126689Y76789*
X126839Y85537D02*
Y83142D01*
Y87442D02*
X126761D01*
X120889Y93314*
Y96589*
X127041Y47939D02*
Y41162D01*
X127139Y41064*
Y28735*
X127093Y28689*
X128689Y54656D02*
X128803Y54542D01*
X130264*
X129738D02*
X128803D01*
X128689Y54656*
X129741Y57089D02*
Y54544D01*
X129738Y54542*
X130264D02*
X129738D01*
X130289Y71789D02*
X130339Y71881D01*
Y85064*
X136873Y91598*
X136889*
X139739Y94448*
Y94489*
X131239Y52637D02*
X128803D01*
X128689Y52522*
X131239Y52637D02*
X138084D01*
X139712Y51009*
X131239Y54542D02*
X130264D01*
X131239D02*
X138164D01*
X139712Y56089*
D02*
D79*
X79794Y56849D03*
X95914Y65039D03*
X101151Y69514D03*
X105539Y90489D03*
X109689Y74939D03*
X117539Y81489D03*
X120889Y53214D03*
Y96589D03*
X121139Y73464D03*
X121939Y51889D03*
X123239Y75564D03*
X123789Y50189D03*
X124389Y76839D03*
X125514Y52539D03*
X126689Y76789D03*
X128139Y14714D03*
D02*
D80*
X7064Y7889D03*
Y93889D03*
X90064Y60889D03*
X127064Y7889D03*
Y93889D03*
D02*
D81*
X95189Y88114D03*
X103539Y83389D03*
D02*
D82*
X48414Y75989D02*
X50214D01*
X49314Y75239*
X50214Y74489*
X48414*
X48864Y73589D02*
X48564Y73439D01*
X48414Y73139*
Y72839*
X48564Y72539*
X48864Y72389*
X49164*
X49464Y72539*
X49614Y72839*
Y73139*
X49464Y73439*
X49164Y73589*
X48864*
X49614Y70889D02*
Y70289D01*
X49914Y70589D02*
X48564D01*
X48414Y70439*
Y70289*
X48564Y70139*
X48864Y68789D02*
X48564Y68639D01*
X48414Y68339*
Y68039*
X48564Y67739*
X48864Y67589*
X49164*
X49464Y67739*
X49614Y68039*
Y68339*
X49464Y68639*
X49164Y68789*
X48864*
X48414Y66389D02*
X49614D01*
X49164D02*
X49464Y66239D01*
X49614Y65939*
Y65639*
X49464Y65339*
X49014Y63989D02*
Y62789D01*
X48714Y60089D02*
X48564Y60239D01*
X48414Y60539*
Y60989*
X48564Y61289*
X48714Y61439*
X49014Y61589*
X49614*
X49914Y61439*
X50064Y61289*
X50214Y60989*
Y60539*
X50064Y60239*
X49914Y60089*
X48864Y59189D02*
X48564Y59039D01*
X48414Y58739*
Y58439*
X48564Y58139*
X48864Y57989*
X49164*
X49464Y58139*
X49614Y58439*
Y58739*
X49464Y59039*
X49164Y59189*
X48864*
X48414Y56789D02*
X49614D01*
X49164D02*
X49464Y56639D01*
X49614Y56339*
Y56039*
X49464Y55739*
X49164Y55589*
X48414*
X49614Y54089D02*
Y53489D01*
X49914Y53789D02*
X48564D01*
X48414Y53639*
Y53489*
X48564Y53339*
X48414Y51989D02*
X49614D01*
X49164D02*
X49464Y51839D01*
X49614Y51539*
Y51239*
X49464Y50939*
X48864Y49589D02*
X48564Y49439D01*
X48414Y49139*
Y48839*
X48564Y48539*
X48864Y48389*
X49164*
X49464Y48539*
X49614Y48839*
Y49139*
X49464Y49439*
X49164Y49589*
X48864*
X48414Y46439D02*
Y46589D01*
X50214*
X48414Y44039D02*
Y44189D01*
X50214*
X48564Y41189D02*
X48414Y41339D01*
Y41639*
Y41939*
X48564Y42239*
X48864Y42389*
X49314*
X49464Y42239*
X49614Y41939*
Y41639*
X49464Y41339*
X49314Y41189*
X49164*
X49014Y41339*
X48864Y41639*
Y41939*
X49014Y42239*
X49164Y42389*
X48414Y39989D02*
X49614D01*
X49164D02*
X49464Y39839D01*
X49614Y39539*
Y39239*
X49464Y38939*
X50214Y35189D02*
X48414Y34439D01*
X50214Y33689*
X48414Y32489D02*
Y31889D01*
Y32189D02*
X50214D01*
X49914Y32489*
X48414Y30239D02*
X48564Y30089D01*
X48714Y30239*
X48564Y30389*
X48414Y30239*
X48564Y27839D02*
X48414Y27539D01*
Y27239*
X48564Y26939*
X48864Y26789*
X49764*
X50064Y26939*
X50214Y27239*
Y27539*
X50064Y27839*
X49764Y27989*
X48864*
X48564Y27839*
X50064Y26939*
X45533Y74939D02*
X45983Y75239D01*
X47033*
X47334Y74939*
X45834Y72089D02*
X45684Y72239D01*
X45533Y72539*
Y72989*
X45684Y73289*
X45834Y73439*
X46133Y73589*
X46733*
X47033Y73439*
X47184Y73289*
X47334Y72989*
Y72539*
X47184Y72239*
X47033Y72089*
X45533Y70739D02*
X45983Y70439D01*
X47033*
X47334Y70739*
X46133Y66389D02*
X46733D01*
X47033Y66239*
X47184Y66089*
X47334Y65789*
Y65489*
X47184Y65189*
X47033Y65039*
X46733Y64889*
X46133*
X45834Y65039*
X45684Y65189*
X45533Y65489*
Y65789*
X45684Y66089*
X45834Y66239*
X46133Y66389*
X45533Y63989D02*
X47334D01*
Y62489*
X46434Y62789D02*
Y63989D01*
X45834Y60089D02*
X45684Y60239D01*
X45533Y60539*
Y60989*
X45684Y61289*
X45834Y61439*
X46133Y61589*
X46733*
X47033Y61439*
X47184Y61289*
X47334Y60989*
Y60539*
X47184Y60239*
X47033Y60089*
X46133Y59189D02*
X46733D01*
X47033Y59039*
X47184Y58889*
X47334Y58589*
Y58289*
X47184Y57989*
X47033Y57839*
X46733Y57689*
X46133*
X45834Y57839*
X45684Y57989*
X45533Y58289*
Y58589*
X45684Y58889*
X45834Y59039*
X46133Y59189*
X45533Y56789D02*
X47334D01*
X46434Y56039*
X47334Y55289*
X45533*
Y50789D02*
Y51989D01*
X46584Y50939*
X46883Y50789*
X47184Y50939*
X47334Y51239*
Y51689*
X47184Y51989*
X45684Y49439D02*
X45533Y49139D01*
Y48839*
X45684Y48539*
X45983Y48389*
X46883*
X47184Y48539*
X47334Y48839*
Y49139*
X47184Y49439*
X46883Y49589*
X45983*
X45684Y49439*
X47184Y48539*
X45533Y46889D02*
Y46289D01*
Y46589D02*
X47334D01*
X47033Y46889*
X45684Y44789D02*
X45533Y44489D01*
Y44039*
X45684Y43739*
X45983Y43589*
X46133*
X46434Y43739*
X46584Y44039*
Y44789*
X47334*
Y43589*
X127739Y54656D02*
Y53739D01*
X127589Y53589*
X124166*
X123764Y53992*
D02*
D83*
X3888Y18146D03*
X7614Y34989D03*
X11389Y18146D03*
X15234Y34989D03*
X18889Y18146D03*
X26389D03*
X30414Y35089D03*
X32889Y18146D03*
X38034Y35089D03*
X40389Y18146D03*
X47439Y96589D03*
X47889Y18146D03*
X55389D03*
X61889D03*
X69389D03*
X71739Y96597D03*
X74839Y68339D03*
X76889Y18146D03*
X84389D03*
X85614Y96689D03*
X91939Y71889D03*
X97389Y96663D03*
X98439Y14489D03*
Y22109D03*
X100789Y52114D03*
X106089Y96614D03*
X106339Y73089D03*
X114789Y96614D03*
X127139Y41064D03*
D02*
D84*
X6389Y76384D03*
Y81464D03*
X31414Y7614D03*
X36493D03*
X41574D03*
X46654D03*
X51734D03*
X56814D03*
X139712Y26709D03*
Y31789D03*
Y45929D03*
Y51009D03*
Y56089D03*
Y70409D03*
Y75489D03*
X139739Y7509D03*
Y12589D03*
Y89409D03*
Y94489D03*
D02*
D85*
X56814Y10959D03*
X136362Y51009D03*
X136367Y56089D03*
D02*
D86*
X61839Y44399D03*
Y46939D03*
Y49479D03*
X61864Y79899D03*
Y82439D03*
Y84979D03*
X84198Y38914D03*
X86739D03*
X89279D03*
X118639Y23524D03*
Y26064D03*
Y28604D03*
D02*
D87*
X58049Y34189D03*
Y59689D03*
X58074Y69689D03*
Y95189D03*
X73989Y35124D03*
X99489D03*
X114849Y13314D03*
Y38814D03*
D02*
D88*
X71689Y47489D03*
Y49489D03*
X71739Y82964D03*
Y84964D03*
X84339Y47689D03*
X86339D03*
X127093Y26689D03*
Y28689D03*
D02*
D89*
X98359Y60249D03*
Y62789D03*
X100899Y60249D03*
Y62789D03*
X103439Y60249D03*
Y62789D03*
X105978Y60249D03*
Y62789D03*
X108518Y60249D03*
Y62789D03*
X111059Y60249D03*
Y62789D03*
X113599Y60249D03*
Y62789D03*
X116139Y60249D03*
Y62789D03*
X118679Y60249D03*
Y62789D03*
X121218Y60249D03*
Y62789D03*
X123759Y60249D03*
Y62789D03*
X126299Y60249D03*
Y62789D03*
X128839Y60249D03*
Y62789D03*
D02*
D90*
X126789Y52522D03*
Y54656D03*
X127739Y52522D03*
Y54656D03*
X128689Y52522D03*
Y54656D03*
D02*
D91*
X24214Y83387D03*
Y85292D03*
Y87587D03*
Y89492D03*
X95189Y84137D03*
Y86042D03*
X95889Y67137D03*
Y69042D03*
X98926Y74699D03*
Y76604D03*
X100689Y90487D03*
Y92392D03*
X103389Y90474D03*
Y92379D03*
X103539Y85737D03*
Y87642D03*
X103801Y78824D03*
Y80729D03*
X108639Y77137D03*
Y79042D03*
X116814Y85662D03*
Y87567D03*
X123764Y52087D03*
Y53992D03*
X123989Y85587D03*
Y87492D03*
X126839Y81237D03*
Y83142D03*
Y85537D03*
Y87442D03*
X131239Y52637D03*
Y54542D03*
D02*
D92*
X98933Y67127D03*
Y71851D03*
X100204Y67127D03*
Y71851D03*
X101474Y67127D03*
Y71851D03*
X102743Y67127D03*
Y71851D03*
D02*
D93*
X111189Y79089D03*
X112139Y77089D03*
X112239Y86089D03*
X113089Y79089D03*
X113189Y84089D03*
X114139Y86089D03*
X115389Y79014D03*
X116339Y77014D03*
X117289Y79014D03*
X119589D03*
X120539Y77014D03*
X121489Y79014D03*
X128389Y71789D03*
X129339Y69789D03*
X130289Y71789D03*
D02*
D94*
X30761Y88839D03*
X32666D03*
X94061Y90489D03*
X95966D03*
X98948Y79177D03*
X100854D03*
X106286Y81589D03*
X108191D03*
X111186D03*
X113091D03*
X114336Y69964D03*
X116241D03*
X116436Y73464D03*
X118341D03*
X118536Y69964D03*
X119536Y87589D03*
X120441Y69964D03*
X120811Y47939D03*
X121441Y87589D03*
X122586Y67289D03*
X122716Y47939D03*
X124491Y67289D03*
X125136Y47939D03*
X127041D03*
X127836Y57089D03*
X129741D03*
D02*
D95*
X119489Y83139D03*
Y85039D03*
X121489Y84089D03*
X122689Y69714D03*
Y71614D03*
X124689Y70664D03*
D02*
D96*
X20870Y97522D03*
D02*
D97*
X22572Y92442D03*
X24274Y97522D03*
X25976Y92442D03*
X27678Y97522D03*
X29380Y92442D03*
X31081Y97522D03*
X32783Y92442D03*
X34485Y97522D03*
X36187Y92442D03*
X37889Y97522D03*
D02*
D98*
X97659Y82485D03*
Y87793D03*
X98929Y82485D03*
Y87793D03*
X100198Y82485D03*
Y87793D03*
X101469Y82485D03*
Y87793D03*
D02*
D99*
X27714Y70439D03*
Y74939D03*
D02*
D100*
X17489Y77464D03*
X27649D03*
D02*
D101*
X7614Y34989D02*
X27714Y55089D01*
Y70439*
X82611Y82892D03*
X91068Y55224D03*
X95314Y93614D03*
X97689Y56564D03*
X100214Y84564D03*
X106139Y78689D03*
X106339Y85489D03*
X120805Y67980D03*
X126614Y71864D03*
D02*
D102*
X30761Y88839D02*
X29380Y90221D01*
Y92442*
X95189Y86042D02*
Y88114D01*
X95889Y69042D02*
Y69464D01*
X95914Y69489*
X101104*
X100839Y79162D02*
X100854Y79177D01*
Y78989*
X103448*
X103614Y78824*
X103801*
X103539Y83389D02*
Y85737D01*
X103801Y78824D02*
X106004D01*
X106139Y78689*
X103801Y80729D02*
X104079D01*
X104639Y81289*
X105986*
X106286Y81589*
X106339Y81642*
Y85489*
X120811Y53137D02*
X120889Y53214D01*
X126631Y71881D02*
X126614Y71864D01*
X127739Y56992D02*
X127836Y57089D01*
D02*
D103*
X101104Y69489D02*
X102164D01*
X102751Y70077*
Y71844*
X102743Y71851*
X101469Y82485D02*
X102634D01*
X103539Y83389*
X123764Y53992D02*
X121666D01*
X120889Y53214*
X127739Y54656D02*
Y56992D01*
X128389Y71789D02*
X126868Y71734D01*
X126664Y71939*
X126714*
X126764Y71889*
X126631Y71881*
D02*
D104*
X27649Y77464D02*
Y75004D01*
X27714Y74939*
Y70439D02*
Y68289D01*
X30889*
X36187Y73587*
Y79939*
Y92442*
X37889Y94144*
Y97522*
X36227Y79899D02*
X36187Y79939D01*
X61889Y18146D02*
Y21576D01*
X65852Y25539*
X98439*
Y22109*
D02*
D105*
X61864Y79899D02*
X36227D01*
X0Y0D02*
M02*
